<svg width="161" height="73" viewBox="0 0 161 73" fill="none" xmlns="http://www.w3.org/2000/svg">
<path d="M19.6515 35.8945C17.5303 35.8945 15.6212 36.9551 14.4545 38.6521C13.2879 37.0612 11.4848 35.8945 9.25758 35.8945C5.86364 35.8945 3 38.6521 3 42.1521V58.5915C3 59.2279 3.5303 59.6521 4.06061 59.6521C4.69697 59.6521 5.12121 59.1218 5.12121 58.5915V42.1521C5.12121 39.9248 6.92424 38.1218 9.15152 38.1218C11.3788 38.1218 13.1818 39.9248 13.1818 42.1521V58.5915C13.1818 59.2279 13.7121 59.6521 14.2424 59.6521C14.8788 59.6521 15.303 59.1218 15.303 58.5915V42.1521C15.303 39.9248 17.1061 38.1218 19.3333 38.1218C21.5606 38.1218 23.3636 39.9248 23.3636 42.1521V58.5915C23.3636 59.2279 23.8939 59.6521 24.4242 59.6521C24.9545 59.6521 25.4848 59.1218 25.4848 58.5915V42.1521C25.803 38.6521 23.0455 35.8945 19.6515 35.8945Z" fill="white"/>
<path d="M32.8028 35.8945C32.1664 35.8945 31.7422 36.4248 31.7422 36.9551V58.4854C31.7422 59.1218 32.2725 59.546 32.8028 59.546C33.4392 59.546 33.8634 59.0157 33.8634 58.4854V37.0612C33.9695 36.4248 33.4392 35.8945 32.8028 35.8945Z" fill="white"/>
<path d="M51.0462 35.8945C44.5765 35.8945 39.2734 41.1976 39.2734 47.6673C39.2734 54.1369 44.5765 59.44 51.0462 59.44C53.6977 59.44 56.3492 58.4854 58.4704 56.7885C58.8947 56.3642 59.0007 55.7279 58.6825 55.1976C58.2583 54.7733 57.6219 54.6673 57.0916 55.0915C55.3947 56.4703 53.2734 57.2127 51.0462 57.2127C45.7431 57.2127 41.3947 52.8642 41.3947 47.5612C41.3947 42.2582 45.7431 37.9097 51.0462 37.9097C53.3795 37.9097 55.6068 38.7582 57.3037 40.243C57.728 40.6673 58.4704 40.5612 58.8947 40.137C59.3189 39.7127 59.2128 38.9703 58.7886 38.546C56.5613 36.9551 53.9098 35.8945 51.0462 35.8945Z" fill="white"/>
<path d="M75.8598 35.8945C69.2841 35.8945 63.875 41.3036 63.875 47.8794C63.875 54.4551 69.178 59.8642 75.8598 59.8642C79.8901 59.8642 83.4962 57.8491 85.6174 54.7733V58.8036C85.6174 59.44 86.1477 59.8642 86.678 59.8642C87.2083 59.8642 87.7386 59.3339 87.7386 58.8036V47.9854V47.8794C87.7386 41.3036 82.4356 35.8945 75.8598 35.8945ZM75.8598 57.6369C70.4508 57.6369 66.1023 53.2885 66.1023 47.8794C66.1023 42.4703 70.4508 38.1218 75.8598 38.1218C81.2689 38.1218 85.6174 42.4703 85.6174 47.8794C85.6174 53.2885 81.1629 57.6369 75.8598 57.6369Z" fill="white"/>
<path d="M133.243 59.8642C139.818 59.8642 145.228 54.4551 145.228 47.8794C145.228 41.3036 139.818 35.8945 133.243 35.8945C126.667 35.8945 121.258 41.3036 121.258 47.8794C121.364 54.4551 126.667 59.8642 133.243 59.8642ZM133.243 38.1218C138.652 38.1218 143 42.4703 143 47.8794C143 53.2885 138.652 57.6369 133.243 57.6369C127.834 57.6369 123.485 53.2885 123.485 47.8794C123.485 42.4703 127.94 38.1218 133.243 38.1218Z" fill="white"/>
<path d="M152.969 60.3948C151.166 60.3948 149.681 61.5615 149.257 63.2585H123.06H119.348C117.333 63.2585 115.636 61.5615 115.636 59.5463V28.8948C115.636 25.6069 112.984 22.9554 109.697 22.9554H106.409H36.6207C36.1965 21.3645 34.6056 20.0918 32.9086 20.0918C30.7874 20.0918 28.9844 21.8948 28.9844 24.016C28.9844 26.1373 30.7874 27.9403 32.9086 27.9403C34.7116 27.9403 36.1965 26.7736 36.6207 25.0766H106.409H109.803C111.818 25.0766 113.515 26.7736 113.515 28.7888V40.8797C111.393 37.8039 107.787 35.8948 103.863 35.8948C97.2874 35.8948 91.9844 41.1979 91.9844 47.7736C91.9844 54.3494 97.2874 59.6524 103.863 59.6524C107.893 59.6524 111.393 57.6372 113.515 54.6675V59.5463C113.515 62.8342 116.166 65.4857 119.454 65.4857H123.166H149.363C149.787 67.0766 151.378 68.3494 153.075 68.3494C155.197 68.3494 157 66.5463 157 64.4251C156.893 62.1978 155.09 60.3948 152.969 60.3948ZM32.8026 26.8797C31.2116 26.8797 29.9389 25.6069 29.9389 24.016C29.9389 22.4251 31.2116 21.1524 32.8026 21.1524C34.3935 21.1524 35.6662 22.4251 35.6662 24.016C35.6662 25.6069 34.3935 26.8797 32.8026 26.8797ZM103.757 57.5312C98.4541 57.5312 94.1056 53.1827 94.1056 47.8797C94.1056 42.5766 98.4541 38.2282 103.757 38.2282C109.06 38.2282 113.409 42.5766 113.409 47.8797C113.409 53.1827 109.06 57.5312 103.757 57.5312ZM152.969 67.1827C151.378 67.1827 150.106 65.91 150.106 64.3191C150.106 62.7282 151.378 61.4554 152.969 61.4554C154.56 61.4554 155.833 62.7282 155.833 64.3191C155.833 65.91 154.56 67.1827 152.969 67.1827Z" fill="white"/>
<path d="M40.7602 17.546C40.8662 17.546 40.9723 17.546 41.0784 17.44C41.1844 17.3339 41.1844 17.2279 41.1844 17.1218V13.5157C41.2905 13.6218 41.2905 13.7279 41.3965 13.8339C41.6087 14.046 41.8208 14.2582 42.0329 14.3642C42.245 14.5763 42.5632 14.6824 42.7753 14.7885C43.0935 14.8945 43.3056 14.8945 43.6238 14.8945C44.2602 14.8945 44.6844 14.7885 45.2147 14.4703C45.639 14.1521 46.0632 13.7279 46.3814 13.1976C46.6996 12.6673 46.8056 12.0309 46.8056 11.3945C46.8056 10.7582 46.6996 10.1218 46.3814 9.5915C46.0632 9.0612 45.745 8.63696 45.3208 8.31877C44.8965 8.00059 44.3662 7.89453 43.7299 7.89453C43.4117 7.89453 43.0935 7.89453 42.8814 8.00059C42.5632 8.10665 42.3511 8.21271 42.139 8.31877C41.9268 8.42483 41.7147 8.63696 41.5026 8.84908C41.3965 8.95514 41.3965 9.0612 41.2905 9.16726V8.42483C41.2905 8.31877 41.2905 8.21271 41.1844 8.10665C41.0784 8.00059 40.8662 8.10665 40.7602 8.10665C40.6541 8.10665 40.5481 8.10665 40.442 8.21271C40.3359 8.31877 40.3359 8.42483 40.3359 8.53089V17.2279C40.3359 17.3339 40.3359 17.44 40.442 17.546C40.5481 17.44 40.6541 17.546 40.7602 17.546ZM41.3965 10.1218C41.6087 9.69756 41.9268 9.37938 42.245 9.16726C42.5632 8.95514 42.9875 8.84908 43.5178 8.84908C43.942 8.84908 44.3662 8.95514 44.7905 9.16726C45.1087 9.37938 45.4268 9.69756 45.639 10.1218C45.8511 10.546 45.9571 10.9703 45.9571 11.5006C45.9571 12.0309 45.8511 12.4551 45.639 12.8794C45.4268 13.3036 45.1087 13.6218 44.7905 13.8339C44.4723 14.1521 44.0481 14.2582 43.5178 14.2582C42.9875 14.2582 42.6693 14.1521 42.245 13.94C41.9268 13.7279 41.6087 13.4097 41.3965 12.9854C41.1844 12.5612 41.0784 12.137 41.0784 11.6067C41.0784 10.9703 41.1844 10.44 41.3965 10.1218Z" fill="white"/>
<path d="M49.2393 14.5767C49.7696 14.8949 50.3 15.001 50.9363 15.001C51.5727 15.001 52.103 14.8949 52.6333 14.5767C53.1636 14.2586 53.5878 13.8343 53.8 13.304C54.1181 12.7737 54.2242 12.1373 54.2242 11.501C54.2242 10.8646 54.1181 10.2282 53.8 9.69795C53.4818 9.16764 53.0575 8.7434 52.6333 8.42522C52.103 8.10704 51.5727 8.00098 50.9363 8.00098C50.3 8.00098 49.7696 8.10704 49.2393 8.42522C48.709 8.7434 48.2848 9.16764 48.0727 9.69795C47.7545 10.2282 47.6484 10.8646 47.6484 11.501C47.6484 12.1373 47.7545 12.7737 48.0727 13.304C48.2848 13.8343 48.709 14.2586 49.2393 14.5767ZM48.709 10.0161C48.9212 9.59189 49.2393 9.2737 49.6636 9.06158C50.0878 8.84946 50.5121 8.7434 50.9363 8.7434C51.4666 8.7434 51.8909 8.84946 52.209 9.06158C52.6333 9.2737 52.8454 9.59189 53.1636 10.0161C53.3757 10.4404 53.4818 10.8646 53.4818 11.501C53.4818 12.0313 53.3757 12.5616 53.1636 12.9858C52.9515 13.4101 52.6333 13.7282 52.209 13.9404C51.8909 14.1525 51.4666 14.2586 50.9363 14.2586C50.406 14.2586 49.9818 14.1525 49.6636 13.9404C49.2393 13.7282 48.9212 13.4101 48.709 12.9858C48.4969 12.5616 48.3909 12.1373 48.3909 11.501C48.3909 10.9707 48.4969 10.4404 48.709 10.0161Z" fill="white"/>
<path d="M57.196 14.5769C57.196 14.683 57.3021 14.683 57.3021 14.7891C57.4081 14.7891 57.5142 14.8951 57.5142 14.8951C57.7263 14.8951 57.8324 14.7891 57.8324 14.683L59.4233 10.5466L61.1203 14.683C61.2263 14.8951 61.3324 14.8951 61.4385 14.8951C61.5445 14.8951 61.5445 14.8951 61.6506 14.7891C61.7566 14.7891 61.7566 14.683 61.8627 14.5769L63.8779 8.42543C63.8779 8.42543 63.8779 8.42543 63.8779 8.31937V8.2133C63.8779 8.10724 63.8779 8.00118 63.7718 7.89512C63.8779 8.00118 63.7718 7.89512 63.6657 7.89512C63.4536 7.89512 63.3475 8.00118 63.2415 8.2133L61.5445 13.5163L59.8475 9.59209C59.8475 9.48603 59.7415 9.48603 59.7415 9.37997C59.6354 9.37997 59.6354 9.27391 59.5294 9.27391C59.3172 9.27391 59.2112 9.37997 59.1051 9.48603L57.5142 13.4103L55.7112 8.10724C55.7112 8.00118 55.6051 8.00118 55.6051 7.89512C55.4991 7.89512 55.4991 7.78906 55.393 7.78906C55.2869 7.78906 55.1809 7.78906 55.0748 7.89512C54.9688 8.00118 54.9688 8.10724 54.9688 8.2133C54.9688 8.31937 54.9688 8.31937 54.9688 8.42543L57.196 14.5769Z" fill="white"/>
<path d="M66.4268 14.5763C66.9571 14.8945 67.5935 15.0006 68.2299 15.0006C68.7602 15.0006 69.1844 14.8945 69.6087 14.6824C70.0329 14.4703 70.3511 14.1521 70.6693 13.8339C70.7753 13.7279 70.7753 13.6218 70.7753 13.5157C70.7753 13.4097 70.7753 13.3036 70.6693 13.3036C70.6693 13.1976 70.5632 13.1976 70.4572 13.1976C70.3511 13.1976 70.245 13.1976 70.139 13.3036C70.0329 13.5157 69.8208 13.6218 69.7147 13.7279C69.5026 13.8339 69.2905 13.94 69.0784 14.046C68.8662 14.2582 68.5481 14.2582 68.2299 14.2582C67.6996 14.2582 67.1693 14.1521 66.745 13.8339C66.3208 13.6218 66.0026 13.1976 65.7905 12.7733C65.5784 12.3491 65.4723 11.9248 65.4723 11.3945H70.5632C70.6693 11.3945 70.7753 11.3945 70.8814 11.2885C70.9875 11.1824 70.9875 11.0763 70.9875 10.9703C70.9875 10.44 70.8814 10.0157 70.6693 9.5915C70.4572 9.16726 70.245 8.84908 69.9269 8.63696C69.6087 8.31877 69.2905 8.21271 68.9723 8.00059C68.6541 8.00059 68.3359 7.89453 67.9117 7.89453C67.3814 7.89453 66.8511 8.00059 66.4268 8.31877C66.0026 8.63696 65.5784 9.0612 65.2602 9.5915C64.942 10.1218 64.8359 10.7582 64.8359 11.5006C64.8359 12.243 64.942 12.7733 65.2602 13.3036C65.5784 13.8339 65.8965 14.2582 66.4268 14.5763ZM65.7905 10.2279C65.8965 9.90968 66.1087 9.5915 66.3208 9.37938C66.5329 9.16726 66.8511 8.95514 67.0632 8.84908C67.3814 8.74302 67.5935 8.63696 67.9117 8.63696C68.2299 8.63696 68.6541 8.74302 68.9723 8.84908C69.2905 8.95514 69.6087 9.27332 69.8208 9.48544C70.0329 9.80362 70.139 10.1218 70.245 10.546V10.6521H65.6844C65.6844 10.546 65.6844 10.3339 65.7905 10.2279Z" fill="white"/>
<path d="M72.6821 14.8945C72.7881 14.8945 72.8942 14.8945 73.0002 14.7885C73.1063 14.6824 73.1063 14.5763 73.1063 14.4703V11.1824C73.1063 10.8642 73.2124 10.546 73.3184 10.2279C73.4245 10.0157 73.5305 9.69756 73.7427 9.48544C73.9548 9.27332 74.1669 9.0612 74.379 8.84908C74.5911 8.74302 74.9093 8.63696 75.1215 8.63696C75.2275 8.63696 75.4396 8.63696 75.4396 8.74302C75.5457 8.74302 75.6518 8.84908 75.6518 8.84908C75.7578 8.84908 75.8639 8.84908 75.8639 8.74302C75.9699 8.63696 75.9699 8.53089 75.9699 8.42483C75.9699 8.31877 75.8639 8.21271 75.7578 8.10665C75.7578 8.00059 75.6518 7.89453 75.4396 7.89453C75.0154 7.89453 74.6972 8.00059 74.379 8.10665C74.0608 8.31877 73.8487 8.42483 73.6366 8.74302C73.4245 8.95514 73.2124 9.27332 73.1063 9.5915V9.69756V8.53089C73.1063 8.42483 73.1063 8.31877 73.0002 8.21271C72.8942 8.10665 72.7881 8.10665 72.6821 8.10665C72.576 8.10665 72.4699 8.10665 72.3639 8.21271C72.2578 8.31877 72.2578 8.42483 72.2578 8.53089V14.4703C72.2578 14.5763 72.2578 14.6824 72.3639 14.7885C72.4699 14.7885 72.576 14.8945 72.6821 14.8945Z" fill="white"/>
<path d="M77.9815 14.5763C78.5118 14.8945 79.1482 15.0006 79.7846 15.0006C80.3149 15.0006 80.7391 14.8945 81.1634 14.6824C81.5876 14.4703 81.9058 14.1521 82.224 13.8339C82.33 13.7279 82.33 13.6218 82.33 13.5157C82.33 13.4097 82.33 13.3036 82.224 13.3036C82.224 13.1976 82.1179 13.1976 82.0119 13.1976C81.9058 13.1976 81.7997 13.1976 81.6937 13.3036C81.5876 13.5157 81.3755 13.6218 81.2694 13.7279C81.0573 13.8339 80.8452 13.94 80.6331 14.046C80.4209 14.2582 80.1028 14.2582 79.7846 14.2582C79.2543 14.2582 78.724 14.1521 78.2997 13.8339C77.8755 13.6218 77.5573 13.1976 77.3452 12.7733C77.1331 12.3491 77.027 11.9248 77.027 11.3945H82.0119C82.1179 11.3945 82.224 11.3945 82.33 11.2885C82.4361 11.1824 82.4361 11.0763 82.4361 10.9703C82.4361 10.44 82.33 10.0157 82.1179 9.5915C81.9058 9.16726 81.6937 8.84908 81.3755 8.63696C81.0573 8.31877 80.7391 8.21271 80.4209 8.00059C80.2088 8.00059 79.8906 7.89453 79.4664 7.89453C78.9361 7.89453 78.4058 8.00059 77.9815 8.31877C77.5573 8.63696 77.1331 9.0612 76.8149 9.5915C76.4967 10.1218 76.3906 10.7582 76.3906 11.5006C76.3906 12.243 76.4967 12.7733 76.8149 13.3036C77.027 13.8339 77.4512 14.2582 77.9815 14.5763ZM77.3452 10.2279C77.4512 9.90968 77.6634 9.5915 77.8755 9.37938C78.0876 9.16726 78.4058 8.95514 78.6179 8.84908C78.9361 8.74302 79.1482 8.63696 79.4664 8.63696C79.7846 8.63696 80.2088 8.74302 80.527 8.84908C80.8452 8.95514 81.1634 9.27332 81.3755 9.48544C81.5876 9.80362 81.6937 10.1218 81.7997 10.546V10.6521H77.2391C77.2391 10.546 77.2391 10.3339 77.3452 10.2279Z" fill="white"/>
<path d="M84.986 14.5767C85.4103 14.8949 85.9406 15.0009 86.5769 15.0009C87.0012 15.0009 87.3194 14.8949 87.6375 14.7888C87.9557 14.6828 88.2739 14.4706 88.486 14.2585C88.6982 14.0464 88.9103 13.8343 89.0163 13.5161V14.4706C89.0163 14.5767 89.0163 14.6828 89.1224 14.7888C89.2285 14.8949 89.3345 14.8949 89.4406 14.8949C89.5466 14.8949 89.6527 14.8949 89.7588 14.7888C89.8648 14.6828 89.8648 14.5767 89.8648 14.4706V5.45549C89.8648 5.34943 89.8648 5.24337 89.7588 5.13731C89.6527 5.03125 89.5466 5.03125 89.4406 5.03125C89.3345 5.03125 89.2285 5.03125 89.1224 5.13731C89.0163 5.24337 89.0163 5.34943 89.0163 5.45549V9.37973C88.9103 9.16761 88.6982 8.84943 88.486 8.63731C88.2739 8.42519 87.9557 8.21307 87.6375 8.10701C87.2133 8.00095 86.8951 7.89489 86.4709 7.89489C85.8345 7.89489 85.4103 8.00095 84.88 8.31913C84.4557 8.63731 84.0315 9.06155 83.7133 9.59185C83.3951 10.1222 83.2891 10.7585 83.2891 11.3949C83.2891 12.0312 83.3951 12.6676 83.7133 13.1979C84.1375 13.8343 84.4557 14.2585 84.986 14.5767ZM84.4557 10.0161C84.6678 9.59185 84.986 9.27367 85.3042 9.06155C85.6224 8.84943 86.0466 8.74337 86.5769 8.74337C87.0012 8.74337 87.4254 8.84943 87.8497 9.06155C88.1679 9.27367 88.486 9.59185 88.6982 10.0161C88.9103 10.4403 89.0163 10.8646 89.0163 11.3949C89.0163 11.9252 88.9103 12.4555 88.6982 12.8797C88.486 13.304 88.1679 13.6222 87.8497 13.8343C87.5315 14.1525 87.1072 14.2585 86.5769 14.2585C86.1527 14.2585 85.7285 14.1525 85.3042 13.9403C84.986 13.7282 84.6678 13.41 84.4557 12.9858C84.2436 12.5616 84.1376 12.0312 84.1376 11.5009C84.1376 10.9706 84.2436 10.4403 84.4557 10.0161Z" fill="white"/>
<path d="M95.1664 14.8949C95.2725 14.8949 95.3785 14.8949 95.4846 14.7888C95.5907 14.6828 95.5907 14.5767 95.5907 14.4706V13.5161C95.6967 13.6222 95.6967 13.7282 95.8028 13.8343C96.0149 14.0464 96.227 14.2585 96.4392 14.3646C96.6513 14.5767 96.9695 14.6828 97.1816 14.7888C97.4998 14.8949 97.7119 14.8949 98.0301 14.8949C98.6664 14.8949 99.0907 14.7888 99.621 14.4706C100.045 14.1525 100.469 13.7282 100.788 13.1979C101.106 12.6676 101.212 12.0312 101.212 11.3949C101.212 10.6525 101.106 10.1222 100.788 9.59186C100.469 9.06155 100.151 8.63731 99.727 8.31913C99.1967 8.10701 98.6664 7.89489 98.0301 7.89489C97.7119 7.89489 97.3937 7.89489 97.1816 8.00095C96.8634 8.10701 96.6513 8.21307 96.4392 8.42519C96.227 8.63731 96.0149 8.74337 95.8028 9.06155C95.6967 9.16761 95.6967 9.27367 95.5907 9.37973V5.45549C95.5907 5.34943 95.5907 5.24337 95.4846 5.13731C95.3785 5.03125 95.2725 5.03125 95.1664 5.03125C95.0604 5.03125 94.9543 5.03125 94.8482 5.13731C94.7422 5.24337 94.7422 5.34943 94.7422 5.45549V14.4706C94.7422 14.5767 94.7422 14.6828 94.8482 14.7888C94.9543 14.8949 95.0604 14.8949 95.1664 14.8949ZM95.8028 10.0161C96.0149 9.59185 96.3331 9.27367 96.6513 9.06155C96.9695 8.84943 97.3937 8.74337 97.924 8.74337C98.3482 8.74337 98.7725 8.84943 99.1967 9.06155C99.5149 9.27367 99.8331 9.59185 100.045 10.0161C100.257 10.4403 100.363 10.8646 100.363 11.5009C100.363 12.0312 100.257 12.4555 100.045 12.8797C99.8331 13.304 99.5149 13.6222 99.1967 13.9403C98.8785 14.1525 98.4543 14.3646 97.924 14.3646C97.3937 14.3646 97.0755 14.2585 96.6513 14.0464C96.3331 13.8343 96.0149 13.5161 95.8028 12.9858C95.5907 12.5616 95.4846 12.0312 95.4846 11.5009C95.4846 10.8646 95.5907 10.4403 95.8028 10.0161Z" fill="white"/>
<path d="M103.546 14.6824C103.864 14.8945 104.289 15.0006 104.819 15.0006C105.137 15.0006 105.455 14.8945 105.773 14.7885C106.092 14.6824 106.41 14.4703 106.622 14.2582C106.834 14.046 106.94 13.94 107.046 13.7279V14.2582C107.046 14.7885 106.94 15.2127 106.728 15.637C106.516 16.0612 106.304 16.2733 105.88 16.4854C105.561 16.6976 105.137 16.8036 104.607 16.8036C104.289 16.8036 103.97 16.6976 103.652 16.5915C103.44 16.4854 103.228 16.3794 103.122 16.3794C103.016 16.3794 102.91 16.3794 102.804 16.3794C102.698 16.3794 102.592 16.4854 102.592 16.5915C102.592 16.6976 102.592 16.8036 102.592 16.9097C102.698 17.0157 102.698 17.1218 102.804 17.1218C103.016 17.2279 103.228 17.3339 103.546 17.44C103.864 17.546 104.183 17.546 104.607 17.546C105.243 17.546 105.773 17.44 106.198 17.1218C106.728 16.9097 107.046 16.4854 107.364 15.9551C107.683 15.4248 107.789 14.8945 107.789 14.1521V8.31877C107.789 8.21271 107.789 8.10665 107.683 8.00059C107.576 7.89453 107.47 7.89453 107.364 7.89453C107.258 7.89453 107.152 7.89453 107.046 8.00059C106.94 8.10665 106.94 8.21271 106.94 8.31877V12.243C106.94 12.5612 106.834 12.8794 106.622 13.1976C106.41 13.5157 106.198 13.7279 105.88 13.94C105.561 14.1521 105.243 14.2582 104.819 14.2582C104.183 14.2582 103.758 14.046 103.546 13.7279C103.228 13.4097 103.122 12.8794 103.122 12.243V8.31877C103.122 8.21271 103.122 8.10665 103.016 8.00059C102.91 7.89453 102.804 7.89453 102.698 7.89453C102.592 7.89453 102.486 7.89453 102.379 8.00059C102.273 8.10665 102.273 8.21271 102.273 8.31877V12.3491C102.273 12.8794 102.379 13.3036 102.486 13.7279C102.91 14.1521 103.122 14.4703 103.546 14.6824Z" fill="white"/>
</svg>
