<svg width="152" height="69" viewBox="0 0 152 69" fill="none" xmlns="http://www.w3.org/2000/svg">
<path d="M19.025 33.4441C17.0224 33.4441 15.22 34.4454 14.1186 36.0475C13.0171 34.5455 11.3149 33.4441 9.21209 33.4441C6.00788 33.4441 3.30432 36.0475 3.30432 39.3519V54.8723C3.30432 55.4731 3.80498 55.8736 4.30564 55.8736C4.90643 55.8736 5.30696 55.3729 5.30696 54.8723V39.3519C5.30696 37.2491 7.0092 35.5469 9.11196 35.5469C11.2147 35.5469 12.917 37.2491 12.917 39.3519V54.8723C12.917 55.4731 13.4176 55.8736 13.9183 55.8736C14.5191 55.8736 14.9196 55.3729 14.9196 54.8723V39.3519C14.9196 37.2491 16.6218 35.5469 18.7246 35.5469C20.8274 35.5469 22.5296 37.2491 22.5296 39.3519V54.8723C22.5296 55.4731 23.0303 55.8736 23.5309 55.8736C24.0316 55.8736 24.5323 55.3729 24.5323 54.8723V39.3519C24.8326 36.0475 22.2292 33.4441 19.025 33.4441Z" fill="white"/>
<path d="M31.4414 33.4441C30.8406 33.4441 30.4401 33.9448 30.4401 34.4454V54.7722C30.4401 55.3729 30.9407 55.7735 31.4414 55.7735C32.0422 55.7735 32.4427 55.2728 32.4427 54.7722V34.5455C32.5428 33.9447 32.0422 33.4441 31.4414 33.4441Z" fill="white"/>
<path d="M48.6641 33.4441C42.556 33.4441 37.5494 38.4507 37.5494 44.5587C37.5494 50.6668 42.556 55.6733 48.6641 55.6733C51.1674 55.6733 53.6707 54.7722 55.6733 53.17C56.0738 52.7695 56.1739 52.1687 55.8736 51.6681C55.473 51.2675 54.8722 51.1674 54.3716 51.5679C52.7695 52.8696 50.7668 53.5706 48.6641 53.5706C43.6575 53.5706 39.5521 49.4652 39.5521 44.4586C39.5521 39.452 43.6575 35.3466 48.6641 35.3466C50.867 35.3466 52.9697 36.1476 54.5718 37.5495C54.9724 37.95 55.6733 37.8499 56.0738 37.4494C56.4743 37.0488 56.3742 36.3479 55.9737 35.9474C53.8709 34.4454 51.3676 33.4441 48.6641 33.4441Z" fill="white"/>
<path d="M72.0948 33.4441C65.8866 33.4441 60.7799 38.5508 60.7799 44.759C60.7799 50.9671 65.7865 56.0739 72.0948 56.0739C75.8998 56.0739 79.3043 54.1714 81.3069 51.2675V55.0725C81.3069 55.6733 81.8076 56.0739 82.3082 56.0739C82.8089 56.0739 83.3095 55.5732 83.3095 55.0725V44.8591V44.759C83.3095 38.5508 78.303 33.4441 72.0948 33.4441ZM72.0948 53.9711C66.9881 53.9711 62.8827 49.8657 62.8827 44.759C62.8827 39.6523 66.9881 35.5469 72.0948 35.5469C77.2015 35.5469 81.3069 39.6523 81.3069 44.759C81.3069 49.8657 77.1014 53.9711 72.0948 53.9711Z" fill="white"/>
<path d="M126.266 56.0739C132.474 56.0739 137.581 50.9671 137.581 44.759C137.581 38.5508 132.474 33.4441 126.266 33.4441C120.058 33.4441 114.951 38.5508 114.951 44.759C115.051 50.9671 120.058 56.0739 126.266 56.0739ZM126.266 35.5469C131.373 35.5469 135.478 39.6523 135.478 44.759C135.478 49.8657 131.373 53.9711 126.266 53.9711C121.159 53.9711 117.054 49.8657 117.054 44.759C117.054 39.6523 121.259 35.5469 126.266 35.5469Z" fill="white"/>
<path d="M144.891 56.5745C143.188 56.5745 141.786 57.6759 141.386 59.278H116.653H113.149C111.246 59.278 109.644 57.6759 109.644 55.7734V26.8353C109.644 23.7313 107.141 21.228 104.037 21.228H100.933H35.046C34.6455 19.726 33.1435 18.5244 31.5414 18.5244C29.5388 18.5244 27.8365 20.2267 27.8365 22.2293C27.8365 24.2319 29.5388 25.9342 31.5414 25.9342C33.2437 25.9342 34.6455 24.8327 35.046 23.2306H100.933H104.137C106.039 23.2306 107.642 24.8327 107.642 26.7352V38.1502C105.639 35.2464 102.234 33.444 98.5296 33.444C92.3214 33.444 87.3148 38.4506 87.3148 44.6588C87.3148 50.867 92.3214 55.8736 98.5296 55.8736C102.335 55.8736 105.639 53.9711 107.642 51.1674V55.7734C107.642 58.8775 110.145 61.3808 113.249 61.3808H116.754H141.486C141.887 62.8828 143.389 64.0844 144.991 64.0844C146.993 64.0844 148.696 62.3821 148.696 60.3795C148.595 58.2767 146.893 56.5745 144.891 56.5745ZM31.4413 24.9328C29.9393 24.9328 28.7377 23.7313 28.7377 22.2293C28.7377 20.7273 29.9393 19.5257 31.4413 19.5257C32.9433 19.5257 34.1448 20.7273 34.1448 22.2293C34.1448 23.7313 32.9433 24.9328 31.4413 24.9328ZM98.4294 53.8709C93.4228 53.8709 89.3174 49.7655 89.3174 44.7589C89.3174 39.7523 93.4228 35.6469 98.4294 35.6469C103.436 35.6469 107.541 39.7523 107.541 44.7589C107.541 49.7655 103.436 53.8709 98.4294 53.8709ZM144.891 62.9829C143.389 62.9829 142.187 61.7813 142.187 60.2794C142.187 58.7774 143.389 57.5758 144.891 57.5758C146.393 57.5758 147.594 58.7774 147.594 60.2794C147.594 61.7813 146.393 62.9829 144.891 62.9829Z" fill="white"/>
<path d="M38.9513 16.1213C39.0514 16.1213 39.1516 16.1213 39.2517 16.0211C39.3518 15.921 39.3518 15.8209 39.3518 15.7207V12.3163C39.452 12.4164 39.452 12.5165 39.5521 12.6167C39.7524 12.8169 39.9526 13.0172 40.1529 13.1173C40.3532 13.3176 40.6535 13.4177 40.8538 13.5178C41.1542 13.618 41.3545 13.618 41.6549 13.618C42.2557 13.618 42.6562 13.5178 43.1568 13.2174C43.5574 12.9171 43.9579 12.5165 44.2583 12.0159C44.5587 11.5152 44.6588 10.9144 44.6588 10.3136C44.6588 9.71283 44.5587 9.11204 44.2583 8.61139C43.9579 8.11073 43.6575 7.7102 43.257 7.4098C42.8564 7.10941 42.3558 7.00928 41.755 7.00928C41.4546 7.00928 41.1542 7.00928 40.9539 7.10941C40.6535 7.20954 40.4533 7.30967 40.253 7.4098C40.0528 7.50994 39.8525 7.7102 39.6522 7.91046C39.5521 8.01059 39.5521 8.11073 39.452 8.21086V7.50994C39.452 7.4098 39.452 7.30967 39.3518 7.20954C39.2517 7.10941 39.0514 7.20954 38.9513 7.20954C38.8512 7.20954 38.751 7.20954 38.6509 7.30967C38.5508 7.4098 38.5508 7.50994 38.5508 7.61007V15.8209C38.5508 15.921 38.5508 16.0211 38.6509 16.1213C38.751 16.0211 38.8512 16.1213 38.9513 16.1213ZM39.5521 9.11204C39.7524 8.71152 40.0528 8.41112 40.3532 8.21086C40.6535 8.01059 41.0541 7.91046 41.5547 7.91046C41.9553 7.91046 42.3558 8.01059 42.7563 8.21086C43.0567 8.41112 43.3571 8.71152 43.5574 9.11204C43.7576 9.51257 43.8578 9.9131 43.8578 10.4138C43.8578 10.9144 43.7576 11.3149 43.5574 11.7155C43.3571 12.116 43.0567 12.4164 42.7563 12.6167C42.4559 12.9171 42.0554 13.0172 41.5547 13.0172C41.0541 13.0172 40.7537 12.9171 40.3532 12.7168C40.0528 12.5165 39.7524 12.2161 39.5521 11.8156C39.3518 11.4151 39.2517 11.0145 39.2517 10.5139C39.2517 9.9131 39.3518 9.41244 39.5521 9.11204Z" fill="white"/>
<path d="M46.9618 13.3175C47.4625 13.6179 47.9631 13.7181 48.5639 13.7181C49.1647 13.7181 49.6654 13.6179 50.166 13.3175C50.6667 13.0171 51.0672 12.6166 51.2675 12.116C51.5679 11.6153 51.668 11.0145 51.668 10.4137C51.668 9.81293 51.5679 9.21214 51.2675 8.71148C50.9671 8.21082 50.5666 7.8103 50.166 7.5099C49.6654 7.20951 49.1647 7.10938 48.5639 7.10938C47.9631 7.10938 47.4625 7.20951 46.9618 7.5099C46.4612 7.8103 46.0606 8.21082 45.8604 8.71148C45.56 9.21214 45.4598 9.81293 45.4598 10.4137C45.4598 11.0145 45.56 11.6153 45.8604 12.116C46.0606 12.6166 46.4612 13.0171 46.9618 13.3175ZM46.4612 9.01188C46.6614 8.61135 46.9618 8.31096 47.3623 8.11069C47.7629 7.91043 48.1634 7.8103 48.5639 7.8103C49.0646 7.8103 49.4651 7.91043 49.7655 8.11069C50.166 8.31096 50.3663 8.61135 50.6667 9.01188C50.8669 9.41241 50.9671 9.81293 50.9671 10.4137C50.9671 10.9144 50.8669 11.415 50.6667 11.8156C50.4664 12.2161 50.166 12.5165 49.7655 12.7168C49.4651 12.917 49.0646 13.0171 48.5639 13.0171C48.0633 13.0171 47.6627 12.917 47.3623 12.7168C46.9618 12.5165 46.6614 12.2161 46.4612 11.8156C46.2609 11.415 46.1608 11.0145 46.1608 10.4137C46.1608 9.91306 46.2609 9.41241 46.4612 9.01188Z" fill="white"/>
<path d="M54.4717 13.3176C54.4717 13.4177 54.5718 13.4177 54.5718 13.5179C54.6719 13.5179 54.7721 13.618 54.7721 13.618C54.9723 13.618 55.0725 13.5179 55.0725 13.4177L56.5744 9.5126L58.1765 13.4177C58.2767 13.618 58.3768 13.618 58.4769 13.618C58.5771 13.618 58.5771 13.618 58.6772 13.5179C58.7773 13.5179 58.7773 13.4177 58.8775 13.3176L60.78 7.50997C60.78 7.50997 60.78 7.50997 60.78 7.40984V7.30971C60.78 7.20957 60.78 7.10944 60.6798 7.00931C60.78 7.10944 60.6798 7.00931 60.5797 7.00931C60.3794 7.00931 60.2793 7.10944 60.1792 7.30971L58.5771 12.3163L56.975 8.61142C56.975 8.51129 56.8748 8.51129 56.8748 8.41116C56.7747 8.41116 56.7747 8.31102 56.6746 8.31102C56.4743 8.31102 56.3742 8.41116 56.274 8.51129L54.7721 12.2162L53.0698 7.20957C53.0698 7.10944 52.9697 7.10944 52.9697 7.00931C52.8696 7.00931 52.8696 6.90918 52.7694 6.90918C52.6693 6.90918 52.5692 6.90918 52.469 7.00931C52.3689 7.10944 52.3689 7.20957 52.3689 7.30971C52.3689 7.40984 52.3689 7.40984 52.3689 7.50997L54.4717 13.3176Z" fill="white"/>
<path d="M63.1831 13.3176C63.6838 13.618 64.2846 13.7181 64.8854 13.7181C65.386 13.7181 65.7866 13.618 66.1871 13.4177C66.5876 13.2174 66.888 12.917 67.1884 12.6167C67.2885 12.5165 67.2885 12.4164 67.2885 12.3163C67.2885 12.2161 67.2885 12.116 67.1884 12.116C67.1884 12.0159 67.0883 12.0159 66.9881 12.0159C66.888 12.0159 66.7879 12.0159 66.6877 12.116C66.5876 12.3163 66.3873 12.4164 66.2872 12.5165C66.0869 12.6167 65.8867 12.7168 65.6864 12.8169C65.4862 13.0172 65.1858 13.0172 64.8854 13.0172C64.3847 13.0172 63.8841 12.917 63.4835 12.6167C63.083 12.4164 62.7826 12.0159 62.5823 11.6153C62.3821 11.2148 62.2819 10.8143 62.2819 10.3136H67.0883C67.1884 10.3136 67.2885 10.3136 67.3887 10.2135C67.4888 10.1134 67.4888 10.0132 67.4888 9.9131C67.4888 9.41244 67.3887 9.01191 67.1884 8.61139C66.9881 8.21086 66.7879 7.91046 66.4875 7.7102C66.1871 7.4098 65.8867 7.30967 65.5863 7.10941C65.2859 7.10941 64.9855 7.00928 64.585 7.00928C64.0843 7.00928 63.5837 7.10941 63.1831 7.4098C62.7826 7.7102 62.3821 8.11073 62.0817 8.61139C61.7813 9.11204 61.6812 9.71283 61.6812 10.4138C61.6812 11.1147 61.7813 11.6153 62.0817 12.116C62.3821 12.6167 62.6825 13.0172 63.1831 13.3176ZM62.5823 9.21218C62.6825 8.91178 62.8827 8.61138 63.083 8.41112C63.2833 8.21086 63.5837 8.01059 63.7839 7.91046C64.0843 7.81033 64.2846 7.7102 64.585 7.7102C64.8854 7.7102 65.2859 7.81033 65.5863 7.91046C65.8867 8.01059 66.1871 8.31099 66.3873 8.51125C66.5876 8.81165 66.6877 9.11204 66.7879 9.51257V9.6127H62.4822C62.4822 9.51257 62.4822 9.31231 62.5823 9.21218Z" fill="white"/>
<path d="M69.0908 13.618C69.191 13.618 69.2911 13.618 69.3912 13.5178C69.4914 13.4177 69.4914 13.3176 69.4914 13.2174V10.1134C69.4914 9.81297 69.5915 9.51257 69.6916 9.21218C69.7918 9.01191 69.8919 8.71152 70.0922 8.51125C70.2924 8.31099 70.4927 8.11073 70.6929 7.91046C70.8932 7.81033 71.1936 7.7102 71.3939 7.7102C71.494 7.7102 71.6943 7.7102 71.6943 7.81033C71.7944 7.81033 71.8945 7.91046 71.8945 7.91046C71.9947 7.91046 72.0948 7.91046 72.0948 7.81033C72.1949 7.7102 72.1949 7.61007 72.1949 7.50994C72.1949 7.4098 72.0948 7.30967 71.9947 7.20954C71.9947 7.10941 71.8945 7.00928 71.6943 7.00928C71.2937 7.00928 70.9933 7.10941 70.6929 7.20954C70.3925 7.4098 70.1923 7.50994 69.992 7.81033C69.7918 8.0106 69.5915 8.31099 69.4914 8.61139V8.71152V7.61007C69.4914 7.50994 69.4914 7.4098 69.3912 7.30967C69.2911 7.20954 69.191 7.20954 69.0908 7.20954C68.9907 7.20954 68.8906 7.20954 68.7904 7.30967C68.6903 7.4098 68.6903 7.50994 68.6903 7.61007V13.2174C68.6903 13.3176 68.6903 13.4177 68.7904 13.5178C68.8906 13.5178 68.9907 13.618 69.0908 13.618Z" fill="white"/>
<path d="M74.0974 13.3176C74.5981 13.618 75.1989 13.7181 75.7997 13.7181C76.3003 13.7181 76.7009 13.618 77.1014 13.4177C77.5019 13.2174 77.8023 12.917 78.1027 12.6167C78.2028 12.5165 78.2028 12.4164 78.2028 12.3163C78.2028 12.2161 78.2028 12.116 78.1027 12.116C78.1027 12.0159 78.0026 12.0159 77.9025 12.0159C77.8023 12.0159 77.7022 12.0159 77.6021 12.116C77.5019 12.3163 77.3017 12.4164 77.2015 12.5165C77.0013 12.6167 76.801 12.7168 76.6007 12.8169C76.4005 13.0172 76.1001 13.0172 75.7997 13.0172C75.299 13.0172 74.7984 12.917 74.3978 12.6167C73.9973 12.4164 73.6969 12.0159 73.4966 11.6153C73.2964 11.2148 73.1962 10.8143 73.1962 10.3136H77.9025C78.0026 10.3136 78.1027 10.3136 78.2028 10.2135C78.303 10.1134 78.303 10.0132 78.303 9.9131C78.303 9.41244 78.2028 9.01191 78.0026 8.61139C77.8023 8.21086 77.602 7.91046 77.3017 7.7102C77.0013 7.4098 76.7009 7.30967 76.4005 7.10941C76.2002 7.10941 75.8998 7.00928 75.4993 7.00928C74.9986 7.00928 74.498 7.10941 74.0974 7.4098C73.6969 7.7102 73.2964 8.11073 72.996 8.61139C72.6956 9.11204 72.5955 9.71283 72.5955 10.4138C72.5955 11.1147 72.6956 11.6153 72.996 12.116C73.1963 12.6167 73.5968 13.0172 74.0974 13.3176ZM73.4966 9.21218C73.5968 8.91178 73.797 8.61138 73.9973 8.41112C74.1976 8.21086 74.498 8.01059 74.6982 7.91046C74.9986 7.81033 75.1989 7.7102 75.4993 7.7102C75.7997 7.7102 76.2002 7.81033 76.5006 7.91046C76.801 8.01059 77.1014 8.31099 77.3017 8.51125C77.5019 8.81165 77.602 9.11204 77.7022 9.51257V9.6127H73.3965C73.3965 9.51257 73.3965 9.31231 73.4966 9.21218Z" fill="white"/>
<path d="M80.7062 13.3175C81.1068 13.6179 81.6074 13.718 82.2082 13.718C82.6087 13.718 82.9091 13.6179 83.2095 13.5178C83.5099 13.4177 83.8103 13.2174 84.0106 13.0171C84.2108 12.8169 84.4111 12.6166 84.5112 12.3162V13.2174C84.5112 13.3175 84.5112 13.4177 84.6114 13.5178C84.7115 13.6179 84.8116 13.6179 84.9118 13.6179C85.0119 13.6179 85.112 13.6179 85.2122 13.5178C85.3123 13.4177 85.3123 13.3175 85.3123 13.2174V4.70619C85.3123 4.60606 85.3123 4.50593 85.2122 4.4058C85.112 4.30566 85.0119 4.30566 84.9118 4.30566C84.8116 4.30566 84.7115 4.30566 84.6114 4.4058C84.5112 4.50593 84.5112 4.60606 84.5112 4.70619V8.41106C84.4111 8.2108 84.2108 7.91041 84.0106 7.71014C83.8103 7.50988 83.5099 7.30962 83.2095 7.20948C82.809 7.10935 82.5086 7.00922 82.1081 7.00922C81.5073 7.00922 81.1068 7.10935 80.6061 7.40975C80.2056 7.71014 79.8051 8.11067 79.5047 8.61133C79.2043 9.11199 79.1041 9.71278 79.1041 10.3136C79.1041 10.9144 79.2043 11.5151 79.5047 12.0158C79.9052 12.6166 80.2056 13.0171 80.7062 13.3175ZM80.2056 9.01186C80.4058 8.61133 80.7062 8.31093 81.0066 8.11067C81.307 7.91041 81.7076 7.81027 82.2082 7.81027C82.6087 7.81027 83.0093 7.91041 83.4098 8.11067C83.7102 8.31093 84.0106 8.61133 84.2108 9.01186C84.4111 9.41238 84.5112 9.81291 84.5112 10.3136C84.5112 10.8142 84.4111 11.3149 84.2108 11.7154C84.0106 12.1159 83.7102 12.4163 83.4098 12.6166C83.1094 12.917 82.7089 13.0171 82.2082 13.0171C81.8077 13.0171 81.4072 12.917 81.0066 12.7167C80.7062 12.5165 80.4058 12.2161 80.2056 11.8155C80.0053 11.415 79.9052 10.9144 79.9052 10.4137C79.9052 9.91304 80.0053 9.41238 80.2056 9.01186Z" fill="white"/>
<path d="M90.3189 13.6179C90.419 13.6179 90.5191 13.6179 90.6193 13.5178C90.7194 13.4177 90.7194 13.3175 90.7194 13.2174V12.3162C90.8195 12.4163 90.8195 12.5165 90.9197 12.6166C91.1199 12.8169 91.3202 13.0171 91.5204 13.1173C91.7207 13.3175 92.0211 13.4177 92.2214 13.5178C92.5218 13.6179 92.722 13.6179 93.0224 13.6179C93.6232 13.6179 94.0237 13.5178 94.5244 13.2174C94.9249 12.917 95.3255 12.5165 95.6258 12.0158C95.9262 11.5152 96.0264 10.9144 96.0264 10.3136C96.0264 9.61265 95.9262 9.11199 95.6258 8.61133C95.3255 8.11067 95.0251 7.71014 94.6245 7.40975C94.1239 7.20948 93.6232 7.00922 93.0224 7.00922C92.722 7.00922 92.4216 7.00922 92.2214 7.10935C91.921 7.20948 91.7207 7.30962 91.5204 7.50988C91.3202 7.71014 91.1199 7.81028 90.9197 8.11067C90.8195 8.2108 90.8195 8.31093 90.7194 8.41107V4.70619C90.7194 4.60606 90.7194 4.50593 90.6193 4.4058C90.5191 4.30566 90.419 4.30566 90.3189 4.30566C90.2187 4.30566 90.1186 4.30566 90.0185 4.4058C89.9183 4.50593 89.9183 4.60606 89.9183 4.70619V13.2174C89.9183 13.3175 89.9183 13.4177 90.0185 13.5178C90.1186 13.6179 90.2187 13.6179 90.3189 13.6179ZM90.9197 9.01186C91.1199 8.61133 91.4203 8.31093 91.7207 8.11067C92.0211 7.91041 92.4216 7.81028 92.9223 7.81028C93.3228 7.81028 93.7233 7.91041 94.1239 8.11067C94.4243 8.31093 94.7247 8.61133 94.9249 9.01186C95.1252 9.41238 95.2253 9.81291 95.2253 10.4137C95.2253 10.9144 95.1252 11.3149 94.9249 11.7154C94.7247 12.1159 94.4243 12.4163 94.1239 12.7167C93.8235 12.917 93.4229 13.1173 92.9223 13.1173C92.4216 13.1173 92.1212 13.0171 91.7207 12.8169C91.4203 12.6166 91.1199 12.3162 90.9197 11.8155C90.7194 11.415 90.6193 10.9144 90.6193 10.4137C90.6193 9.81291 90.7194 9.41238 90.9197 9.01186Z" fill="white"/>
<path d="M98.2292 13.4177C98.5296 13.618 98.9301 13.7181 99.4308 13.7181C99.7312 13.7181 100.032 13.618 100.332 13.5178C100.632 13.4177 100.933 13.2174 101.133 13.0172C101.333 12.8169 101.433 12.7168 101.534 12.5165V13.0172C101.534 13.5178 101.433 13.9184 101.233 14.3189C101.033 14.7194 100.833 14.9197 100.432 15.1199C100.132 15.3202 99.7311 15.4203 99.2305 15.4203C98.9301 15.4203 98.6297 15.3202 98.3293 15.2201C98.129 15.1199 97.9288 15.0198 97.8286 15.0198C97.7285 15.0198 97.6284 15.0198 97.5282 15.0198C97.4281 15.0198 97.328 15.1199 97.328 15.2201C97.328 15.3202 97.328 15.4203 97.328 15.5205C97.4281 15.6206 97.4281 15.7207 97.5282 15.7207C97.7285 15.8209 97.9288 15.921 98.2292 16.0211C98.5296 16.1213 98.83 16.1213 99.2305 16.1213C99.8313 16.1213 100.332 16.0211 100.732 15.7207C101.233 15.5205 101.534 15.1199 101.834 14.6193C102.134 14.1186 102.234 13.618 102.234 12.9171V7.4098C102.234 7.30967 102.234 7.20954 102.134 7.10941C102.034 7.00928 101.934 7.00928 101.834 7.00928C101.734 7.00928 101.634 7.00928 101.534 7.10941C101.433 7.20954 101.433 7.30967 101.433 7.4098V11.1147C101.433 11.4151 101.333 11.7155 101.133 12.0159C100.933 12.3163 100.732 12.5165 100.432 12.7168C100.132 12.9171 99.8313 13.0172 99.4308 13.0172C98.83 13.0172 98.4294 12.8169 98.2292 12.5165C97.9288 12.2161 97.8286 11.7155 97.8286 11.1147V7.4098C97.8286 7.30967 97.8286 7.20954 97.7285 7.10941C97.6284 7.00928 97.5282 7.00928 97.4281 7.00928C97.328 7.00928 97.2279 7.00928 97.1277 7.10941C97.0276 7.20954 97.0276 7.30967 97.0276 7.4098V11.2148C97.0276 11.7155 97.1277 12.116 97.2278 12.5165C97.6284 12.9171 97.8286 13.2174 98.2292 13.4177Z" fill="white"/>
</svg>
