<svg width="312" height="170" viewBox="0 0 312 170" fill="none" xmlns="http://www.w3.org/2000/svg">
<path d="M286.298 21.4999H222.298C222.298 21.4999 218.798 17.0999 222.298 14.1999C224.198 12.5999 226.498 12.6999 228.098 13.1999C229.198 13.4999 230.198 12.7999 230.498 11.6999C230.898 9.8999 232.098 7.4999 235.498 6.0999C238.898 4.6999 240.998 6.7999 242.298 8.9999C242.698 9.6999 243.798 9.5999 243.998 8.7999C245.098 5.3999 248.798 0.899902 261.098 0.899902C276.698 0.899902 274.998 9.1999 273.598 12.6999C273.398 13.2999 273.898 13.8999 274.498 13.7999C276.898 13.2999 281.398 12.5999 283.398 14.1999C286.298 16.3999 286.298 21.4999 286.298 21.4999Z" fill="#E7F2FB"/>
<path d="M43.3991 100.8C43.2991 101.6 43.2991 102.5 43.2991 103.4H51.7991C51.3991 100.4 52.9991 97.5 55.7991 96.2C59.2991 94.7 63.2991 96.2 64.8991 99.7C65.3991 100.9 65.5991 102.2 65.3991 103.4H73.9991C74.0991 102.3 73.9991 101.2 73.8991 100.1C75.1991 99.6 76.3991 98.9 76.4991 98.2C76.7991 96.7 74.6991 93.1 74.0991 92.8C73.7991 92.6 72.4991 92.9 71.0991 93.4C70.0991 92 68.8991 90.9 67.5991 89.9C68.0991 88.7 68.3991 87.5 67.9991 86.9C67.1991 85.6 63.0991 84.6 62.4991 84.7C62.1991 84.8 61.3991 85.8 60.7991 87.2C59.1991 87 57.4991 87 55.7991 87.3C55.2991 86.1 54.5991 85 53.9991 84.9C52.4991 84.6 48.8991 86.7 48.5991 87.3C48.3991 87.6 48.6991 88.9 49.1991 90.3C47.8991 91.3 46.7991 92.5 45.8991 93.9C44.5991 93.4 43.2991 93 42.6991 93.4C41.3991 94.2 40.3991 98.3 40.4991 98.9C40.6991 99.4 41.8991 100.2 43.3991 100.8Z" fill="#5C81A2"/>
<path d="M49.1022 103.4C48.8022 99.4 51.0022 95.5 54.8022 93.8C59.7022 91.7 65.4022 93.9 67.5022 98.7C68.2022 100.2 68.4022 101.8 68.3022 103.3H68.4022C68.5022 101.7 68.3022 100.1 67.6022 98.6C65.4022 93.7 59.6022 91.4 54.7022 93.6C50.8022 95.3 48.6022 99.3 48.9022 103.3H49.1022V103.4Z" fill="white"/>
<path d="M44.6022 103.4C44.2022 97.7001 47.4022 92.1001 52.9022 89.7001C57.5022 87.7001 62.7022 88.3001 66.6022 91.0001C66.7022 91.0001 66.7022 90.9001 66.8022 90.9001C62.9022 88.1001 57.6022 87.4001 52.9022 89.5001C47.3022 92.0001 44.1022 97.6001 44.4022 103.4H44.6022Z" fill="white"/>
<path d="M234.396 142.2C235.196 142.3 236.096 142.3 236.996 142.3V133.8C233.996 134.2 231.096 132.6 229.796 129.8C228.296 126.3 229.796 122.3 233.296 120.7C234.496 120.2 235.796 120 236.996 120.2V111.7C235.896 111.6 234.796 111.7 233.696 111.8C233.196 110.5 232.496 109.3 231.796 109.2C230.296 108.9 226.696 111 226.396 111.6C226.196 111.9 226.496 113.2 226.996 114.6C225.596 115.6 224.496 116.8 223.496 118.1C222.296 117.6 221.096 117.3 220.496 117.7C219.196 118.5 218.196 122.6 218.296 123.2C218.396 123.5 219.396 124.3 220.796 124.9C220.596 126.5 220.596 128.2 220.896 129.9C219.696 130.4 218.596 131.1 218.496 131.7C218.196 133.2 220.296 136.8 220.896 137.1C221.196 137.3 222.496 137 223.896 136.5C224.896 137.8 226.096 138.9 227.496 139.8C226.996 141.1 226.596 142.4 226.996 143C227.796 144.3 231.896 145.3 232.496 145.2C232.896 144.9 233.696 143.7 234.396 142.2Z" fill="#5C81A2"/>
<path d="M236.895 136.5C232.895 136.8 228.995 134.6 227.295 130.8C225.195 125.9 227.395 120.2 232.195 118.1C233.695 117.4 235.295 117.2 236.795 117.3V117.2C235.195 117.1 233.595 117.3 232.095 118C227.195 120.2 224.895 126 227.095 130.9C228.795 134.8 232.795 137 236.795 136.7V136.5H236.895Z" fill="white"/>
<path d="M236.894 141C231.194 141.4 225.594 138.2 223.194 132.7C221.194 128.1 221.794 122.9 224.494 119C224.494 118.9 224.394 118.9 224.394 118.8C221.594 122.7 220.894 128 222.994 132.7C225.494 138.3 231.094 141.5 236.894 141.2V141Z" fill="white"/>
<path d="M19.8 109.2C22.7271 109.2 25.1 106.827 25.1 103.9C25.1 100.973 22.7271 98.5999 19.8 98.5999C16.8729 98.5999 14.5 100.973 14.5 103.9C14.5 106.827 16.8729 109.2 19.8 109.2Z" fill="#01888B"/>
<path d="M138.7 153.6H143.2C143.8 153.7 144.5 153.8 144.6 154.3C144.6 154.3 144.7 154.6 144.7 155C144.5 155.2 138.6 155 138.6 155C137.9 154.2 138.7 153.6 138.7 153.6Z" fill="#12375A"/>
<path d="M144.6 155H138.5L138.6 155.2H144.6V155Z" fill="#212B53"/>
<path d="M140.498 153.6H140.898L140.798 154.2H140.398L140.498 153.6Z" fill="white"/>
<path d="M141.303 153.6H141.703L141.603 154.2H141.203L141.303 153.6Z" fill="white"/>
<path d="M138.398 152.1L138.698 153.6C139.098 153.8 139.498 153.8 139.898 153.6H139.998L140.198 152.1H138.398Z" fill="#603813"/>
<path d="M128.301 153.6H132.801C133.401 153.7 134.101 153.8 134.201 154.3C134.201 154.3 134.301 154.6 134.301 155C134.101 155.2 128.201 155 128.201 155C127.501 154.2 128.301 153.6 128.301 153.6Z" fill="#212B53"/>
<path d="M134.202 155H128.102L128.202 155.2H134.202V155Z" fill="#212B53"/>
<path d="M130.1 153.6H130.5L130.3 154.2H130L130.1 153.6Z" fill="white"/>
<path d="M130.905 153.6H131.305L131.205 154.2H130.805L130.905 153.6Z" fill="white"/>
<path d="M128.505 152.1L128.305 153.6C128.705 153.8 129.105 153.8 129.505 153.6H129.605L130.305 152.1H128.505Z" fill="#603813"/>
<path d="M135.098 102.2L131.398 104.6L132.498 107.5C132.498 107.5 132.498 107.6 132.598 107.6C132.698 107.6 132.798 107.6 132.798 107.6C133.798 107.6 134.598 108.2 135.098 109C135.698 109 136.298 108.8 136.798 108.6C137.198 108.4 137.498 108.2 137.598 108C138.298 105.9 135.098 102.2 135.098 102.2Z" fill="#603813"/>
<path d="M139.805 103C139.805 103 140.205 107.3 139.305 110C139.705 110.4 141.305 112 141.705 109.9C142.205 107.8 141.205 102.3 141.205 102.3L139.805 103Z" fill="#603813"/>
<path d="M137.603 102.7L136.703 103.2L137.103 103.9L138.003 103.5L137.603 102.7Z" fill="#212B53"/>
<path d="M137.102 103.4C137.202 103.6 137.202 103.8 137.102 103.8C137.002 103.8 136.902 103.7 136.802 103.5C136.702 103.3 136.702 103.1 136.802 103.1C136.902 103.1 137.002 103.2 137.102 103.4Z" fill="#212B53"/>
<path d="M148 99.4997C147.8 99.0997 147.6 98.4997 147.2 97.9997C146.6 97.0997 146.4 96.6997 146.4 96.6997L137.5 102.5L138.1 103.6L148.1 99.8997C148 99.7997 148 99.6997 148 99.4997Z" fill="#053C5E"/>
<path d="M134.3 109L134 111H136.9L137.1 108.6L134.3 109Z" fill="#603813"/>
<path d="M141.702 114C141.702 114 145.102 112.9 146.102 111.5C147.202 110.1 145.402 102.2 145.402 102.2L145.602 100.8C145.702 99.9998 145.102 99.2998 144.302 99.2998H143.402C143.002 99.2998 142.802 99.6998 142.902 99.9998L144.102 102.6C144.102 102.6 145.002 108.5 143.702 109C142.202 109.5 140.602 109.7 140.602 109.7L141.702 114Z" fill="#603813"/>
<path d="M135.403 109L134.503 107.1L135.103 106.7C135.503 106.4 135.703 105.9 135.503 105.5L134.903 103.7C134.903 103.7 136.603 103.5 136.603 101.9C136.603 101.1 135.403 101.1 135.403 101.1C135.403 101.1 135.103 101.8 134.003 101.9C133.503 101.8 132.303 102 131.403 103.5C130.803 104.5 131.103 106.1 131.603 107.2C132.003 108.3 133.203 108.8 134.303 109H135.403Z" fill="#231F20"/>
<path d="M132 125.1C132 125.1 132.2 129.2 133.1 133.6C133.4 134.9 133.3 136.2 132.8 137.5C130.8 143.4 128 152.4 128 152.4H130.5C130.5 152.4 136.2 141.8 137.6 136.6C139.1 131.4 139.3 129.7 139.3 129.7L137.6 125.1H132Z" fill="#212B53"/>
<path d="M134.002 106.2C133.902 106.5 134.102 106.9 134.502 107.1C134.902 107.3 135.202 107.2 135.302 106.9C135.402 106.6 135.202 106.2 134.802 106C134.502 105.8 134.102 105.9 134.002 106.2Z" fill="#603813"/>
<path d="M140.1 125.1H132V114.7C132 112.4 133.7 110.5 136 110.3L141.7 109.6C141.7 109.6 142.4 110.6 144.2 113C142 114.4 139.4 115 139.4 115L140.1 125.1Z" fill="#63C0C4"/>
<path d="M132 125.1C132 125.1 133.1 129.3 137.4 133.9C138.1 134.6 139.1 136.1 139 138.1L138.1 152.3H140.6C140.6 152.3 143.7 140.5 143 134.7C142.3 128.9 140.1 125.1 140.1 125.1H132Z" fill="#053C5E"/>
<path d="M146.703 98.5998C147.103 99.4998 147.703 100.1 148.003 99.9998C148.303 99.8998 148.203 98.9998 147.703 98.0998C147.303 97.1998 146.703 96.5998 146.403 96.6998C146.103 96.7998 146.203 97.5998 146.703 98.5998Z" fill="#63C0C4"/>
<path d="M139.5 101.2C139.8 101.4 140.1 101.4 140.4 101.3H140.5C141 101.1 141.3 100.8 141.5 100.3C141.6 100.1 141.4 99.8999 141.2 99.8999L140.6 99.9999C140.4 99.9999 140.2 100.2 140.1 100.4L139.5 101.2Z" fill="#603813"/>
<path d="M234.1 14L234.9 13.4C235 13.3 235 13.3 235 13.2V13C235 12.9 235 12.9 234.9 12.8L234.1 12.2C234 12.1 233.9 12.1 233.8 12.2L233.7 12.3C233.7 12.3 233.6 12.4 233.6 12.5L233.5 13.7L234.1 14Z" fill="#F7B58E"/>
<path d="M233.397 13.7L233.297 12.8C233.297 12.6 233.397 12.5 233.597 12.5H233.997C234.097 12.5 234.297 13 234.297 13C234.297 13 233.997 13.3 233.797 12.8C233.697 12.8 233.597 12.8 233.597 12.8C233.597 12.8 234.097 13.2 233.897 13.8L233.397 13.7Z" fill="#F39F85"/>
<path d="M234.295 14.0003C234.295 14.0003 232.495 18.8003 231.595 20.5003C230.595 22.2003 227.595 25.0003 227.595 25.0003L226.195 21.1003C226.195 21.1003 228.895 19.8003 230.295 18.3003C231.695 16.9003 233.495 13.3003 233.495 13.3003L234.295 14.0003Z" fill="#00666B"/>
<path d="M218.298 11.2001L217.898 10.3001C217.898 10.2001 217.898 10.1001 217.898 10.1001L217.998 9.9001C217.998 9.8001 218.098 9.8001 218.198 9.8001L219.098 9.6001C219.198 9.6001 219.298 9.6001 219.398 9.7001L219.498 9.8001C219.498 9.9001 219.498 9.9001 219.498 10.0001L219.098 11.2001H218.298Z" fill="#F7B58E"/>
<path d="M219 11.2L219.5 10.5C219.6 10.4 219.5 10.2 219.4 10.1L219 10C218.9 10 218.5 10.3 218.5 10.3C218.5 10.3 218.7 10.7 219 10.3C219 10.4 219.2 10.4 219.2 10.4C219.2 10.4 218.6 10.6 218.5 11.2H219Z" fill="#F7B58E"/>
<path d="M213.197 41.9C213.197 41.9 212.597 42.5 212.297 44C212.197 44.3 212.297 44.7 211.797 44.7C211.797 44 211.797 43 211.797 43L211.997 41.6H211.797V40.8C211.797 40.8 213.097 40.6 213.197 41C213.197 41.3 213.197 41.9 213.197 41.9Z" fill="#212B53"/>
<path d="M214.097 41.8L213.197 41.9C212.997 41.6 212.997 41.2 213.197 40.9V40.8L214.097 40.5V41.8Z" fill="#F7B58E"/>
<path d="M222.3 29.3003C222.3 29.3003 221.2 32.5003 221.5 36.0003C221.6 36.9003 220.9 37.8003 220 37.9003C217.2 38.4003 214 40.5003 214 40.5003V42.0003C214 42.0003 222.7 41.2003 224.5 40.0003C226.3 38.8003 227.2 30.6003 227.2 30.6003L222.3 29.3003Z" fill="#212B53"/>
<path d="M226.394 20.6002C228.394 21.9002 227.494 30.0002 227.494 30.0002L221.494 29.3002L222.194 23.3002C222.194 23.3002 219.494 20.0002 218.894 17.5002C218.394 15.1002 218.094 11.2002 218.094 11.2002H219.194C219.194 11.2002 220.394 16.2002 221.194 17.5002C221.994 18.8002 224.594 20.6002 224.594 20.6002H226.394Z" fill="#00666B"/>
<path d="M227.398 29.8002C227.498 28.9002 227.998 23.5002 226.898 21.3002C226.898 21.3002 226.898 21.2002 226.998 21.2002C228.198 23.4002 227.598 29.3002 227.498 29.9002C227.498 29.9002 227.498 29.8002 227.398 29.8002Z" fill="#01888B"/>
<path d="M225.102 20.4003L225.402 19.3003L226.702 19.4003L226.802 20.7003C226.202 20.6003 225.602 20.4003 225.102 20.4003Z" fill="#F39F85"/>
<path d="M224.602 17.1004L224.902 18.9004C225.102 18.9004 225.202 19.0004 225.202 19.2004V19.3004C225.502 19.5004 226.102 19.7004 226.802 19.4004C227.902 19.0004 226.902 16.9004 226.902 16.9004L224.602 17.1004Z" fill="#F7B58E"/>
<path d="M224.198 18.5003C224.198 18.4003 223.998 18.1003 223.798 18.0003C223.098 17.5003 223.598 17.1003 223.798 16.9003C223.998 16.7003 223.898 16.3003 224.198 16.1003C224.598 15.7003 225.098 16.0003 225.298 15.9003C225.498 15.8003 225.698 15.4003 226.098 15.5003C226.498 15.6003 226.498 16.0003 226.698 16.1003C226.898 16.2003 226.998 15.8003 227.498 16.2003C228.198 16.8003 226.998 17.2003 226.998 17.2003C226.998 17.2003 226.398 17.6003 225.498 17.3003C225.398 17.3003 225.198 17.3003 225.198 17.4003C224.998 17.7003 225.198 19.2003 225.198 19.2003L224.898 19.0003C224.998 19.2003 224.398 19.1003 224.198 18.5003Z" fill="#212B53"/>
<path d="M224.898 18.6001C224.998 18.7001 225.098 18.8001 225.298 18.7001C225.398 18.6001 225.498 18.5001 225.398 18.3001C225.298 18.2001 225.198 18.1001 224.998 18.2001C224.898 18.3001 224.898 18.5001 224.898 18.6001Z" fill="#F7B58E"/>
<path d="M226.695 20.2999V20.8999L224.695 20.4999L225.095 19.8999L226.695 20.2999Z" fill="url(#paint0_linear_3367_2133)"/>
<path d="M235.9 43.2002C235.9 43.2002 236.5 43.8002 238 44.1002C238.3 44.2002 238.7 44.1002 238.7 44.6002C238 44.6002 237 44.6002 237 44.6002L235.6 44.4002V44.6002H234.8C234.8 44.6002 234.6 43.3002 235 43.2002C235.3 43.2002 235.9 43.2002 235.9 43.2002Z" fill="#212B53"/>
<path d="M235.8 42.3003L235.9 43.2003C235.6 43.4003 235.2 43.4003 234.9 43.2003H234.8L234.5 42.3003H235.8Z" fill="#F7B58E"/>
<path d="M227.493 29.9001C227.493 29.9001 233.393 30.8001 233.793 31.8001C234.193 32.8001 235.793 42.3001 235.793 42.3001H234.593C234.593 42.3001 230.493 37.9001 231.093 34.8001C229.593 34.8001 229.893 35.0001 226.793 34.7001C220.593 33.8001 221.393 29.1001 221.393 29.1001L227.493 29.9001Z" fill="#053C5E"/>
<path d="M264.8 145.4C264.8 145.4 265.5 146.1 267.1 146.6C267.5 146.7 267.9 146.6 267.8 147.2C267 147.2 265.7 147.2 265.7 147.2L264 146.9V147.2H263.1C263.1 147.2 263 145.7 263.6 145.5C264.1 145.4 264.8 145.4 264.8 145.4Z" fill="#212B53"/>
<path d="M265 144.5L264.8 145.5C264.3 145.8 263.6 145.4 263.6 145.4L263.5 144.2L265 144.5Z" fill="#8A5D3B"/>
<path d="M266.2 123.2C266.2 123.2 267.1 130.9 267.2 132.1C267.4 133.3 265 144.6 265 144.6L263.5 144.4C263.5 144.4 263.1 138.1 263.2 134.3C263.2 133 262.6 131.5 261.9 130.4C258.7 125.7 259 122.5 259 122.5L266.2 123.2Z" fill="#212B53"/>
<path d="M268.899 106.7L268.499 105.6C268.499 105.5 268.399 105.4 268.299 105.4L268.099 105.3C267.999 105.3 267.899 105.3 267.899 105.3L266.899 105.9C266.799 106 266.699 106.1 266.799 106.2V106.3C266.799 106.4 266.899 106.4 266.899 106.5L268.199 107.2L268.899 106.7Z" fill="#8A5D3B"/>
<path d="M268.302 107.3L267.302 107.1C267.102 107.1 267.002 106.9 267.102 106.7L267.302 106.3C267.402 106.2 268.002 106.2 268.002 106.2C268.002 106.2 268.202 106.6 267.602 106.6C267.602 106.7 267.602 106.8 267.602 106.8C267.602 106.8 268.202 106.5 268.902 106.9L268.302 107.3Z" fill="#8A5D3B"/>
<path d="M269.003 106.5C269.003 106.5 271.803 109.8 270.703 111.9C269.603 114 266.003 117.4 266.003 117.4L264.203 112.8C264.203 112.8 266.803 113 268.303 111.2C269.903 109.5 267.903 107.2 267.903 107.2L269.003 106.5Z" fill="#01888B"/>
<path d="M260.102 106L260.602 104.9C260.602 104.8 260.702 104.7 260.802 104.7H261.002C261.102 104.7 261.202 104.7 261.202 104.8L262.102 105.5C262.202 105.6 262.202 105.7 262.202 105.9L262.102 106C262.102 106.1 262.002 106.1 261.902 106.1L260.502 106.6L260.102 106Z" fill="#8A5D3B"/>
<path d="M260.703 106.7L261.703 106.6C261.903 106.6 262.003 106.4 261.903 106.2L261.803 105.8C261.803 105.7 261.103 105.6 261.103 105.6C261.103 105.6 260.903 106 261.503 106.1C261.503 106.2 261.503 106.3 261.503 106.3C261.503 106.3 260.903 105.9 260.203 106.2L260.703 106.7Z" fill="#8A5D3B"/>
<path d="M264.602 112.1C267.002 113.6 266.102 123.2 266.102 123.2L258.902 122.5L259.502 115.4C259.502 115.4 256.102 111.5 255.402 108.6C254.702 105.7 259.802 105.7 259.802 105.7L260.602 106.7C260.602 106.7 257.202 107 258.102 108.5C259.002 110 262.202 112.1 262.202 112.1H264.602Z" fill="#01888B"/>
<path d="M266.105 123C266.205 122 266.605 115.5 265.305 112.9C265.305 112.8 265.405 112.8 265.405 112.7C266.905 115.3 266.305 122.3 266.305 123C266.205 123.1 266.205 123.1 266.105 123Z" fill="white"/>
<path d="M258.005 145.4C258.005 145.4 258.705 146.1 260.305 146.6C260.705 146.7 261.105 146.6 261.005 147.2C260.205 147.2 258.905 147.2 258.905 147.2L257.205 146.9V147.2H256.305C256.305 147.2 256.205 145.7 256.705 145.5C257.305 145.4 258.005 145.4 258.005 145.4Z" fill="#212B53"/>
<path d="M258.503 144.4L257.903 145.5C257.503 145.7 256.703 145.5 256.703 145.5L257.103 144.2L258.503 144.4Z" fill="#8A5D3B"/>
<path d="M263.102 112L263.402 110.7L264.902 110.8L265.102 112.4C264.402 112.1 263.702 112 263.102 112Z" fill="#8A5D3B"/>
<path d="M262.398 108L262.898 110.1C263.098 110.1 263.298 110.3 263.298 110.5C263.298 110.5 263.398 110.6 263.398 110.7C263.798 110.9 264.498 111.1 265.398 110.8C266.698 110.3 265.498 107.9 265.498 107.9L262.398 108Z" fill="#8A5D3B"/>
<path d="M262 109.7C262 109.5 261.7 109.3 261.6 109.2C260.7 108.7 261.3 108.1 261.6 107.9C261.8 107.7 261.7 107.2 262 106.9C262.5 106.4 263 106.7 263.4 106.6C263.7 106.5 263.9 106 264.4 106.2C264.9 106.4 264.9 106.8 265.1 106.9C265.3 107 265.5 106.5 266.1 107C267 107.7 265.6 108.2 265.6 108.2C265.6 108.2 264.9 108.6 263.8 108.4C263.6 108.4 263.5 108.4 263.4 108.6C263.2 109 263.5 110.7 263.5 110.7L263.1 110.5C263 110.4 262.2 110.4 262 109.7Z" fill="#212B53"/>
<path d="M262.902 109.8C263.002 110 263.202 110 263.402 109.9C263.602 109.8 263.602 109.6 263.502 109.4C263.402 109.2 263.202 109.2 263.002 109.3C262.802 109.4 262.802 109.6 262.902 109.8Z" fill="#8A5D3B"/>
<path d="M265.003 123.1C265.003 123.1 264.603 128.7 263.803 131.7C263.503 133 258.503 144.5 258.503 144.5L257.203 144.2C257.203 144.2 257.403 138.9 258.903 135C259.403 133.6 259.303 132.9 259.203 131.8C258.803 126.8 259.103 122.5 259.103 122.5L265.003 123.1Z" fill="#053C5E"/>
<path d="M265.003 111.8V112.5L262.703 112.1L263.103 111.3L265.003 111.8Z" fill="url(#paint1_linear_3367_2133)"/>
<path d="M20.2969 103.9H73.3969V156.1H188.697V45.6997H237.497V147.3H296.797" stroke="#FF7C44" stroke-width="3.0041" stroke-miterlimit="10"/>
<path d="M29.024 104.691C29.7641 97.2165 24.305 90.5574 16.8307 89.8173C9.35648 89.0772 2.69741 94.5363 1.95729 102.011C1.21717 109.485 6.67628 116.144 14.1505 116.884C21.6248 117.624 28.2839 112.165 29.024 104.691Z" fill="#0F3A5D"/>
<path d="M14.9953 98.2999L12.5953 99.5999L12.1953 98.1999L15.0953 96.5999H16.6953V110.1H14.9953V98.2999Z" fill="white"/>
<path d="M101.397 169.1C108.908 169.1 114.997 163.011 114.997 155.5C114.997 147.989 108.908 141.9 101.397 141.9C93.8858 141.9 87.7969 147.989 87.7969 155.5C87.7969 163.011 93.8858 169.1 101.397 169.1Z" fill="#0F3A5D"/>
<path d="M97.1953 161.5V160.4L98.5953 159C101.995 155.7 103.595 154 103.595 151.9C103.595 150.5 102.895 149.3 100.895 149.3C99.6953 149.3 98.6953 149.9 97.9953 150.4L97.3953 149.1C98.2953 148.3 99.6953 147.7 101.195 147.7C104.095 147.7 105.295 149.7 105.295 151.6C105.295 154.1 103.495 156.1 100.695 158.8L99.5953 159.8H105.695V161.3H97.1953V161.5Z" fill="white"/>
<path d="M200.675 50.837C203.515 43.8832 200.181 35.9439 193.227 33.104C186.273 30.264 178.334 33.5989 175.494 40.5527C172.654 47.5064 175.989 55.4458 182.942 58.2857C189.896 61.1257 197.836 57.7907 200.675 50.837Z" fill="#0F3A5D"/>
<path d="M184.498 50.3999C184.998 50.6999 186.198 51.2999 187.498 51.2999C189.798 51.2999 190.598 49.7999 190.498 48.6999C190.498 46.7999 188.798 45.9999 186.998 45.9999H185.998V44.5999H186.998C188.298 44.5999 189.998 43.8999 189.998 42.2999C189.998 41.1999 189.298 40.2999 187.598 40.2999C186.498 40.2999 185.498 40.7999 184.898 41.1999L184.398 39.8999C185.098 39.3999 186.498 38.8999 187.898 38.8999C190.598 38.8999 191.798 40.4999 191.798 42.0999C191.798 43.4999 190.998 44.6999 189.298 45.2999C190.998 45.5999 192.298 46.8999 192.298 48.7999C192.298 50.9999 190.598 52.7999 187.398 52.7999C185.898 52.7999 184.598 52.2999 183.898 51.8999L184.498 50.3999Z" fill="white"/>
<path d="M294.695 90.9998H294.195V144.7H294.695V90.9998Z" fill="#0F3A5D"/>
<path d="M294.195 81.5999L310.095 89.6999L294.195 99.6999V81.5999Z" fill="#FF7C44"/>
<path d="M294.195 97.5998V99.6998L309.895 89.7998L294.195 97.5998Z" fill="#9C4B2A"/>
<path d="M306.519 152.329C309.359 145.375 306.024 137.436 299.071 134.596C292.117 131.756 284.177 135.091 281.337 142.045C278.498 148.998 281.832 156.938 288.786 159.778C295.74 162.618 303.679 159.283 306.519 152.329Z" fill="#0F3A5D"/>
<path d="M293.995 153.6V149.9H287.695V148.7L293.695 140.1H295.695V148.5H297.595V149.9H295.695V153.6H293.995ZM293.995 148.5V144C293.995 143.3 293.995 142.6 294.095 141.9H293.995C293.595 142.7 293.295 143.3 292.895 143.9L289.595 148.5H293.995Z" fill="white"/>
<path d="M213.599 84.6999C215.499 93.0999 196.299 95.6999 188.199 95.7999C185.899 95.7999 176.499 95.1999 174.299 94.6999C167.399 93.2999 159.099 88.4999 161.199 83.4999C163.899 77.0999 172.099 81.5999 172.099 81.5999C172.099 81.5999 171.099 76.7999 184.999 73.4999C198.899 70.2999 198.899 80.9999 198.899 80.9999C198.899 80.9999 211.199 74.1999 213.599 84.6999Z" fill="#E7F2FB"/>
<defs>
<linearGradient id="paint0_linear_3367_2133" x1="224.723" y1="20.4045" x2="226.723" y2="20.4045" gradientUnits="userSpaceOnUse">
<stop stop-color="#DFEFEA"/>
<stop offset="1" stop-color="#BFE3EE"/>
</linearGradient>
<linearGradient id="paint1_linear_3367_2133" x1="264.987" y1="111.715" x2="262.677" y2="112.186" gradientUnits="userSpaceOnUse">
<stop stop-color="#DFEFEA"/>
<stop offset="1" stop-color="#BFE3EE"/>
</linearGradient>
</defs>
</svg>
