<svg width="247" height="162" viewBox="0 0 247 162" fill="none" xmlns="http://www.w3.org/2000/svg">
<path d="M218.356 38.2896C218.151 37.8789 216.508 37.2629 214.557 36.8522C214.352 35.1068 213.941 33.5668 213.325 32.0267C214.763 31.1027 216.2 29.8706 216.2 29.0493C216.2 27.3039 212.915 23.8131 212.299 23.6078C211.888 23.5051 210.143 24.2238 208.5 25.3532C207.268 24.3265 205.83 23.4024 204.29 22.7864C204.598 21.041 204.804 19.2956 204.188 18.6796C202.956 17.4476 198.233 17.2422 197.617 17.6529C197.206 17.8582 196.59 19.501 196.282 21.4517C194.537 21.5544 192.894 21.965 191.354 22.5811C190.43 21.2464 189.301 19.9116 188.479 19.9116C186.734 19.9116 183.243 23.1971 183.038 23.8131C182.935 24.2238 183.551 25.6612 184.578 27.2012C183.448 28.5359 182.422 30.076 181.703 31.7187C180.163 31.4107 178.623 31.4107 178.11 31.924C176.878 33.1561 176.672 37.8789 177.083 38.4949C177.288 38.9056 178.623 39.4189 180.266 39.727C180.368 41.575 180.779 43.4231 181.498 45.1685C180.266 45.9898 179.239 47.0165 179.239 47.7352C179.239 49.4806 182.524 52.9714 183.14 53.1767C183.551 53.2794 184.783 52.766 186.22 51.842C187.658 53.0741 189.198 53.9981 191.046 54.7168C190.841 56.1542 190.738 57.5915 191.251 58.1049C192.483 59.3369 197.206 59.5423 197.822 59.1316C198.233 58.9262 198.746 57.5915 199.054 55.8461C200.902 55.6408 202.648 55.2301 204.29 54.5114C205.214 55.7435 206.241 56.8728 206.96 56.8728C208.705 56.8728 212.196 53.5874 212.401 52.9714C212.504 52.5607 211.888 51.0207 210.861 49.4806C211.991 48.1459 212.812 46.6058 213.531 44.9631C215.173 45.2711 216.816 45.3738 217.432 44.8605C218.562 43.7311 218.767 39.0083 218.356 38.2896ZM196.179 46.4005C191.97 45.7845 189.095 41.7804 189.711 37.5709C190.327 33.3614 194.331 30.4867 198.541 31.1027C202.75 31.7187 205.625 35.7228 205.009 39.9323C204.393 44.1418 200.389 47.0165 196.179 46.4005Z" fill="#FF7C44"/>
<path d="M195.772 49.4805C189.714 48.5565 185.607 42.9097 186.634 36.8521C187.558 30.8973 193.205 26.6878 199.262 27.7145C205.217 28.6385 209.427 34.2854 208.4 40.3429C207.373 46.2978 201.726 50.4046 195.772 49.4805ZM199.16 27.8172C193.205 26.8931 187.661 30.9999 186.737 36.8521C185.813 42.807 189.919 48.3512 195.772 49.2752C201.726 50.1992 207.271 46.0924 208.195 40.2402C209.119 34.3881 205.012 28.7412 199.16 27.8172Z" fill="white"/>
<path d="M213.426 37.8789C213.323 37.8789 213.323 37.8789 213.221 37.7762C213.323 38.9056 213.221 40.035 213.015 41.1644C211.681 49.7886 203.57 55.6408 194.945 54.3061C189.299 53.3821 184.884 49.686 182.83 44.7578C182.728 44.7578 182.728 44.7578 182.625 44.7578C184.678 49.7886 189.196 53.5874 194.945 54.5114C203.672 55.8462 211.886 49.8913 213.221 41.1644C213.426 40.1377 213.426 39.0083 213.426 37.8789Z" fill="white"/>
<path d="M189.812 24.9425C192.79 23.2998 196.281 22.5811 199.874 23.1971C199.977 23.1971 199.977 23.1971 200.079 23.1971C200.079 23.0944 200.079 23.0944 200.079 22.9918H199.977C196.383 22.3757 192.79 23.0944 189.812 24.7372C189.812 24.8398 189.812 24.9425 189.812 24.9425Z" fill="white"/>
<path d="M180.881 65.8048C178.828 74.8397 200.08 75.9691 208.807 76.0718C211.271 76.0718 213.633 75.8665 215.994 75.3531C223.386 73.8131 239.608 69.9116 237.35 64.5728C234.372 57.6939 225.645 62.5194 225.645 62.5194C225.645 62.5194 226.775 57.2832 211.785 53.8951C196.795 50.4043 196.898 61.9033 196.898 61.9033C196.898 61.9033 183.551 54.5111 180.881 65.8048Z" fill="#E7F2FB"/>
<path d="M189.809 38.392H95.2503C95.2503 38.392 90.1168 31.9238 95.2503 27.509C98.1251 25.1476 101.41 25.353 103.875 26.0716C105.415 26.4823 107.057 25.4556 107.365 23.8129C107.981 21.1435 109.727 17.6527 114.758 15.5993C119.788 13.5459 122.971 16.626 124.717 19.8088C125.333 20.8355 126.873 20.7328 127.283 19.5008C128.823 14.4699 134.368 7.79639 152.54 7.79639C175.641 7.79639 173.074 20.1168 171.021 25.1476C170.713 26.0716 171.431 26.9957 172.355 26.7903C175.949 26.0716 182.52 25.0449 185.497 27.4064C189.809 30.8971 189.809 38.392 189.809 38.392Z" fill="#E7F2FB"/>
<path d="M39.6016 68.0637C42.7843 68.4744 45.8644 69.8091 48.4312 72.2732L48.5338 72.3759C48.5338 72.2732 48.6365 72.2732 48.6365 72.1705L48.5338 72.0679C46.0698 69.6038 42.887 68.1664 39.7042 67.8584C39.7042 67.9611 39.7042 68.0637 39.6016 68.0637Z" fill="white"/>
<path d="M178.931 55.1273C179.033 55.23 179.239 55.3327 179.341 55.4353L177.801 100.097L199.465 82.5402C199.567 82.8482 199.567 83.1562 199.67 83.4642L177.801 101.226L177.391 114.06L176.569 113.649L177.493 87.9817L164.352 78.5361C164.454 78.2281 164.454 77.92 164.557 77.612L177.493 86.955L178.623 55.4353C178.725 55.3327 178.828 55.23 178.931 55.1273Z" fill="white"/>
<path d="M175.75 101.945C175.75 101.945 192.485 68.0641 219.077 67.0374C235.709 94.3476 208.091 117.551 208.091 117.551L176.571 127.51L175.75 101.945Z" fill="#FFBEA2"/>
<path d="M192.591 79.6659L198.752 95.2717L218.567 67.0375C218.772 67.0375 218.978 67.0375 219.183 67.0375C219.286 67.1401 219.286 67.2428 219.388 67.3455L208.813 82.438L224.316 80.6926C224.316 80.7952 224.316 81.0006 224.419 81.1033V81.5139L208.197 83.2593L190.538 108.413L217.848 106.257C217.643 106.565 217.437 106.873 217.232 107.181L189.922 109.338L177.396 127.202L176.883 127.407V126.586L198.341 95.9904L192.078 80.1792C192.181 80.0766 192.386 79.8712 192.591 79.6659Z" fill="white"/>
<path d="M182.423 117.037C182.423 117.037 210.144 102.047 226.365 115.805C219.897 158.618 164.969 153.382 164.969 153.382L182.423 117.037Z" fill="#5C81A2"/>
<path d="M226.262 115.702C226.262 115.908 226.159 116.01 226.159 116.216L187.145 133.567L207.782 144.245C207.473 144.45 207.268 144.553 206.96 144.758L186.118 133.978L170.82 140.754L171.334 139.624L201.005 126.38L207.473 109.953C207.781 109.953 208.09 109.953 208.398 109.953L202.135 125.969L225.749 115.497C226.057 115.497 226.159 115.6 226.262 115.702Z" fill="white"/>
<path d="M194.737 40.24H52.5391V157.078H194.737V40.24Z" fill="white"/>
<path d="M192.786 34.7987H54.3871C53.5658 35.3121 52.8471 36.0307 52.6417 36.8521H52.5391V159.645H194.737V36.8521H194.634C194.326 36.0307 193.608 35.3121 192.786 34.7987ZM186.01 147.53H60.958V63.2383H186.01V147.53Z" fill="#0F3A5D"/>
<path d="M84.8773 72.4784H72.3516V76.3799H84.8773V72.4784Z" fill="#01888B"/>
<path d="M113.526 72.4784H101V76.3799H113.526V72.4784Z" fill="#9C4B2A"/>
<path d="M143.916 72.4784H131.391V76.3799H143.916V72.4784Z" fill="#9C4B2A"/>
<path d="M173.994 72.4784H161.469V76.3799H173.994V72.4784Z" fill="#9C4B2A"/>
<path d="M85.2914 96.5033H72.7656V104.922H85.2914V96.5033Z" fill="#FF7C44"/>
<path d="M113.932 96.5033H101.406V104.922H113.932V96.5033Z" fill="#FF7C44"/>
<path d="M144.323 96.5033H131.797V104.922H144.323V96.5033Z" fill="#FF7C44"/>
<path d="M174.409 96.5033H161.883V104.922H174.409V96.5033Z" fill="#FF7C44"/>
<path d="M85.2914 116.832H72.7656V125.251H85.2914V116.832Z" fill="#FF7C44"/>
<path d="M113.932 116.832H101.406V125.251H113.932V116.832Z" fill="#FF7C44"/>
<path d="M144.221 116.832H131.695V125.251H144.221V116.832Z" fill="#FF7C44"/>
<path d="M174.307 116.832H161.781V125.251H174.307V116.832Z" fill="#FF7C44"/>
<path d="M79.7516 7.386L68.5605 1.2258L62.9137 0.0964355L58.6016 0.712454L79.7516 7.386Z" fill="#AFC8DE"/>
<path d="M79.7516 7.38607L58.8069 2.04724L58.6016 0.712524" fill="#0F3A5D"/>
<path d="M58.2969 5.64038L59.1182 8.92582L79.7549 7.38577L58.2969 5.64038Z" fill="#0F3A5D"/>
<path d="M54.2891 3.68978L57.2665 1.32837L79.6486 7.3859L60.3466 6.76988L54.2891 3.68978Z" fill="#AFC8DE"/>
<path d="M7.16621 45.1686C7.8849 44.9632 8.50092 44.6552 9.21961 44.2446C9.32228 44.1419 9.52762 44.2446 9.63029 44.3472C9.73296 44.4499 9.63029 44.6552 9.52762 44.7579C8.80893 45.0659 8.19291 45.3739 7.47422 45.6819C7.16621 45.7846 6.96087 45.8873 6.65286 45.8873C6.55019 45.8873 6.44753 45.8873 6.34486 45.8873C6.34486 45.8873 6.24219 45.7846 6.24219 45.6819C6.24219 45.4766 6.24218 45.3739 6.44752 45.2713C6.65286 45.3739 6.96087 45.2713 7.16621 45.1686Z" fill="#5C81A2"/>
<path d="M48.1283 1.43103C49.0523 1.5337 50.079 1.73904 51.1057 1.94438C51.3111 1.94438 51.4138 2.14972 51.3111 2.25239C51.3111 2.45773 51.1058 2.5604 51.0031 2.45773C49.9764 2.25239 48.9497 2.14972 48.0256 1.94438C47.923 1.94438 47.923 1.94438 47.923 1.84171C47.8203 1.73904 47.8203 1.63637 47.8203 1.5337C47.8203 1.5337 47.923 1.43103 48.1283 1.43103Z" fill="#5C81A2"/>
<path d="M43.0949 1.73894C42.9922 1.63627 42.9922 1.63627 42.9922 1.5336C42.9922 1.32826 43.0949 1.22559 43.3002 1.22559C44.3269 1.22559 45.3536 1.22559 46.3803 1.32826C46.5856 1.32826 46.6883 1.5336 46.6883 1.63627C46.6883 1.84161 46.483 1.94428 46.3803 1.94428C45.3536 1.84161 44.3269 1.84161 43.4029 1.84161C43.1975 1.73894 43.0949 1.73894 43.0949 1.73894Z" fill="#5C81A2"/>
<path d="M13.0148 41.5749C13.1175 41.4723 13.3228 41.4723 13.4255 41.5749C13.5281 41.6776 13.5281 41.8829 13.4255 41.9856C12.7068 42.7043 11.8854 43.3203 11.0641 43.9363C10.9614 44.039 10.8587 44.039 10.756 43.9363C10.756 43.9363 10.6534 43.9363 10.6534 43.8337C10.5507 43.731 10.5507 43.5257 10.756 43.423C11.5774 42.9096 12.2961 42.1909 13.0148 41.5749Z" fill="#5C81A2"/>
<path d="M14.2489 40.6509C14.1462 40.5483 14.1462 40.3429 14.2489 40.2403C14.4542 40.0349 14.5569 39.8296 14.7622 39.6242C15.1729 39.0082 15.5836 38.3922 15.8916 37.7762C15.9943 37.6735 16.1996 37.5708 16.3023 37.6735C16.4049 37.7762 16.5076 37.9815 16.4049 38.0842C16.0969 38.7002 15.6863 39.4189 15.1729 39.9322C14.9676 40.1376 14.8649 40.3429 14.6596 40.5483C14.6596 40.7536 14.4542 40.7536 14.2489 40.6509Z" fill="#5C81A2"/>
<path d="M16.8147 36.5439C16.6094 36.4412 16.6094 36.2359 16.6094 36.1332C17.0201 35.2092 17.2254 34.2851 17.5334 33.2584C17.5334 33.0531 17.7387 32.9504 17.9441 33.0531C18.1494 33.0531 18.2521 33.2584 18.1494 33.4638C17.8414 34.4905 17.5334 35.5172 17.2254 36.4412C17.2254 36.5439 17.0201 36.5439 16.8147 36.5439Z" fill="#5C81A2"/>
<path d="M24.9263 10.5685C24.7209 10.8765 24.4129 11.1845 24.2076 11.4926C23.8996 12.0059 23.4889 12.5193 23.1809 13.0326C23.0782 13.1353 22.8729 13.238 22.7702 13.1353C22.6675 13.0326 22.5649 12.8273 22.6675 12.7246C22.9755 12.2113 23.3862 11.6979 23.6942 11.1846C23.8996 10.8765 24.2076 10.5685 24.4129 10.2605C24.5156 10.1579 24.7209 10.0552 24.8236 10.2605C25.0289 10.2605 25.0289 10.4659 24.9263 10.5685Z" fill="#5C81A2"/>
<path d="M22.2543 14.5726C21.741 15.4966 21.4329 16.4206 21.0223 17.3447C20.9196 17.55 20.8169 17.55 20.6116 17.55H20.5089C20.4062 17.4473 20.4062 17.3447 20.4062 17.242C20.7143 16.318 21.1249 15.2913 21.6383 14.4699C21.741 14.3672 21.9463 14.2646 22.049 14.3672C22.2543 14.2646 22.357 14.4699 22.2543 14.5726Z" fill="#5C81A2"/>
<path d="M28.3156 7.18031C27.4943 7.79633 26.7756 8.51502 26.1596 9.23371C26.0569 9.33638 25.8515 9.33638 25.7489 9.23371C25.6462 9.13104 25.6462 8.9257 25.7489 8.82303C26.4676 8.10434 27.1863 7.38565 28.0076 6.76963C28.1103 6.66696 28.3156 6.66696 28.4183 6.76963C28.4183 6.8723 28.4183 7.07764 28.3156 7.18031Z" fill="#5C81A2"/>
<path d="M33.9588 3.68971C33.8561 3.68971 33.7534 3.68971 33.6508 3.68971L33.5481 3.58704C33.4454 3.48437 33.5481 3.27903 33.7534 3.17636C34.6775 2.76568 35.7042 2.355 36.6282 2.14966C36.8335 2.14966 36.9362 2.14966 37.0389 2.355C37.0389 2.56034 37.0389 2.66301 36.8335 2.76568C35.8068 2.97102 34.7801 3.27903 33.9588 3.68971Z" fill="#5C81A2"/>
<path d="M18.971 27.0982C18.8683 27.0982 18.8683 27.0982 18.8683 26.9956C18.7656 26.8929 18.7656 26.7902 18.7656 26.6875V26.2769C18.8683 25.3528 18.971 24.5315 19.0736 23.6074C19.0736 23.4021 19.279 23.2994 19.3816 23.2994C19.587 23.2994 19.6897 23.5048 19.6897 23.6074C19.587 24.5315 19.4843 25.3528 19.3816 26.2769V26.6875C19.279 26.9956 19.0736 27.0982 18.971 27.0982Z" fill="#5C81A2"/>
<path d="M29.7516 6.05114C29.6489 6.15381 29.5462 6.15381 29.4435 6.05114C29.4435 6.05114 29.4435 6.05114 29.3409 5.94847C29.2382 5.8458 29.2382 5.64046 29.4435 5.53779C30.2649 4.92177 31.1889 4.40842 32.0103 3.89507C32.113 3.7924 32.3183 3.89507 32.421 3.99774C32.5236 4.10041 32.421 4.30575 32.3183 4.40842C31.3943 5.02444 30.5729 5.53779 29.7516 6.05114Z" fill="#5C81A2"/>
<path d="M18.7645 28.2279C18.9698 28.2279 19.0725 28.4332 19.0725 28.5359C18.9698 29.768 18.7645 30.692 18.6618 31.5133C18.6618 31.7187 18.4564 31.8214 18.3538 31.7187C18.3538 31.7187 18.2511 31.7187 18.2511 31.616C18.1484 31.5133 18.1484 31.4107 18.1484 31.308C18.3538 30.4866 18.4564 29.4599 18.5591 28.3306C18.4564 28.3306 18.6618 28.2279 18.7645 28.2279Z" fill="#5C81A2"/>
<path d="M4.6995 45.887C4.90484 45.887 5.00751 45.9896 5.00751 46.0923C5.00751 46.2976 4.90484 46.4003 4.80217 46.4003C3.87815 46.6057 2.85145 46.7083 1.72208 46.811C1.61941 46.811 1.6194 46.811 1.51673 46.7083C1.41406 46.7083 1.41406 46.6057 1.41406 46.503C1.41406 46.2976 1.51674 46.195 1.72208 46.195C2.74878 46.195 3.77547 46.0923 4.6995 45.887Z" fill="#5C81A2"/>
<path d="M20.3079 18.6794C20.5133 18.6794 20.616 18.8848 20.5133 19.0901C20.3079 20.0141 20.1026 20.9382 19.8973 22.0675C19.8973 22.2729 19.6919 22.3756 19.5893 22.2729C19.5893 22.2729 19.4866 22.2729 19.4866 22.1702C19.2812 22.0675 19.2812 21.9649 19.2812 21.8622C19.4866 20.7328 19.6919 19.8088 19.8973 18.8848C19.9999 18.6794 20.1026 18.5768 20.3079 18.6794Z" fill="#5C81A2"/>
<path d="M40.329 1.32826C40.6371 1.32826 41.0477 1.22559 41.3557 1.22559C41.5611 1.22559 41.6638 1.32826 41.6638 1.5336C41.6638 1.73894 41.5611 1.84161 41.3557 1.84161C41.0477 1.84161 40.6371 1.94428 40.329 1.94428C39.713 2.04695 38.9943 2.14962 38.3783 2.25229C38.2756 2.25229 38.173 2.25229 38.173 2.14962C38.0703 2.14962 38.0703 2.04695 38.0703 1.94428C38.0703 1.73894 38.173 1.63627 38.2756 1.5336C38.9943 1.5336 39.713 1.43093 40.329 1.32826Z" fill="#5C81A2"/>
<path d="M244.634 85.8256L246.174 90.1378L241.964 88.5977L227.898 82.3348L244.634 85.8256Z" fill="#C9673E"/>
<path d="M246.171 90.1377L238.984 88.803L240.832 88.0844L246.171 90.1377Z" fill="#9C4B2A"/>
<path d="M244.634 85.8255L246.379 82.1294L227.898 82.3347L244.634 85.8255Z" fill="#FFB99C"/>
<path d="M227.898 82.3348L241.964 88.5977L239.192 94.0392L227.898 82.3348Z" fill="#FFB99C"/>
<path d="M244.118 93.9369C244.118 93.9369 244.22 93.9369 244.22 93.8342C244.323 93.7315 244.323 93.5262 244.22 93.3208C243.81 92.9102 243.399 92.4995 242.885 92.0888C242.783 91.9861 242.475 91.9861 242.372 92.1915C242.269 92.2941 242.269 92.6022 242.475 92.7048C242.885 93.0128 243.296 93.4235 243.707 93.8342C243.81 94.0395 243.912 94.0395 244.118 93.9369Z" fill="#FFBEA2"/>
<path d="M234.367 130.795C234.264 130.59 234.367 130.384 234.572 130.384C235.599 129.974 236.523 129.358 237.344 128.536C237.447 128.433 237.652 128.433 237.857 128.536C237.96 128.639 237.96 128.844 237.857 129.049C236.933 129.871 235.907 130.59 234.88 131.103C234.572 131 234.367 130.898 234.367 130.795ZM238.679 127.407C238.576 127.304 238.473 127.099 238.576 126.893C239.295 125.969 239.808 124.943 240.219 123.916C240.321 123.711 240.527 123.608 240.629 123.711C240.835 123.813 240.937 124.019 240.835 124.121C240.424 125.251 239.808 126.277 239.089 127.304C239.089 127.407 238.987 127.407 238.884 127.407C238.884 127.509 238.781 127.509 238.679 127.407ZM241.04 122.376C240.835 122.376 240.732 122.171 240.732 121.965V121.863C240.937 120.836 240.937 119.707 240.937 118.577C240.937 118.372 241.04 118.269 241.245 118.269C241.451 118.269 241.553 118.372 241.553 118.577C241.553 119.707 241.553 120.836 241.348 121.965V122.171C241.348 122.273 241.245 122.376 241.143 122.479C241.143 122.376 241.143 122.376 241.04 122.376ZM241.245 116.832C241.04 116.832 240.835 116.729 240.835 116.524C240.732 115.497 240.424 114.368 240.116 113.136C240.013 112.93 240.219 112.725 240.321 112.725C240.527 112.622 240.732 112.828 240.732 112.93C241.04 114.162 241.348 115.292 241.451 116.421C241.553 116.626 241.451 116.729 241.245 116.832ZM239.911 111.39C239.705 111.493 239.5 111.39 239.5 111.185C239.5 111.082 239.397 110.98 239.397 110.877C238.987 110.98 238.679 111.082 238.268 111.082C238.063 111.082 237.857 110.98 237.857 110.774C237.857 110.569 237.96 110.364 238.165 110.364C238.473 110.261 238.884 110.261 239.192 110.158C238.884 109.44 238.576 108.721 238.268 107.899C238.165 107.694 238.268 107.489 238.473 107.489C238.679 107.386 238.884 107.489 238.884 107.694C239.295 108.515 239.603 109.337 239.808 110.056C240.321 109.85 240.835 109.645 241.348 109.44C241.553 109.337 241.759 109.44 241.861 109.542C241.964 109.748 241.862 109.953 241.759 110.056C241.245 110.364 240.732 110.569 240.116 110.672C240.116 110.774 240.219 110.877 240.219 110.877C240.219 111.185 240.116 111.39 239.911 111.39ZM242.991 108.926C242.888 108.824 242.888 108.515 242.991 108.413C243.504 108.002 244.018 107.489 244.428 106.975C244.736 106.667 244.942 106.257 245.147 105.949C245.25 105.743 245.455 105.743 245.66 105.846C245.866 105.949 245.866 106.154 245.763 106.359C245.558 106.77 245.25 107.181 245.044 107.489C244.634 108.105 244.12 108.618 243.504 109.132C243.504 109.132 243.402 109.132 243.402 109.234C243.196 109.029 243.094 109.029 242.991 108.926ZM236.112 111.288C234.88 111.288 233.751 110.98 232.621 110.569C232.416 110.466 232.313 110.261 232.416 110.158C232.519 109.953 232.724 109.85 232.827 109.953C233.853 110.364 234.983 110.569 236.112 110.569C236.317 110.569 236.42 110.774 236.42 110.877C236.42 110.98 236.317 111.185 236.215 111.185C236.112 111.288 236.112 111.288 236.112 111.288ZM246.174 104.409C245.968 104.306 245.866 104.203 245.968 103.998C246.276 102.971 246.379 101.842 246.379 100.713C246.379 100.507 246.482 100.405 246.687 100.405C246.892 100.405 246.995 100.507 246.995 100.713C246.995 101.945 246.892 103.177 246.584 104.306C246.584 104.409 246.482 104.511 246.379 104.511C246.276 104.409 246.276 104.409 246.174 104.409ZM230.67 109.645C230.362 109.44 230.157 109.234 229.952 109.132C229.233 108.516 228.72 107.797 228.206 107.078C228.104 106.873 228.206 106.667 228.309 106.565C228.514 106.462 228.72 106.565 228.822 106.667C229.233 107.386 229.746 108.002 230.362 108.516C230.568 108.721 230.773 108.824 231.081 109.029C231.286 109.132 231.286 109.337 231.184 109.542C231.184 109.645 231.081 109.645 230.978 109.645C230.876 109.748 230.773 109.748 230.67 109.645ZM237.344 106.154C236.728 104.922 236.215 103.998 235.496 103.279C235.393 103.177 235.393 102.869 235.496 102.766C235.599 102.663 235.907 102.663 236.009 102.766C236.728 103.485 237.241 104.511 237.96 105.743C238.063 105.949 237.96 106.154 237.755 106.154C237.549 106.359 237.447 106.257 237.344 106.154ZM246.482 98.8645C246.276 98.8645 246.071 98.7618 246.071 98.5565C245.968 98.0432 245.866 97.5298 245.66 97.1191C245.455 96.5031 245.147 95.9898 244.839 95.4764C244.736 95.2711 244.839 95.0657 244.942 94.9631C245.147 94.8604 245.352 94.9631 245.455 95.0657C245.763 95.5791 246.071 96.1951 246.276 96.8111C246.482 97.3245 246.584 97.8378 246.687 98.3512C246.79 98.6592 246.687 98.8645 246.482 98.8645C246.584 98.8645 246.482 98.8645 246.482 98.8645ZM227.796 105.23C227.59 105.23 227.385 105.127 227.385 104.922C227.282 103.895 227.488 102.971 228.001 102.253C228.206 101.945 228.412 101.739 228.72 101.534C228.822 101.431 229.13 101.431 229.233 101.534C229.336 101.637 229.336 101.945 229.233 102.047C229.028 102.253 228.822 102.458 228.72 102.663C228.309 103.279 228.104 103.998 228.206 104.922C228.206 105.025 228.104 105.127 227.796 105.23C227.898 105.23 227.898 105.23 227.796 105.23ZM234.059 101.945C233.135 101.431 232.005 101.123 230.978 101.226C230.773 101.226 230.568 101.123 230.568 100.918C230.568 100.713 230.67 100.507 230.876 100.507C232.108 100.302 233.34 100.61 234.469 101.226C234.675 101.329 234.675 101.534 234.572 101.739C234.572 101.842 234.469 101.842 234.367 101.842C234.264 102.047 234.161 102.047 234.059 101.945Z" fill="#FFBEA2"/>
<path d="M232.727 131.514C232.83 131.411 232.933 131.309 232.933 131.103C232.933 130.898 232.727 130.795 232.522 130.795C232.009 130.898 231.393 130.898 230.879 130.898C230.674 130.898 230.571 131 230.469 131.206C230.469 131.411 230.571 131.514 230.777 131.617C231.495 131.719 232.111 131.719 232.727 131.514C232.727 131.617 232.727 131.617 232.727 131.514Z" fill="#FFBEA2"/>
<path d="M158.911 41.3696C160.451 41.3696 161.683 39.9322 161.683 38.2895V33.0534C161.683 30.5893 160.451 28.6385 158.911 28.6385C157.371 28.6385 156.139 30.5893 156.139 33.0534V38.2895C156.036 39.9322 157.268 41.3696 158.911 41.3696Z" fill="#5C81A2"/>
<path d="M134.577 41.3695C136.117 41.3695 137.349 39.9322 137.349 38.2894V32.7453C137.349 30.2812 136.117 28.3304 134.577 28.3304C133.037 28.3304 131.805 30.2812 131.805 32.7453V38.1868C131.805 39.9321 133.037 41.3695 134.577 41.3695Z" fill="#5C81A2"/>
<path d="M181.803 41.3696C183.343 41.3696 184.575 39.9322 184.575 38.2895V33.0534C184.575 30.5893 183.343 28.6385 181.803 28.6385C180.263 28.6385 179.031 30.5893 179.031 33.0534V38.2895C179.031 39.9322 180.263 41.3696 181.803 41.3696Z" fill="#5C81A2"/>
<path d="M87.2408 41.3695C88.7809 41.3695 90.0129 39.9322 90.0129 38.2894V32.7453C90.0129 30.2812 88.7809 28.3304 87.2408 28.3304C85.7008 28.3304 84.4688 30.2812 84.4688 32.7453V38.1868C84.4688 39.9321 85.7008 41.3695 87.2408 41.3695Z" fill="#63C0C4"/>
<path d="M64.5533 41.3696C66.0934 41.3696 67.3254 39.9322 67.3254 38.2895V33.0534C67.3254 30.5893 66.0934 28.6385 64.5533 28.6385C63.0133 28.6385 61.7812 30.5893 61.7812 33.0534V38.2895C61.7813 39.9322 63.0133 41.3696 64.5533 41.3696Z" fill="#63C0C4"/>
<path d="M111.983 41.3695C113.523 41.3695 114.755 39.9322 114.755 38.2894V32.7453C114.755 30.2812 113.523 28.3304 111.983 28.3304C110.443 28.3304 109.211 30.2812 109.211 32.7453V38.1868C109.211 39.9321 110.443 41.3695 111.983 41.3695Z" fill="#5C81A2"/>
<path d="M69.3747 84.0722C86.2156 80.6704 97.11 64.2605 93.7082 47.4196C90.3063 30.5788 73.8964 19.6843 57.0555 23.0861C40.2147 26.488 29.3202 42.8979 32.7221 59.7388C36.1239 76.5796 52.5339 87.4741 69.3747 84.0722Z" fill="white"/>
<path d="M63.2217 85.0042C45.8705 85.0042 31.8047 70.9384 31.8047 53.5872C31.8047 36.236 45.8705 22.1702 63.2217 22.1702C80.5729 22.1702 94.6387 36.236 94.6387 53.5872C94.6387 70.9384 80.4703 85.0042 63.2217 85.0042ZM63.2217 22.7862C46.1785 22.7862 32.318 36.6466 32.318 53.6898C32.318 70.7331 46.1785 84.5935 63.2217 84.5935C80.2649 84.5935 94.1254 70.7331 94.1254 53.6898C94.0227 36.544 80.1623 22.7862 63.2217 22.7862Z" fill="white"/>
<path d="M82.2149 60.9797C82.1122 61.185 82.0095 61.3903 81.9068 61.3903L62.3995 55.6408C62.2969 55.6408 62.2969 55.3328 62.2969 55.1275C62.3995 54.9221 62.5022 54.7168 62.6049 54.7168L82.0095 60.4663C82.2149 60.569 82.2149 60.7743 82.2149 60.9797Z" fill="#E5332A"/>
<path d="M81.9068 61.6981H81.8041L62.3995 55.9486C62.2969 55.9486 62.1942 55.8459 62.1942 55.7433C62.0915 55.5379 62.0915 55.3326 62.1942 55.1273C62.2969 54.8192 62.5022 54.5112 62.8102 54.5112H62.9129L82.3175 60.2608C82.6255 60.3634 82.7282 60.6714 82.6255 61.0821C82.3175 61.3901 82.1122 61.6981 81.9068 61.6981Z" fill="#FF7C44"/>
<path d="M61.0692 52.6632C61.4799 52.5605 62.0959 53.1765 62.4039 53.9979C62.7119 54.9219 62.6093 55.7433 62.0959 55.8459L45.9767 61.1848C45.566 61.2874 44.95 60.6714 44.642 59.8501C44.334 58.926 44.4367 58.1047 44.95 58.002L61.0692 52.6632Z" fill="#0F3A5D"/>
<path d="M45.8712 61.39C45.3578 61.39 44.7418 60.774 44.4338 59.85C44.1258 58.8233 44.2285 57.7966 44.8445 57.5912L60.9637 52.3551C61.5797 52.1497 62.2984 52.8684 62.6064 53.8951C62.7091 54.4085 62.8117 54.8191 62.7091 55.2298C62.6064 55.7432 62.4011 56.0512 62.093 56.1539L45.9739 61.39C45.9739 61.39 45.9739 61.39 45.8712 61.39ZM61.2717 52.9711L45.0498 58.2073C44.8445 58.3099 44.7418 58.9259 44.9472 59.7473C45.2552 60.5687 45.6659 60.9793 45.8712 60.9793L61.9904 55.7432C62.0931 55.7432 62.1957 55.5378 62.1957 55.3325C62.1957 55.0245 62.1957 54.6138 62.093 54.2031C61.8877 53.3818 61.477 52.9711 61.2717 52.9711Z" fill="#0F3A5D"/>
<path d="M63.2173 54.9222C63.2173 55.5382 62.4986 55.9489 61.4719 55.9489C60.5479 55.9489 59.7266 55.4355 59.7266 54.9222V32.6428C59.7266 32.0268 60.4452 31.6161 61.4719 31.6161C62.396 31.6161 63.2173 32.1294 63.2173 32.6428V54.9222Z" fill="#0F3A5D"/>
<path d="M61.4742 56.2568C60.3448 56.2568 59.5234 55.6408 59.5234 54.9221V32.6427C59.5234 31.924 60.3448 31.308 61.4742 31.308C62.6035 31.308 63.4249 31.924 63.4249 32.6427V54.9221C63.4249 55.6408 62.6035 56.2568 61.4742 56.2568ZM61.4742 31.8213C60.7555 31.8213 60.0368 32.232 60.0368 32.6427V54.9221C60.0368 55.3328 60.6528 55.7434 61.4742 55.7434C62.2955 55.7434 62.9115 55.3328 62.9115 54.9221V32.6427C62.9115 32.232 62.2955 31.8213 61.4742 31.8213Z" fill="#0F3A5D"/>
<path d="M61.2693 16.0099C41.0433 16.0099 24.7188 32.4371 24.7188 52.5604C24.7188 72.7864 41.1459 89.1109 61.2693 89.1109C81.4952 89.1109 97.8198 72.6837 97.8198 52.5604C97.9224 32.3344 81.4952 16.0099 61.2693 16.0099ZM61.4746 80.8973C45.8688 80.8973 33.2404 68.2689 33.2404 52.6631C33.2404 37.0572 45.8688 24.4288 61.4746 24.4288C77.0804 24.4288 89.7088 37.0572 89.7088 52.6631C89.7088 68.2689 77.0804 80.8973 61.4746 80.8973Z" fill="#FF7C44"/>
<path d="M93.501 118.167L106.232 160.877H104.692L91.9609 118.167H93.501Z" fill="#01888B"/>
<path d="M80.0546 118.167L92.8883 160.877H91.3483L78.6172 118.167H80.0546Z" fill="#01888B"/>
<path d="M93.4017 118.167V119.296H79.5413L79.3359 118.167H93.4017Z" fill="#01888B"/>
<path d="M95.7611 126.586V127.818H81.9006L81.6953 126.586H95.7611Z" fill="#01888B"/>
<path d="M98.2243 135.415L98.7377 136.647H84.8772L84.6719 135.415H98.2243Z" fill="#01888B"/>
<path d="M100.795 144.245L101.411 145.477H87.5502L87.2422 144.245H100.795Z" fill="#01888B"/>
<path d="M103.256 152.869L103.769 154.101H89.9085L89.7031 152.869H103.256Z" fill="#01888B"/>
<path d="M33.9586 118.167L21.2275 160.877H19.6875L32.4186 118.167H33.9586Z" fill="#63C0C4"/>
<path d="M47.3024 118.167L34.5713 160.877H33.0312L45.865 118.167H47.3024Z" fill="#63C0C4"/>
<path d="M46.5892 118.167L46.3839 119.296H32.5234V118.167H46.5892Z" fill="#63C0C4"/>
<path d="M30.1562 126.586V127.818H44.0167L44.222 126.586H30.1562Z" fill="#63C0C4"/>
<path d="M27.693 135.415L27.1797 136.647H41.0401L41.2455 135.415H27.693Z" fill="#63C0C4"/>
<path d="M25.1316 144.245L24.5156 145.477H38.3761L38.6841 144.245H25.1316Z" fill="#63C0C4"/>
<path d="M22.6618 152.869L22.1484 154.101H36.0089L36.2142 152.869H22.6618Z" fill="#63C0C4"/>
<path d="M28.4822 119.301L96.0391 119.301V117.145L28.4822 117.145V119.301Z" fill="#01888B"/>
<path d="M60.6539 107.591L61.6806 110.363C61.7833 110.774 61.7833 111.185 61.3726 111.493C61.3726 111.493 61.0646 111.698 60.8593 111.698C60.6539 111.698 59.4219 107.899 59.4219 107.899C59.9352 107.283 60.6539 107.591 60.6539 107.591Z" fill="#01888B"/>
<path d="M60.8615 111.698L59.4241 107.899L59.2188 108.002L60.6561 111.801L60.8615 111.698Z" fill="#212B53"/>
<path d="M61.068 108.721L61.1707 108.926L60.6574 109.029L60.5547 108.823L61.068 108.721Z" fill="white"/>
<path d="M61.2712 109.234L61.3738 109.439L60.8605 109.542L60.7578 109.337L61.2712 109.234Z" fill="white"/>
<path d="M61.7851 106.975L60.6557 107.591C60.553 107.899 60.6557 108.207 60.9637 108.31L62.2984 108.002L61.7851 106.975Z" fill="#F7B58E"/>
<path d="M71.132 89.3163C71.132 89.3163 70.0027 90.5483 69.6946 92.8071C69.4893 94.2444 70.0027 96.6059 70.1053 98.4539C70.208 100.097 69.3866 101.431 68.0519 102.458L61.7891 106.976L62.1997 108.105C62.1997 108.105 70.824 106.77 73.0828 102.971C75.3415 99.1726 75.8549 90.4457 75.8549 90.4457L71.132 89.3163Z" fill="#212B53"/>
<path d="M66.0956 84.5935L62.9128 91.7804C62.9128 91.7804 61.5781 91.9857 60.9621 92.3964C60.654 92.7044 60.654 93.2178 60.7567 93.6285C60.8594 93.9365 61.2701 94.1418 61.4754 93.9365C61.7834 93.6285 62.2968 93.3205 62.6048 93.2178C63.4261 93.1151 63.6315 92.4991 63.6315 92.4991L68.2516 85.2095L66.0956 84.5935Z" fill="#F7B58E"/>
<path d="M82.4206 70.1168L84.0633 68.6794L82.8313 61.6979L80.8805 60.6712C80.8805 60.6712 81.0859 60.2605 81.5992 60.4658C82.1126 60.6712 82.5233 60.5685 82.5233 60.5685C82.5233 60.5685 82.9339 60.1578 82.2153 59.7472C81.8046 59.4391 81.5992 59.7472 80.3672 59.7472C80.3672 59.5418 81.9072 59.1311 81.9072 59.1311C82.4206 59.0285 83.55 59.9525 83.55 59.9525C83.6526 60.0552 83.6526 60.1578 83.6526 60.3632L83.858 61.6979C83.858 61.6979 86.4247 68.6794 86.4247 69.5008C86.4247 70.3222 84.9873 71.2462 84.9873 71.2462L82.4206 70.1168Z" fill="#F7B58E"/>
<path d="M73.4903 90.0349C73.4903 90.0349 72.4636 91.2669 73.0796 94.039C73.4903 95.7844 75.1331 98.0431 76.2624 99.5832C77.0838 100.713 77.0838 102.047 76.8784 103.382C75.9544 108.515 77.3918 114.778 77.3918 114.778H78.6238C78.6238 114.778 80.3692 105.641 80.9852 99.1725C81.4986 93.3203 78.9318 89.1108 78.9318 89.0082L73.4903 90.0349Z" fill="#212B53"/>
<path d="M80.3131 59.396L80.1641 60.4119L83.9226 60.9634L84.0717 59.9476L80.3131 59.396Z" fill="#F6A505"/>
<path d="M83.8835 59.8868L83.7344 60.9026L84.0391 60.9473L84.1882 59.9315L83.8835 59.8868Z" fill="white"/>
<path d="M84.0625 60.9796C84.3705 60.9796 84.5758 60.9796 84.6785 60.5689C84.7812 60.0555 84.5758 60.0556 84.2678 59.9529L84.0625 60.9796Z" fill="#212B53"/>
<path d="M80.1562 60.3635L79.4375 59.9528V59.6448L80.2588 59.4395L80.1562 60.3635Z" fill="white"/>
<path d="M79.4408 59.9527L79.1328 59.7473L79.4408 59.6447V59.9527Z" fill="#053C5E"/>
<path d="M80.2329 60.0415L80.2031 60.2446L83.8601 60.7806L83.8898 60.5774L80.2329 60.0415Z" fill="#F08712"/>
<path d="M80.2642 59.6245L80.2344 59.8276L83.8913 60.3647L83.9212 60.1615L80.2642 59.6245Z" fill="#F08712"/>
<path d="M70.6123 75.8666C68.4563 77.4067 65.9922 85.0042 65.9922 85.0042L67.8403 86.0309L70.9203 81.8215C70.9203 81.8215 71.2284 86.647 70.5097 90.3431C70.8177 91.7805 72.4604 91.5751 75.0271 91.0618C77.5939 90.5484 79.2366 89.419 79.2366 89.419C79.2366 89.419 79.3393 82.7455 79.6473 79.152C79.9553 75.5586 79.3393 75.2506 80.2633 75.3533C82.3167 74.2239 85.4995 70.5278 85.4995 70.5278L82.4194 69.9117L75.8485 73.7105C75.8485 73.9159 72.6657 74.7372 70.6123 75.8666Z" fill="#00666B"/>
<path d="M74.3125 67.0367L75.8525 68.5768C76.5712 69.1928 76.7766 70.2195 76.5712 71.1435L76.3659 71.9649L74.3125 67.0367Z" fill="#F7B58E"/>
<path d="M72.3644 66.4207C68.5656 66.4207 70.1056 73.8129 70.1056 73.8129C70.1056 73.8129 70.8243 78.6384 72.3644 80.4864C73.6991 82.1292 76.2658 81.6158 77.4979 80.8971C78.1139 80.4864 78.7299 80.2811 79.4486 80.1784C80.4753 80.0758 81.7074 79.5624 81.7074 77.7144C81.7074 75.969 79.5513 74.5316 78.2166 73.6076C77.2925 72.9915 76.6765 71.9648 76.3685 70.9381C76.0605 68.9874 75.0338 66.4207 72.3644 66.4207Z" fill="#FFD147"/>
<path d="M77.5928 116.113H80.5702C80.9809 116.216 81.3916 116.319 81.4943 116.729C81.4943 116.729 81.5969 117.037 81.4943 117.345C81.3916 117.551 77.3875 117.345 77.3875 117.345C77.0795 116.627 77.5928 116.113 77.5928 116.113Z" fill="#01888B"/>
<path d="M81.599 117.345H77.4922L77.5949 117.551H81.599V117.345Z" fill="#053C5E"/>
<path d="M78.8214 116.113H79.1294L79.0268 116.627H78.7188L78.8214 116.113Z" fill="white"/>
<path d="M79.4386 116.113H79.644L79.5413 116.627H79.3359L79.4386 116.113Z" fill="white"/>
<path d="M77.3906 114.779L77.596 116.113C77.8013 116.319 78.1093 116.319 78.4173 116.113L78.52 114.779H77.3906Z" fill="#F7B58E"/>
<path d="M81.5 60.4661C80.9866 60.2607 80.7812 60.6714 80.7812 60.6714L82.116 61.3901C82.116 61.3901 82.116 61.3901 82.2186 61.3901C82.424 61.2874 82.9373 61.0821 83.1427 61.0821C82.9373 60.8767 81.808 60.5687 81.5 60.4661Z" fill="#F7B58E"/>
<path d="M11.7822 159.851C11.7822 159.851 12.1929 160.364 13.9383 160.878C14.349 160.98 14.7596 161.083 14.7596 161.699C13.9383 161.699 13.0143 161.699 13.0143 161.699L11.1662 161.391V161.699H10.1395C10.1395 161.699 9.83149 160.056 10.4475 159.851C11.0635 159.851 11.7822 159.851 11.7822 159.851Z" fill="#212B53"/>
<path d="M11.8827 158.721L11.78 159.851C11.472 160.056 10.9587 160.159 10.548 159.851H10.4453V158.721H11.8827Z" fill="#F7B58E"/>
<path d="M2.74316 160.056C2.74316 160.056 3.15384 160.569 4.89923 161.083C5.30991 161.185 5.72059 161.288 5.72059 161.904C4.89923 161.904 3.9752 161.904 3.9752 161.904L2.12714 161.596V161.904H1.10044C1.10044 161.904 0.79243 160.261 1.40845 160.056C2.02447 160.056 2.74316 160.056 2.74316 160.056Z" fill="#212B53"/>
<path d="M2.84363 158.927L2.74096 160.056C2.43295 160.261 1.9196 160.364 1.50892 160.056H1.40625V158.927H2.84363Z" fill="#F7B58E"/>
<path d="M12.6041 130.487L12.1935 159.337H10.1401C10.1401 159.337 6.95729 136.031 7.67598 130.487C8.292 124.943 12.6041 130.487 12.6041 130.487Z" fill="#212B53"/>
<path d="M10.4434 130.487C10.4434 130.487 9.72473 139.317 8.08201 144.245C6.43929 149.173 3.35919 159.337 3.35919 159.337H1.20312C1.20312 159.337 4.79657 138.085 3.97521 130.487H10.4434Z" fill="#053C5E"/>
<path d="M12.2945 115.805C12.2945 115.805 14.8613 121.862 15.58 121.862C16.0933 121.862 15.3746 116.934 15.3746 116.934H17.5307C17.5307 116.934 20.3028 125.353 18.0441 126.893C15.888 128.433 11.0625 122.478 11.0625 122.478L12.2945 115.805Z" fill="#0F3A5D"/>
<path d="M4.59375 131.206L5.41511 133.156C5.82579 133.875 7.1605 133.978 8.08453 133.67C8.1872 133.67 8.28987 133.464 8.1872 133.362C7.67385 132.848 6.33914 131.411 5.92846 131.103L4.59375 131.206Z" fill="#A87C4F"/>
<path d="M10.139 114.573C10.9604 114.573 11.7818 114.984 12.1924 115.702C12.2951 115.908 12.3978 116.216 12.3978 116.524C12.3978 117.55 12.3978 130.487 12.3978 130.487H4.49219V117.448C4.49219 117.448 4.69753 114.573 7.46962 114.573C8.80433 114.573 9.62569 114.573 10.139 114.573Z" fill="#0F3A5D"/>
<path d="M12.3984 130.487V117.961H12.6038V130.487H12.3984Z" fill="white"/>
<path d="M7.26562 111.904L8.08698 115.086C8.08698 115.086 8.80567 115.702 9.7297 115.394C10.6537 115.189 10.5511 114.47 10.5511 114.47L10.0377 112.417H8.49766L7.26562 111.904Z" fill="#A87C4F"/>
<path d="M10.3457 112.93C10.6537 112.828 10.859 112.725 10.9617 112.52C11.475 110.98 9.52431 107.591 9.52431 107.591L6.54688 108.926L7.06022 111.39C7.16289 112.006 7.67625 112.622 8.29227 112.828C9.01096 113.136 9.72965 113.136 10.3457 112.93Z" fill="#A87C4F"/>
<path d="M8.08819 108.721C8.08819 108.721 9.11489 108.618 10.1416 108.207C11.1683 107.694 10.1416 106.77 10.1416 106.77C10.1416 106.77 9.4229 107.386 7.98552 107.489C6.95882 107.591 6.65081 107.489 6.13746 108.002C5.41877 108.618 6.03479 110.158 6.03479 110.158L7.3695 113.238H7.57484C7.57484 113.238 7.16416 111.287 6.95882 110.671C7.06149 110.363 7.26683 110.261 7.47217 110.363C7.67751 110.363 7.78018 110.569 7.88285 110.774L8.80688 114.059C8.80688 114.059 11.1683 114.367 11.6816 114.059C12.195 113.751 11.1683 111.39 11.1683 111.39C11.1683 111.39 10.4496 111.287 10.1416 111.903C9.83358 112.519 9.11489 112.211 9.11489 112.211L8.08819 108.721Z" fill="#212B53"/>
<path d="M17.1181 116.934L17.0154 116.524C16.81 115.6 15.9887 114.47 15.0647 114.162H14.1406L14.4486 116.113L15.7833 116.934H17.1181Z" fill="#A87C4F"/>
<path d="M7.05812 110.056C7.26346 109.953 7.57146 110.158 7.67413 110.466C7.7768 110.774 7.67414 111.082 7.4688 111.185C7.26346 111.288 6.95545 111.082 6.85278 110.774C6.75011 110.466 6.85278 110.158 7.05812 110.056Z" fill="#A87C4F"/>
<path d="M14.8648 115.908L16.6102 116.934H15.4809L13.6328 115.394C13.6328 115.394 13.7355 115.086 14.2488 115.394C14.7622 115.702 14.8648 115.908 14.8648 115.908Z" fill="#A87C4F"/>
<path d="M5.41592 115.394C5.41592 115.394 0.898438 120.322 0.898438 123.402C0.898438 126.38 4.49189 131.616 4.49189 131.616L6.23728 131.103C6.23728 131.103 4.59456 124.634 4.59456 122.889C4.59456 121.144 7.88 118.577 7.88 118.577" fill="#0F3A5D"/>
<path d="M4.90176 122.889C4.90176 124.429 6.23647 129.871 6.54448 131.103C6.44181 131.103 6.44181 131.103 6.23647 131.205C5.82579 129.665 4.59375 124.429 4.59375 122.889C4.59375 121.144 7.87919 118.577 7.98186 118.474L8.1872 118.68C8.1872 118.68 4.90176 121.246 4.90176 122.889Z" fill="white"/>
<path d="M13.6268 112.93C13.6268 112.93 13.5242 114.881 14.8589 116.318C14.9615 116.421 15.0642 116.421 15.1669 116.421C15.4749 116.421 15.5776 116.318 15.7829 116.216C15.9882 116.113 16.0909 116.01 16.0909 115.908C16.0909 115.805 16.0909 115.702 15.9882 115.702C15.6802 115.394 14.8589 114.265 14.9615 113.136C14.4482 112.622 13.6268 112.93 13.6268 112.93Z" fill="#00666B"/>
<path d="M15.9943 116.113C16.097 116.011 16.097 116.011 16.1996 115.908C16.1996 115.805 16.1996 115.703 16.097 115.703C15.7889 115.394 14.9676 114.265 15.0703 113.136C14.8649 113.033 14.5569 112.93 14.3516 112.93C14.5569 114.06 14.9676 114.778 15.9943 116.113Z" fill="#01888B"/>
<path d="M14.9676 114.368C15.0703 114.676 15.173 114.778 15.2756 114.778C15.3783 114.778 15.3783 114.47 15.2756 114.265C15.173 113.957 15.0703 113.854 14.9676 113.854C14.865 113.854 14.865 114.06 14.9676 114.368Z" fill="#00666B"/>
<path d="M14.9688 113.856L15.0731 113.752V113.856H14.9688Z" fill="#F49B42"/>
<path d="M15.2734 114.78L15.3778 114.676H15.2734V114.78Z" fill="#E7375E"/>
<path d="M15.0692 114.368C15.1719 114.676 15.2745 114.778 15.3772 114.778C15.4799 114.778 15.4799 114.47 15.3772 114.265C15.2745 113.957 15.1719 113.854 15.0692 113.854C14.9665 113.854 14.9665 114.06 15.0692 114.368Z" fill="#63C0C4"/>
<path d="M13.0131 111.39H12.8078C12.3971 111.39 12.0891 111.801 12.1918 112.212L12.2944 112.725C12.2944 113.136 12.7051 113.341 13.1158 113.341H13.3211L13.0131 111.39Z" fill="#00666B"/>
<path d="M19.48 111.082C19.6853 112.622 19.48 113.854 19.0693 113.957C18.6586 114.06 18.1453 112.828 17.9399 111.288C17.7346 109.748 17.9399 108.516 18.3506 108.413C18.864 108.413 19.2746 109.542 19.48 111.082Z" fill="#212B53"/>
<path d="M17.8381 110.261L18.4542 110.569L18.5568 111.493L18.0435 112.109L17.6328 110.98L17.8381 110.261Z" fill="white"/>
<path d="M17.9382 111.287C17.7328 110.055 17.9382 108.926 18.1435 108.618C15.7821 110.774 12.8047 111.39 12.8047 111.39L13.01 113.341C13.01 113.341 17.0142 112.622 18.7595 113.854C18.4515 113.546 18.1435 112.519 17.9382 111.287Z" fill="#053C5E"/>
<path d="M18.5558 111.082C18.5558 111.288 18.5558 111.493 18.5558 111.493C18.5558 111.493 18.4531 111.288 18.4531 111.082C18.4531 110.877 18.4531 110.671 18.4531 110.671C18.4531 110.569 18.5558 110.774 18.5558 111.082Z" fill="#FFD147"/>
<path d="M16.0925 115.497C15.9898 115.497 15.7845 115.702 15.0658 115.702C14.5524 115.702 14.3471 115.086 14.2444 114.676C14.2444 114.573 14.1417 114.368 14.3471 114.265L15.1684 114.162L16.0925 115.497Z" fill="#A87C4F"/>
<path d="M116.913 39.4184L121.533 39.0077C122.149 39.0077 122.868 39.1104 123.073 39.6237C123.073 39.6237 123.176 39.9317 123.176 40.3424C123.073 40.5477 116.81 40.8558 116.81 40.8558C116.092 40.1371 116.913 39.4184 116.913 39.4184Z" fill="#F08712"/>
<path d="M123.178 40.3425L116.812 40.8559L116.915 41.0612L123.178 40.5479V40.3425Z" fill="white"/>
<path d="M118.656 39.2131H119.17L119.067 39.8292H118.656V39.2131Z" fill="white"/>
<path d="M119.578 39.2133L119.989 39.1106V39.7266H119.578V39.2133Z" fill="white"/>
<path d="M116.398 37.8784L116.809 39.4185C117.22 39.6238 117.733 39.5211 118.041 39.3158H118.144L118.246 37.7758L116.398 37.8784Z" fill="#F7B58E"/>
<path d="M115.374 40.4452L119.994 40.0345C120.61 40.0345 121.329 40.1372 121.534 40.6506C121.534 40.6506 121.637 40.9586 121.637 41.3693C121.534 41.5746 115.271 41.8826 115.271 41.8826C114.553 41.1639 115.374 40.4452 115.374 40.4452Z" fill="#FFD147"/>
<path d="M121.638 41.3691L115.375 41.9852V42.1905L121.741 41.6771L121.638 41.3691Z" fill="white"/>
<path d="M117.219 40.3425L117.629 40.2399V40.8559H117.219V40.3425Z" fill="white"/>
<path d="M118.142 40.2399H118.552L118.45 40.7532L118.039 40.8559L118.142 40.2399Z" fill="white"/>
<path d="M114.961 38.9053L115.372 40.4453C115.782 40.6507 116.296 40.548 116.604 40.3427H116.706L116.809 38.8026L114.961 38.9053Z" fill="#F7B58E"/>
<path d="M96.5859 28.6383C96.5859 28.6383 97.3046 34.4905 102.746 34.7985C108.085 35.0038 114.451 28.9463 114.451 28.9463L116.504 38.1866H118.557C118.557 38.1866 119.892 24.1208 117.017 23.4021C114.142 22.6834 103.465 27.3036 103.465 27.3036L96.5859 28.6383Z" fill="#00666B"/>
<path d="M100.895 12.006L99.7656 14.1621L101.614 14.7781L102.435 13.1354L100.895 12.006Z" fill="#F39F85"/>
<path d="M101.312 8.30969L100.594 11.1845C100.902 11.2871 100.902 11.5951 100.799 11.9031C100.799 12.0058 100.799 12.0058 100.799 12.1085C101.21 12.6218 101.928 13.3405 103.16 13.4432C105.009 13.6485 105.009 9.84974 105.009 9.84974L101.312 8.30969Z" fill="#F7B58E"/>
<path d="M99.7686 10.1578C99.7686 9.95245 99.6659 9.4391 99.5633 9.23376C98.8446 8.00172 99.9739 7.69371 100.282 7.59104C100.693 7.48837 100.795 6.76968 101.411 6.56434C102.233 6.25633 102.746 6.97502 103.259 7.07769C103.773 7.18036 104.183 6.66701 104.799 7.18036C105.313 7.69371 105.107 8.20706 105.313 8.51507C105.415 8.82308 106.031 8.30973 106.442 9.23376C107.058 10.5685 105.005 10.4658 105.005 10.4658C105.005 10.4658 103.875 10.5685 102.643 9.64444C102.438 9.54177 102.233 9.4391 102.027 9.64444C101.514 9.95245 100.795 12.3139 100.795 12.3139L100.487 11.8005C100.487 11.5952 99.5633 11.0818 99.7686 10.1578Z" fill="#212B53"/>
<path d="M100.797 10.6711C100.797 10.8764 101.002 11.0817 101.31 11.0817C101.516 11.0817 101.721 10.8764 101.721 10.5684C101.721 10.3631 101.516 10.1577 101.208 10.1577C100.9 10.2604 100.797 10.4657 100.797 10.6711Z" fill="#F7B58E"/>
<path d="M95.1484 28.1252C95.1484 28.1252 95.2511 34.08 100.59 34.9014C105.929 35.7228 112.808 30.2812 112.808 30.2812L114.861 39.4189L116.914 39.2135C116.914 39.2135 118.763 26.0718 115.888 25.0451C113.116 24.0184 101.925 27.6118 101.925 27.6118L95.1484 28.1252Z" fill="#01888B"/>
<path d="M95.1482 28.1252L103.978 27.4065C103.978 27.4065 103.464 25.4558 103.567 23.4024C103.567 21.8624 104.286 20.5276 104.286 20.5276C103.978 17.1395 103.054 13.7514 99.9737 13.9568C94.7375 14.8808 95.1482 28.1252 95.1482 28.1252Z" fill="#AFD8C8"/>
<path d="M120.506 17.2418L116.912 24.8394L109.212 23.402L109.109 24.018L117.323 25.4554L121.019 17.4472L120.506 17.2418Z" fill="#053C5E"/>
<path d="M100.695 20.7331L104.186 20.425L104.289 24.3265L110.552 22.7865L111.989 21.9651C112.4 21.7598 112.81 21.6571 113.221 21.7598L114.864 22.0678C115.069 22.0678 115.172 22.2731 115.172 22.3758L115.685 24.2238C115.685 24.2238 115.274 24.5318 114.761 22.9918C114.35 24.7372 111.886 23.4025 111.886 23.4025L110.962 23.9158C110.962 23.9158 104.083 28.3306 102.543 27.3039C100.901 26.4826 100.695 20.7331 100.695 20.7331Z" fill="#F7B58E"/>
<path d="M115.169 22.4782C115.169 22.2729 115.067 22.1702 114.861 22.1702L113.219 21.8622C112.808 21.7595 112.397 21.8622 111.986 22.0675L110.549 22.8889H110.344L110.446 24.3263C110.754 24.1209 110.857 24.0182 110.857 24.0182L111.781 23.5049C111.781 23.5049 114.245 24.8396 114.656 23.0942C115.169 24.6343 115.58 24.3263 115.58 24.3263L115.169 22.4782Z" fill="#F7B58E"/>
<path d="M180.155 116.524L177.281 121.041C176.665 121.965 175.638 123.095 174.611 123.403L168.656 124.84V125.764C168.656 125.764 174.611 126.38 177.383 124.84C180.053 123.403 182.003 119.912 182.003 119.912L180.155 116.524Z" fill="#F7B58E"/>
<path d="M187.244 117.448C187.244 117.448 185.704 114.676 183.753 114.163C182.11 114.163 181.7 114.368 181.7 114.368C181.7 114.368 179.543 117.037 178.825 118.783C178.517 119.399 178.517 120.117 178.825 120.836C180.159 123.711 179.954 129.152 179.954 129.152H186.525C186.525 129.152 185.396 120.939 185.601 119.296C185.806 117.653 187.244 117.448 187.244 117.448Z" fill="#00666B"/>
<path d="M175.126 158.003L174.715 159.03C174.613 159.338 174.407 159.543 174.202 159.748C173.894 159.954 173.483 160.159 172.867 160.364C173.689 160.98 174.921 160.364 175.639 159.851C175.947 159.646 176.255 159.235 176.358 158.824L176.563 158.105H175.126V158.003Z" fill="#F7B58E"/>
<path d="M176.361 158.516C176.361 158.516 176.874 158.927 176.772 159.44C176.669 159.953 176.566 161.185 176.566 161.185H176.053V160.056C176.053 159.953 174.923 161.185 174.718 161.185H171.843C171.843 161.185 171.638 160.364 173.383 160.159C175.026 159.953 176.361 158.516 176.361 158.516Z" fill="#053C5E"/>
<path d="M179.952 129.152L175.023 158.105H176.666C176.666 158.105 180.157 152.048 180.67 147.017C180.773 146.196 180.773 145.374 181.389 144.656C185.496 139.83 184.366 132.13 184.366 132.13L182.108 129.152H179.952Z" fill="#01888B"/>
<path d="M187.649 158.003L187.239 159.03C187.136 159.338 186.931 159.543 186.725 159.748C186.417 159.954 186.007 160.159 185.391 160.364C186.212 160.98 187.444 160.364 188.163 159.851C188.471 159.646 188.779 159.235 188.881 158.824L189.087 158.105H187.649V158.003Z" fill="#F7B58E"/>
<path d="M188.884 158.516C188.884 158.516 189.398 158.927 189.295 159.44C189.192 159.953 189.09 161.185 189.09 161.185H188.576V160.056C188.576 159.953 187.447 161.185 187.242 161.185H184.367C184.367 161.185 184.161 160.364 185.907 160.159C187.447 159.953 188.884 158.516 188.884 158.516Z" fill="#053C5E"/>
<path d="M181.492 113.033V116.216L183.34 114.163L183.135 111.083L181.492 113.033Z" fill="#F39F85"/>
<path d="M181.079 108.31C182.414 108.516 183.133 110.158 183.133 110.158V115.189L185.494 113.136C185.494 113.136 185.7 110.877 185.084 108.31C184.57 106.77 182.619 106.36 181.182 107.078C180.463 107.489 180.053 108.208 179.847 108.926C179.539 109.953 179.539 110.98 179.745 112.006L180.566 115.703L181.593 114.676C181.593 114.676 181.798 113.752 181.593 112.828C180.977 111.082 180.258 108.208 181.079 108.31Z" fill="#212B53"/>
<path d="M183.544 110.261C183.441 110.158 183.133 110.158 182.928 110.364C182.723 110.569 182.723 110.774 182.825 110.98C182.928 111.082 183.236 111.082 183.441 110.877C183.647 110.672 183.647 110.364 183.544 110.261Z" fill="#F7B58E"/>
<path d="M180.872 113.033C180.564 113.033 180.358 113.033 180.256 112.828C179.537 111.596 180.358 108.413 180.358 108.413L181.59 107.899L183.131 108.926L183.233 111.082C183.233 111.698 183.028 112.212 182.514 112.52C182.001 112.93 181.488 113.033 180.872 113.033Z" fill="#F7B58E"/>
<path d="M180.877 108.105C180.569 109.029 183.136 110.158 183.136 110.158L183.752 108.926L182.623 107.489L181.185 107.694C181.083 107.797 180.877 108.002 180.877 108.105Z" fill="#212B53"/>
<path d="M180.875 108.31C180.772 108.721 180.259 109.132 180.259 109.132L180.156 108.721L180.259 108.413L180.567 108.208C180.567 108.208 180.875 107.9 180.875 108.31Z" fill="#212B53"/>
<path d="M186.213 129.152C186.213 129.152 190.833 131.206 188.472 143.731C188.369 144.45 188.369 145.272 188.677 145.99C189.704 149.481 189.088 158.105 189.088 158.105H187.445C187.445 158.105 182.003 135.723 181.695 129.152C184.878 129.152 186.213 129.152 186.213 129.152Z" fill="#63C0C4"/>
<path d="M167.734 124.738C167.631 124.738 167.323 124.84 166.605 124.738C165.989 124.635 164.859 123.916 164.859 124.532C165.27 125.046 165.783 125.764 165.783 125.764C166.091 126.072 166.81 126.072 167.221 126.072L168.555 125.764L168.863 125.148L168.658 124.943C168.35 124.84 168.042 124.84 167.734 124.738Z" fill="#F7B58E"/>
<path d="M167.427 124.943C167.427 125.045 167.427 125.148 167.53 125.148C167.838 125.251 168.146 125.353 168.454 125.559C168.454 125.353 168.556 125.045 168.556 125.045L166.708 123.813C166.708 123.813 166.503 124.019 166.708 124.327C167.016 124.737 167.427 124.943 167.427 124.943Z" fill="#F7B58E"/>
<path d="M184.569 114.471L184.672 114.676C184.672 114.676 182.002 116.421 182.002 119.296V131H186.828L186.725 121.965C186.828 122.068 186.828 122.068 186.93 122.068L187.033 131.103H181.797V119.193C181.797 116.216 184.466 114.471 184.569 114.471Z" fill="#63C0C4"/>
<path d="M187.245 117.448C187.245 117.448 190.531 125.969 188.272 126.688C186.013 127.51 181.906 121.349 181.906 121.349L182.728 120.733L186.526 123.916C186.526 123.916 185.705 122.684 185.294 120.117C184.781 117.448 187.245 117.448 187.245 117.448Z" fill="#F7B58E"/>
<path d="M182.829 120.939L182.624 119.193C182.624 119.193 182.008 118.475 181.597 118.372C181.494 118.372 181.289 118.372 181.186 118.475C180.981 118.783 180.57 119.399 180.57 119.604C180.57 119.707 180.57 119.809 180.673 119.912L181.289 120.425L182.008 121.452L182.829 120.939Z" fill="#F7B58E"/>
<path d="M182.009 133.465H186.629C187.04 133.465 187.45 133.054 187.45 132.643V129.563C187.45 129.152 187.04 128.742 186.629 128.742H182.009C181.598 128.742 181.188 129.152 181.188 129.563V132.643C181.29 133.157 181.598 133.465 182.009 133.465Z" fill="#FFD147"/>
<path d="M181.289 131.103V129.666C181.289 129.255 181.7 128.845 182.11 128.845H186.731C187.141 128.845 187.552 129.255 187.552 129.666V131.103H181.289Z" fill="#F6A505"/>
<path d="M181.906 133.465C182.317 133.465 182.625 133.26 182.625 132.952V129.358C182.625 128.947 182.317 128.845 181.906 128.845C181.496 128.845 181.188 129.153 181.188 129.358V132.746C181.187 133.362 181.496 133.465 181.906 133.465Z" fill="#00666B"/>
<path d="M185.088 131.822C185.191 131.822 185.293 131.719 185.293 131.617V130.487C185.293 130.385 185.191 130.282 185.088 130.282C184.985 130.282 184.883 130.385 184.883 130.487V131.617C184.883 131.719 184.985 131.822 185.088 131.822Z" fill="#053C5E"/>
</svg>
