<svg width="266" height="150" viewBox="0 0 266 150" fill="none" xmlns="http://www.w3.org/2000/svg">
<path d="M216.503 144.1C216.503 141.3 168.203 139.1 108.603 139.1C49.0031 139.1 0.703125 141.3 0.703125 144.1C0.703125 146.9 49.0031 149.1 108.603 149.1C168.203 149.1 216.503 146.8 216.503 144.1Z" fill="#E7F2FB"/>
<path d="M68.6033 94.9001C68.6033 94.9001 64.9033 63.3001 42.4033 57.1001C18.5033 89.4001 58.5033 114.7 58.5033 114.7L68.6033 94.9001Z" fill="#E7F2FB"/>
<path d="M33.4062 85.1V84.4L55.7062 92.5L42.1062 57.3L42.8063 57L52.4062 82L60.4062 70.7L60.6062 71.6L52.7062 82.8L60.5062 103L60.0062 103.8L56.0062 93.3L33.4062 85.1Z" fill="white"/>
<path d="M59.6069 90.4C59.6069 90.4 39.8069 62.2 16.5069 65.2C6.70694 90.2 32.9069 105.4 32.9069 105.4L60.4069 109L59.6069 90.4Z" fill="#5C81A2"/>
<path d="M23.0047 97.6999L46.3047 95.3999L28.0047 77.0999L14.3047 77.9999V77.2999L27.3047 76.4999L16.0047 65.1999L16.7047 64.8999L37.5047 85.5999L40.4047 71.3999L41.0047 72.0999L38.1047 86.1999L61.2047 109.3L60.7047 109.8L46.9047 95.9999L23.8047 98.2999L23.0047 97.6999Z" fill="white"/>
<path d="M53.5078 102.5C53.5078 102.5 28.4078 94.1002 17.0078 107.8C28.6078 142.2 73.2078 130 73.2078 130L53.5078 102.5Z" fill="#FF7C44"/>
<path d="M36.1062 129L52.0062 116.9L16.9062 108.2L17.1062 107.5L38.4062 112.8L30.7062 100.2H31.5062L39.3063 113.1L68.2062 120.3L68.0062 120.9L52.8063 117.2L37.0062 129.2L36.1062 129Z" fill="white"/>
<path d="M172.198 86.1998C172.198 86.1998 194.598 62.3998 216.798 68.1998C223.698 94.9998 194.998 107.2 194.998 107.2L166.398 107.4L172.198 86.1998Z" fill="#5C81A2"/>
<path d="M206.102 100.5L182.602 95.2998L203.602 78.8998L217.502 81.4998L217.602 80.7998L204.302 78.2998L217.402 68.1998L216.602 67.7998L192.802 86.3998L191.602 71.4998L190.902 72.0998L192.102 86.8998L165.602 107.6L166.102 108.1L181.802 95.7998L205.202 101.1L206.102 100.5Z" fill="white"/>
<path d="M175.803 103.8C175.803 103.8 202.603 98.3999 212.403 113.8C196.203 147.6 152.703 128.8 152.703 128.8L175.803 103.8Z" fill="#63C0C4"/>
<path d="M190.302 133.2L175.602 118.8L212.502 114.2L212.402 113.5L190.002 116.3L199.502 104.3H198.602L189.002 116.4L158.602 120.1L158.702 120.8L174.702 118.9L189.302 133.2H190.302Z" fill="white"/>
<path d="M159 86.8995C159 86.8995 164.5 54.5995 188 49.4995C210.8 83.9995 175.6 104.5 175.6 104.5L159 86.8995Z" fill="#FFBEA2"/>
<path d="M195.902 76.9997V76.1997L173.502 85.9997L185.202 48.8997L184.502 48.6997L176.202 74.9997L167.202 63.8997L167.102 64.7997L175.902 75.7997L169.202 97.1997L169.702 97.8997L173.202 86.8997L195.902 76.9997Z" fill="white"/>
<path d="M161.398 10.7997L189.898 8.19971L184.298 17.0997L189.898 25.9997L162.598 28.1997L161.398 10.7997Z" fill="#17578C"/>
<path d="M76.9016 15.2L59.6016 10.5V132.7C59.6016 132.7 70.8016 139.8 76.9016 140.6V15.2Z" fill="url(#paint0_linear_3397_2044)"/>
<path d="M175.603 6.6001L76.2031 15.3001V139.8C76.2031 140.3 76.6031 140.7 77.1031 140.6L175.603 132V6.6001Z" fill="#FF7C44"/>
<path opacity="0.64" d="M170.602 127.5L81.1016 135.3V19.8L170.602 12V127.5ZM82.2016 134.1L169.502 126.5V13.2L82.2016 20.8V134.1Z" fill="white"/>
<g opacity="0.3">
<path opacity="0.3" d="M145.102 117.1C139.802 104.4 146.702 108.7 142.402 93.7003C133.702 63.5003 99.4016 61.9003 92.7016 35.6003C91.4016 30.6003 90.9016 23.4003 93.9016 13.8003L76.1016 15.3003V139.8C76.1016 140.3 76.5016 140.7 77.0016 140.6L158.402 133.5C152.602 129.2 147.902 123.8 145.102 117.1Z" fill="white"/>
</g>
<path d="M108.502 70.2001L98.1016 71.3001L96.3016 77.5001L88.1016 78.4001L99.8016 45.2001L106.902 44.6001L118.302 75.1001L110.302 76.0001L108.502 70.2001ZM100.002 65.2001L106.802 64.5001L103.402 53.8001L100.002 65.2001Z" fill="white"/>
<path d="M133.898 62.7002L121.398 64.0002V58.4002L133.798 57.2002L133.898 62.7002Z" fill="white"/>
<path d="M147.502 66.2002L161.302 64.8002V70.4002L138.702 72.9002V69.0002L152.602 46.6002L138.602 47.8002V42.1002L161.202 40.2002V43.9002L147.502 66.2002Z" fill="white"/>
<path d="M175.505 6.2999C175.705 6.3999 175.705 6.5999 175.505 6.6999L78.2045 15.4999C75.0045 15.7999 71.8045 15.3999 68.8045 14.2999L60.4045 11.3999C59.2045 10.9999 59.5045 9.2999 60.7045 9.1999L158.305 0.899902C158.505 0.899902 158.705 0.899903 158.905 0.999903L159.905 1.2999C160.205 1.3999 160.505 1.6999 160.505 2.0999V3.7999L170.205 5.4999L172.805 5.2999H172.905L175.505 6.2999Z" fill="url(#paint1_linear_3397_2044)"/>
<path d="M160.302 2.19971L169.902 5.49971L74.6016 13.5997C74.3016 13.5997 74.0016 13.5997 73.7016 13.4997L65.5016 10.8997C65.3016 10.7997 65.3016 10.5997 65.5016 10.5997L160.302 2.19971Z" fill="white"/>
<path d="M254.598 96.0001C253.798 95.6001 253.398 94.8001 253.398 93.9001C253.398 93.0001 253.498 91.9001 253.898 91.8001C254.598 91.6001 258.798 94.3001 260.498 95.6001C262.198 96.9001 265.298 99.9001 265.298 100.9C265.298 101.7 257.598 97.6001 254.598 96.0001Z" fill="#053C5E"/>
<path d="M253.203 100.8L254.103 96.4002C254.203 95.7002 255.003 95.3002 255.703 95.5002C256.103 95.6002 256.303 96.0002 256.403 96.4002L257.403 102.1L253.203 100.8Z" fill="#A87C4F"/>
<path d="M235.594 101.3L235.794 96.8998L238.094 96.2998L239.094 101.2L235.594 101.3Z" fill="#A87C4F"/>
<path d="M235.296 98.9C236.596 100.4 241.696 96.9 243.896 95.5C245.296 94.6 245.896 93.2 245.796 92.2C245.596 91.2 243.496 91.7 241.496 92.9C240.396 93.6 237.496 94.6 235.996 95.8C234.796 96.9 234.696 98.2 235.296 98.9Z" fill="#053C5E"/>
<path d="M159.003 119.5C157.303 116 157.503 111.7 157.503 111.7C157.403 108.9 157.403 107.2 158.403 105.6C160.303 102.7 164.803 101.6 168.103 102.6C171.303 103.6 171.403 105.9 174.503 108.1C179.703 111.7 186.503 110.4 187.803 110.1C196.203 108.5 196.303 102.1 204.803 98.6998C205.403 98.4998 216.103 94.2998 224.703 100.2C232.003 105.2 235.303 115.8 231.703 124.2C227.703 133.6 215.903 137.9 208.503 136C205.603 135.3 202.403 133.3 197.503 134.1C194.503 134.5 193.003 135.7 191.303 136.4C181.403 140.4 164.603 131.2 159.003 119.5Z" fill="#231F20"/>
<path d="M162.796 122.4C161.396 122.8 161.496 124.8 158.396 129.1C156.796 131.4 155.496 133.2 153.496 134.5C147.496 138.6 140.896 133.9 137.396 137.9C136.496 139 135.496 140.9 136.096 142.4C137.296 145.1 143.096 144 162.796 142.4C170.796 141.8 172.796 141.7 173.796 140C177.196 134.8 166.896 121.2 162.796 122.4Z" fill="#63D6C4"/>
<path d="M139.7 141.7L171.3 142C171.7 142 172.1 142.2 172.4 142.6L173.3 144C173.8 144.7 173.3 145.6 172.5 145.6H139L139.7 141.7Z" fill="url(#paint2_linear_3397_2044)"/>
<path d="M106.2 125.4L138.8 124.7C139.8 124.7 140.7 125.2 141.2 126L153.3 145.4H118.8C117.9 145.4 117 144.9 116.5 144.1L105.3 127C104.8 126.4 105.3 125.4 106.2 125.4Z" fill="url(#paint3_linear_3397_2044)"/>
<path d="M141.203 126C140.703 125.2 139.803 124.7 138.803 124.7H138.103C138.003 125.8 137.703 126.7 137.103 127.5C135.203 130 131.803 128.6 129.403 131.3C126.803 134.2 129.403 137.5 127.103 140.2C124.603 143.1 120.403 141 115.703 142.9L116.403 144C116.903 144.8 117.803 145.3 118.703 145.3H153.203L141.203 126Z" fill="#0F3A5D"/>
<path d="M168.597 116.3C165.997 117.3 163.297 118.2 161.797 120.7C158.997 125.3 161.197 133.8 165.197 138.7C167.997 142.1 171.797 143.1 179.397 144.9C189.197 147.3 193.997 148.3 197.897 145.7C202.097 142.9 200.297 139.1 206.497 130.3C211.097 123.7 215.197 121.5 214.497 119.4C213.697 117 207.997 117.3 205.797 117.5C197.097 118 196.397 122 190.897 121.6C184.397 121.1 183.497 115.6 175.497 115.3C172.097 115.1 169.597 116 168.597 116.3Z" fill="url(#paint4_linear_3397_2044)"/>
<path d="M217.003 135.3C214.103 132.6 211.103 128 212.303 126.3C214.203 123.7 224.203 131.5 230.003 128.3C233.403 126.5 236.303 120.4 233.303 101C235.403 100.9 237.403 100.8 239.503 100.7C241.503 104.9 244.103 112 244.403 121C244.403 121.1 244.403 121.4 244.403 121.7C244.503 125.9 244.603 135.7 239.603 139.8C233.903 144.5 222.803 140.9 217.003 135.3Z" fill="#017C8B"/>
<path d="M207.401 122.9C208.601 122.3 209.601 122 210.701 122.2C213.501 122.7 214.301 125.9 216.901 128.7C220.201 132.2 224.601 133.1 225.901 133.4C233.601 135 240.201 130.6 241.301 129.8C241.401 129.7 241.501 129.7 241.601 129.6C254.301 120.6 251.701 100.8 251.601 99.8999C253.801 100.2 256.001 100.5 258.301 100.8C259.301 102.7 266.701 116.9 259.901 131.4C259.001 133.4 255.701 140 248.501 144.4C241.001 148.8 235.701 147 217.101 146.9C195.201 146.8 190.201 149.2 188.301 145.9C184.501 139.4 202.301 125.5 207.401 122.9Z" fill="#017C8B"/>
<path d="M168.605 116.8C166.005 117.8 163.305 118.7 161.805 121.2C159.005 125.8 161.205 134.3 165.205 139.2C168.005 142.6 171.805 143.6 179.405 145.4C189.205 147.8 194.005 148.8 197.905 146.2C202.105 143.4 200.305 139.6 206.505 130.8C211.105 124.2 215.205 122 214.505 119.9C213.705 117.5 208.005 117.8 205.805 118C197.105 118.5 196.405 122.5 190.905 122.1C184.405 121.6 183.505 116.1 175.505 115.8C172.105 115.6 169.605 116.4 168.605 116.8Z" fill="#63D6C4"/>
<path opacity="0.3" d="M199 133C195.5 135.1 193.2 132.3 185.7 132.1C175.5 131.8 172 136.9 166 134.5C164.5 133.9 162.8 132.8 161 130.6C161.7 133.7 163.2 136.8 165.1 139.1C167.9 142.5 171.7 143.5 179.3 145.3C189.1 147.7 193.9 148.7 197.8 146.1C202 143.3 200.2 139.5 206.4 130.7C211 124.1 215.1 121.9 214.4 119.8C214.2 119.3 213.9 119 213.4 118.7C209.5 119.3 206.9 120.8 205.2 122.6C201.6 126.5 202.8 130.8 199 133Z" fill="url(#paint5_linear_3397_2044)"/>
<path d="M166.206 118.2C165.506 118.6 164.206 119.3 163.806 120.2C163.006 121.9 164.506 125.1 166.406 125.4C167.906 125.7 168.506 123.8 172.306 120.8C175.706 118.1 178.006 117.5 177.806 116.6C177.706 116.1 176.606 115.5 171.906 115.6C171.206 114.7 169.306 113.1 168.606 112.2C167.606 112.4 167.706 113.2 166.706 113.4C168.406 115.6 168.506 116.6 168.206 117.1C167.806 117.6 167.406 117.5 166.206 118.2Z" fill="#A87C4F"/>
<path d="M168.806 112.3C168.806 112.3 168.906 115 166.806 116C164.906 116.9 162.106 112.4 162.906 110.9C163.106 110.4 163.906 109.8 164.606 109.6C165.106 109.5 167.306 109.4 168.006 111.1C168.206 110.6 168.506 110.2 168.906 110.2C169.006 110.2 169.106 110.2 169.306 110.3C169.706 110.6 169.606 111.4 168.806 112.3Z" fill="#A87C4F"/>
<path d="M158.201 142.5C157.801 142 159.001 139.4 161.301 138.4C163.701 137.4 166.101 138.7 166.501 138.9L166.301 140.7C165.201 140.7 163.601 140.7 161.801 141.2C159.501 142 158.501 142.9 158.201 142.5Z" fill="#A87C4F"/>
<path d="M166.305 138.4C167.505 138 169.305 137.4 171.705 137.1C176.205 136.4 177.805 137.2 179.905 136C181.805 134.9 183.405 132.5 183.505 130C183.605 125.8 178.905 123.8 179.005 118.5C179.005 117.4 179.305 117.1 179.405 116.9C181.205 115.3 189.505 119.4 193.405 126.1C194.305 127.7 198.205 135 194.805 141.1C190.905 148.1 180.105 149.2 173.005 146C169.705 144.5 167.505 142.3 166.305 140.7C166.405 140 166.305 139.2 166.305 138.4Z" fill="#63D6C4"/>
<defs>
<linearGradient id="paint0_linear_3397_2044" x1="39.557" y1="70.8439" x2="132.98" y2="86.2376" gradientUnits="userSpaceOnUse">
<stop stop-color="#FFBEA2"/>
<stop offset="0.9964" stop-color="#FF7C44"/>
</linearGradient>
<linearGradient id="paint1_linear_3397_2044" x1="161.248" y1="-38.3759" x2="66.8932" y2="62.4416" gradientUnits="userSpaceOnUse">
<stop stop-color="#FFBEA2"/>
<stop offset="0.9964" stop-color="#FF7C44"/>
</linearGradient>
<linearGradient id="paint2_linear_3397_2044" x1="173.531" y1="143.621" x2="139.017" y2="143.621" gradientUnits="userSpaceOnUse">
<stop stop-color="#315674"/>
<stop offset="0.9964" stop-color="#274E6D"/>
</linearGradient>
<linearGradient id="paint3_linear_3397_2044" x1="116.046" y1="123.378" x2="139.55" y2="144.928" gradientUnits="userSpaceOnUse">
<stop stop-color="#315674"/>
<stop offset="0.9964" stop-color="#274E6D"/>
</linearGradient>
<linearGradient id="paint4_linear_3397_2044" x1="179.1" y1="108.636" x2="203.161" y2="155.446" gradientUnits="userSpaceOnUse">
<stop stop-color="#7191AE"/>
<stop offset="0.9964" stop-color="#5E7B92"/>
</linearGradient>
<linearGradient id="paint5_linear_3397_2044" x1="179.104" y1="109.125" x2="203.165" y2="155.935" gradientUnits="userSpaceOnUse">
<stop stop-color="#7191AE"/>
<stop offset="0.9964" stop-color="#5E7B92"/>
</linearGradient>
</defs>
</svg>
