<svg width="360" height="200" viewBox="0 0 360 200" fill="none" xmlns="http://www.w3.org/2000/svg">
<path d="M149.401 66.4994C149.401 66.4994 129.201 44.9994 109.201 50.2994C103.001 74.3994 128.901 85.4994 128.901 85.4994L154.701 85.6994L149.401 66.4994Z" fill="#5C81A2"/>
<path d="M118.902 79.499L140.102 74.699L121.202 59.999L108.702 62.399L108.602 61.699L120.502 59.499L108.802 50.299L109.502 49.999L130.902 66.699L132.002 53.299L132.602 53.899L131.502 67.199L155.402 85.799L155.002 86.299L140.802 75.299L119.702 79.899L118.902 79.499Z" fill="white"/>
<path d="M146.203 82.4999C146.203 82.4999 122.103 77.5999 113.203 91.4999C127.803 121.9 166.903 105 166.903 105L146.203 82.4999Z" fill="#63C0C4"/>
<path d="M133.203 108.9L146.403 95.8998L113.203 91.7998V91.1998L133.403 93.6998L124.903 82.8998L125.703 82.7998L134.303 93.7998L161.703 97.0998L161.603 97.7998L147.203 95.9998L134.103 108.9H133.203Z" fill="white"/>
<path d="M161.402 67.2C161.402 67.2 156.402 38.1 135.302 33.5C114.702 64.5 146.402 83 146.402 83L161.402 67.2Z" fill="#FFBEA2"/>
<path d="M128.102 58.2998L128.202 57.5998L148.302 66.3998L137.802 32.9998L138.402 32.7998L145.902 56.4998L153.902 46.4998L154.102 47.2998L146.102 57.1998L152.202 76.4998L151.702 77.0998L148.602 67.1998L128.102 58.2998Z" fill="white"/>
<path d="M247.303 93.8992H236.403C235.403 93.8992 234.703 93.0992 234.703 92.1992V46.3992C234.703 45.3992 235.503 44.6992 236.403 44.6992H247.303C248.303 44.6992 249.003 45.4992 249.003 46.3992V92.1992C249.003 93.0992 248.203 93.8992 247.303 93.8992Z" fill="#FFBEA2"/>
<path d="M238.5 83.2994C238.5 81.3994 240 79.8994 241.9 79.8994C243.8 79.8994 245.3 81.3994 245.3 83.2994C245.3 85.1994 243.8 86.6994 241.9 86.6994C240 86.5994 238.5 85.0994 238.5 83.2994Z" fill="#879DAE"/>
<path d="M238.102 83.2996C238.102 81.2996 239.802 79.5996 241.802 79.5996C243.802 79.5996 245.502 81.2996 245.502 83.2996C245.502 85.2996 243.802 86.9996 241.802 86.9996C239.802 86.9996 238.102 85.2996 238.102 83.2996ZM238.802 83.2996C238.802 84.9996 240.102 86.2996 241.802 86.2996C243.502 86.2996 244.802 84.9996 244.802 83.2996C244.802 81.5996 243.502 80.2996 241.802 80.2996C240.202 80.2996 238.802 81.5996 238.802 83.2996Z" fill="white"/>
<g opacity="0.7">
<path opacity="0.7" d="M245.403 74.5994H238.303C237.903 74.5994 237.703 74.2994 237.703 73.9994V47.4994C237.703 47.0994 238.003 46.8994 238.303 46.8994H245.403C245.803 46.8994 246.003 47.1994 246.003 47.4994V73.8994C246.003 74.2994 245.803 74.5994 245.403 74.5994Z" fill="white"/>
</g>
<path d="M244.505 48.9994H239.305C239.005 48.9994 238.805 48.7994 238.805 48.4994V48.3994C238.805 48.0994 239.005 47.8994 239.305 47.8994H244.505C244.805 47.8994 245.005 48.0994 245.005 48.3994V48.4994C245.105 48.7994 244.805 48.9994 244.505 48.9994Z" fill="#F99746"/>
<path d="M240.803 65.5988V71.2988C240.803 71.4988 240.703 71.5988 240.503 71.5988C240.303 71.5988 240.203 71.4988 240.203 71.2988V65.5988C240.203 65.3988 240.303 65.2988 240.503 65.2988C240.603 65.2988 240.803 65.3988 240.803 65.5988Z" fill="#9DAEBD"/>
<path d="M240.803 57.6984V63.3984C240.803 63.5984 240.703 63.6984 240.503 63.6984C240.303 63.6984 240.203 63.5984 240.203 63.3984V57.6984C240.203 57.4984 240.303 57.3984 240.503 57.3984C240.603 57.4984 240.803 57.5984 240.803 57.6984Z" fill="#9DAEBD"/>
<path d="M244.006 65.5988V71.2988C244.006 71.4988 243.906 71.5988 243.706 71.5988C243.506 71.5988 243.406 71.4988 243.406 71.2988V65.5988C243.406 65.3988 243.506 65.2988 243.706 65.2988C243.806 65.2988 244.006 65.3988 244.006 65.5988Z" fill="#9DAEBD"/>
<path d="M244.006 57.6984V63.3984C244.006 63.5984 243.906 63.6984 243.706 63.6984C243.506 63.6984 243.406 63.5984 243.406 63.3984V57.6984C243.406 57.4984 243.506 57.3984 243.706 57.3984C243.806 57.4984 244.006 57.5984 244.006 57.6984Z" fill="#9DAEBD"/>
<path d="M242.303 63.9992V71.2992C242.303 71.4992 242.203 71.5992 242.003 71.5992C241.803 71.5992 241.703 71.4992 241.703 71.2992V63.9992C241.703 63.7992 241.803 63.6992 242.003 63.6992C242.203 63.6992 242.303 63.7992 242.303 63.9992Z" fill="#9DAEBD"/>
<path d="M242.303 54.0988V61.3988C242.303 61.5988 242.203 61.6988 242.003 61.6988C241.803 61.6988 241.703 61.5988 241.703 61.3988V54.0988C241.703 53.8988 241.803 53.7988 242.003 53.7988C242.203 53.7988 242.303 53.9988 242.303 54.0988Z" fill="#9DAEBD"/>
<path d="M301.998 93.8992H291.098C290.098 93.8992 289.398 93.0992 289.398 92.1992V46.3992C289.398 45.3992 290.198 44.6992 291.098 44.6992H301.998C302.998 44.6992 303.698 45.4992 303.698 46.3992V92.1992C303.798 93.0992 302.998 93.8992 301.998 93.8992Z" fill="#FFBEA2"/>
<path d="M293.297 83.2994C293.297 81.3994 294.797 79.8994 296.697 79.8994C298.597 79.8994 300.097 81.3994 300.097 83.2994C300.097 85.1994 298.597 86.6994 296.697 86.6994C294.797 86.5994 293.297 85.0994 293.297 83.2994Z" fill="#879DAE"/>
<path d="M292.898 83.2996C292.898 81.2996 294.598 79.5996 296.598 79.5996C298.598 79.5996 300.298 81.2996 300.298 83.2996C300.298 85.2996 298.598 86.9996 296.598 86.9996C294.598 86.9996 292.898 85.2996 292.898 83.2996ZM293.598 83.2996C293.598 84.9996 294.898 86.2996 296.598 86.2996C298.298 86.2996 299.598 84.9996 299.598 83.2996C299.598 81.5996 298.298 80.2996 296.598 80.2996C294.898 80.2996 293.598 81.5996 293.598 83.2996Z" fill="white"/>
<g opacity="0.7">
<path opacity="0.7" d="M300.2 74.5994H293.1C292.7 74.5994 292.5 74.2994 292.5 73.9994V47.4994C292.5 47.0994 292.8 46.8994 293.1 46.8994H300.2C300.6 46.8994 300.8 47.1994 300.8 47.4994V73.8994C300.8 74.2994 300.5 74.5994 300.2 74.5994Z" fill="white"/>
</g>
<path d="M299.302 48.9994H294.102C293.802 48.9994 293.602 48.7994 293.602 48.4994V48.3994C293.602 48.0994 293.802 47.8994 294.102 47.8994H299.302C299.602 47.8994 299.802 48.0994 299.802 48.3994V48.4994C299.802 48.7994 299.602 48.9994 299.302 48.9994Z" fill="#F99746"/>
<path d="M295.498 65.5988V71.2988C295.498 71.4988 295.398 71.5988 295.198 71.5988C294.998 71.5988 294.898 71.4988 294.898 71.2988V65.5988C294.898 65.3988 294.998 65.2988 295.198 65.2988C295.398 65.2988 295.498 65.3988 295.498 65.5988Z" fill="#9DAEBD"/>
<path d="M295.498 57.6984V63.3984C295.498 63.5984 295.398 63.6984 295.198 63.6984C294.998 63.6984 294.898 63.5984 294.898 63.3984V57.6984C294.898 57.4984 294.998 57.3984 295.198 57.3984C295.398 57.4984 295.498 57.5984 295.498 57.6984Z" fill="#9DAEBD"/>
<path d="M298.702 65.5988V71.2988C298.702 71.4988 298.602 71.5988 298.402 71.5988C298.202 71.5988 298.102 71.4988 298.102 71.2988V65.5988C298.102 65.3988 298.202 65.2988 298.402 65.2988C298.602 65.2988 298.702 65.3988 298.702 65.5988Z" fill="#9DAEBD"/>
<path d="M298.702 57.6984V63.3984C298.702 63.5984 298.602 63.6984 298.402 63.6984C298.202 63.6984 298.102 63.5984 298.102 63.3984V57.6984C298.102 57.4984 298.202 57.3984 298.402 57.3984C298.602 57.4984 298.702 57.5984 298.702 57.6984Z" fill="#9DAEBD"/>
<path d="M297.1 63.9992V71.2992C297.1 71.4992 297 71.5992 296.8 71.5992C296.6 71.5992 296.5 71.4992 296.5 71.2992V63.9992C296.5 63.7992 296.6 63.6992 296.8 63.6992C296.9 63.6992 297.1 63.7992 297.1 63.9992Z" fill="#9DAEBD"/>
<path d="M297.1 54.0988V61.3988C297.1 61.5988 297 61.6988 296.8 61.6988C296.6 61.6988 296.5 61.5988 296.5 61.3988V54.0988C296.5 53.8988 296.6 53.7988 296.8 53.7988C296.9 53.7988 297.1 53.9988 297.1 54.0988Z" fill="#9DAEBD"/>
<path d="M284.202 93.8992H273.302C272.302 93.8992 271.602 93.0992 271.602 92.1992V46.3992C271.602 45.3992 272.402 44.6992 273.302 44.6992H284.202C285.202 44.6992 285.902 45.4992 285.902 46.3992V92.1992C285.902 93.0992 285.102 93.8992 284.202 93.8992Z" fill="#FFBEA2"/>
<path d="M275.398 83.2994C275.398 81.3994 276.898 79.8994 278.798 79.8994C280.698 79.8994 282.198 81.3994 282.198 83.2994C282.198 85.1994 280.698 86.6994 278.798 86.6994C276.898 86.5994 275.398 85.0994 275.398 83.2994Z" fill="#879DAE"/>
<path d="M275 83.2996C275 81.2996 276.7 79.5996 278.7 79.5996C280.7 79.5996 282.4 81.2996 282.4 83.2996C282.4 85.2996 280.7 86.9996 278.7 86.9996C276.7 86.9996 275 85.2996 275 83.2996ZM275.7 83.2996C275.7 84.9996 277 86.2996 278.7 86.2996C280.4 86.2996 281.7 84.9996 281.7 83.2996C281.7 81.5996 280.4 80.2996 278.7 80.2996C277.1 80.2996 275.7 81.5996 275.7 83.2996Z" fill="white"/>
<g opacity="0.7">
<path opacity="0.7" d="M282.302 74.5994H275.202C274.802 74.5994 274.602 74.2994 274.602 73.9994V47.4994C274.602 47.0994 274.902 46.8994 275.202 46.8994H282.302C282.702 46.8994 282.902 47.1994 282.902 47.4994V73.8994C282.902 74.2994 282.602 74.5994 282.302 74.5994Z" fill="white"/>
</g>
<path d="M281.403 48.9994H276.203C275.903 48.9994 275.703 48.7994 275.703 48.4994V48.3994C275.703 48.0994 275.903 47.8994 276.203 47.8994H281.403C281.703 47.8994 281.903 48.0994 281.903 48.3994V48.4994C282.003 48.7994 281.703 48.9994 281.403 48.9994Z" fill="#F99746"/>
<path d="M277.702 65.5988V71.2988C277.702 71.4988 277.602 71.5988 277.402 71.5988C277.202 71.5988 277.102 71.4988 277.102 71.2988V65.5988C277.102 65.3988 277.202 65.2988 277.402 65.2988C277.502 65.2988 277.702 65.3988 277.702 65.5988Z" fill="#9DAEBD"/>
<path d="M277.702 57.6984V63.3984C277.702 63.5984 277.602 63.6984 277.402 63.6984C277.202 63.6984 277.102 63.5984 277.102 63.3984V57.6984C277.102 57.4984 277.202 57.3984 277.402 57.3984C277.502 57.4984 277.702 57.5984 277.702 57.6984Z" fill="#9DAEBD"/>
<path d="M280.803 65.5988V71.2988C280.803 71.4988 280.703 71.5988 280.503 71.5988C280.303 71.5988 280.203 71.4988 280.203 71.2988V65.5988C280.203 65.3988 280.303 65.2988 280.503 65.2988C280.703 65.2988 280.803 65.3988 280.803 65.5988Z" fill="#9DAEBD"/>
<path d="M280.803 57.6984V63.3984C280.803 63.5984 280.703 63.6984 280.503 63.6984C280.303 63.6984 280.203 63.5984 280.203 63.3984V57.6984C280.203 57.4984 280.303 57.3984 280.503 57.3984C280.703 57.4984 280.803 57.5984 280.803 57.6984Z" fill="#9DAEBD"/>
<path d="M279.202 63.9992V71.2992C279.202 71.4992 279.102 71.5992 278.902 71.5992C278.702 71.5992 278.602 71.4992 278.602 71.2992V63.9992C278.602 63.7992 278.702 63.6992 278.902 63.6992C279.102 63.6992 279.202 63.7992 279.202 63.9992Z" fill="#9DAEBD"/>
<path d="M279.202 54.0988V61.3988C279.202 61.5988 279.102 61.6988 278.902 61.6988C278.702 61.6988 278.602 61.5988 278.602 61.3988V54.0988C278.602 53.8988 278.702 53.7988 278.902 53.7988C279.102 53.7988 279.202 53.9988 279.202 54.0988Z" fill="#9DAEBD"/>
<path d="M265.998 93.8992H255.098C254.098 93.8992 253.398 93.0992 253.398 92.1992V46.3992C253.398 45.3992 254.198 44.6992 255.098 44.6992H265.998C266.998 44.6992 267.698 45.4992 267.698 46.3992V92.1992C267.698 93.0992 266.898 93.8992 265.998 93.8992Z" fill="#FFBEA2"/>
<path d="M257.195 83.2994C257.195 81.3994 258.695 79.8994 260.595 79.8994C262.495 79.8994 263.995 81.3994 263.995 83.2994C263.995 85.1994 262.495 86.6994 260.595 86.6994C258.695 86.5994 257.195 85.0994 257.195 83.2994Z" fill="#879DAE"/>
<path d="M256.797 83.2996C256.797 81.2996 258.497 79.5996 260.497 79.5996C262.497 79.5996 264.197 81.2996 264.197 83.2996C264.197 85.2996 262.497 86.9996 260.497 86.9996C258.497 86.9996 256.797 85.2996 256.797 83.2996ZM257.497 83.2996C257.497 84.9996 258.797 86.2996 260.497 86.2996C262.197 86.2996 263.497 84.9996 263.497 83.2996C263.497 81.5996 262.197 80.2996 260.497 80.2996C258.897 80.2996 257.497 81.5996 257.497 83.2996Z" fill="white"/>
<g opacity="0.7">
<path opacity="0.7" d="M264.098 74.5994H256.998C256.598 74.5994 256.398 74.2994 256.398 73.9994V47.4994C256.398 47.0994 256.698 46.8994 256.998 46.8994H264.098C264.498 46.8994 264.698 47.1994 264.698 47.4994V73.8994C264.698 74.2994 264.398 74.5994 264.098 74.5994Z" fill="white"/>
</g>
<path d="M263.2 48.9994H258C257.7 48.9994 257.5 48.7994 257.5 48.4994V48.3994C257.5 48.0994 257.7 47.8994 258 47.8994H263.2C263.5 47.8994 263.7 48.0994 263.7 48.3994V48.4994C263.7 48.7994 263.5 48.9994 263.2 48.9994Z" fill="#F99746"/>
<path d="M259.397 65.5988V71.2988C259.397 71.4988 259.297 71.5988 259.097 71.5988C258.897 71.5988 258.797 71.4988 258.797 71.2988V65.5988C258.797 65.3988 258.897 65.2988 259.097 65.2988C259.297 65.2988 259.397 65.3988 259.397 65.5988Z" fill="#9DAEBD"/>
<path d="M259.397 57.6984V63.3984C259.397 63.5984 259.297 63.6984 259.097 63.6984C258.897 63.6984 258.797 63.5984 258.797 63.3984V57.6984C258.797 57.4984 258.897 57.3984 259.097 57.3984C259.297 57.4984 259.397 57.5984 259.397 57.6984Z" fill="#9DAEBD"/>
<path d="M262.6 65.5988V71.2988C262.6 71.4988 262.5 71.5988 262.3 71.5988C262.1 71.5988 262 71.4988 262 71.2988V65.5988C262 65.3988 262.1 65.2988 262.3 65.2988C262.5 65.2988 262.6 65.3988 262.6 65.5988Z" fill="#9DAEBD"/>
<path d="M262.6 57.6984V63.3984C262.6 63.5984 262.5 63.6984 262.3 63.6984C262.1 63.6984 262 63.5984 262 63.3984V57.6984C262 57.4984 262.1 57.3984 262.3 57.3984C262.5 57.4984 262.6 57.5984 262.6 57.6984Z" fill="#9DAEBD"/>
<path d="M260.998 63.9992V71.2992C260.998 71.4992 260.898 71.5992 260.698 71.5992C260.498 71.5992 260.398 71.4992 260.398 71.2992V63.9992C260.398 63.7992 260.498 63.6992 260.698 63.6992C260.798 63.6992 260.998 63.7992 260.998 63.9992Z" fill="#9DAEBD"/>
<path d="M260.998 54.0988V61.3988C260.998 61.5988 260.898 61.6988 260.698 61.6988C260.498 61.6988 260.398 61.5988 260.398 61.3988V54.0988C260.398 53.8988 260.498 53.7988 260.698 53.7988C260.798 53.7988 260.998 53.9988 260.998 54.0988Z" fill="#9DAEBD"/>
<path d="M229.1 93.8992H218.2C217.2 93.8992 216.5 93.0992 216.5 92.1992V46.3992C216.5 45.3992 217.3 44.6992 218.2 44.6992H229.1C230.1 44.6992 230.8 45.4992 230.8 46.3992V92.1992C230.8 93.0992 230 93.8992 229.1 93.8992Z" fill="#FFBEA2"/>
<path opacity="0.7" d="M227.2 74.5994H220.1C219.7 74.5994 219.5 74.2994 219.5 73.9994V47.4994C219.5 47.0994 219.8 46.8994 220.1 46.8994H227.2C227.6 46.8994 227.8 47.1994 227.8 47.4994V73.8994C227.8 74.2994 227.6 74.5994 227.2 74.5994Z" fill="white"/>
<path d="M226.403 48.9994H221.203C220.903 48.9994 220.703 48.7994 220.703 48.4994V48.3994C220.703 48.0994 220.903 47.8994 221.203 47.8994H226.403C226.703 47.8994 226.903 48.0994 226.903 48.3994V48.4994C226.903 48.7994 226.603 48.9994 226.403 48.9994Z" fill="#F99746"/>
<path d="M301.998 149.5H291.098C290.098 149.5 289.398 148.7 289.398 147.8V102C289.398 101 290.198 100.3 291.098 100.3H301.998C302.998 100.3 303.698 101.1 303.698 102V147.8C303.798 148.8 302.998 149.5 301.998 149.5Z" fill="#63C0C4"/>
<path d="M296.595 142.3C298.473 142.3 299.995 140.778 299.995 138.9C299.995 137.022 298.473 135.5 296.595 135.5C294.718 135.5 293.195 137.022 293.195 138.9C293.195 140.778 294.718 142.3 296.595 142.3Z" fill="#9DAEBD"/>
<path d="M292.898 138.9C292.898 136.9 294.598 135.2 296.598 135.2C298.598 135.2 300.298 136.9 300.298 138.9C300.298 140.9 298.598 142.6 296.598 142.6C294.598 142.7 292.898 141 292.898 138.9ZM293.598 138.9C293.598 140.6 294.898 141.9 296.598 141.9C298.298 141.9 299.598 140.6 299.598 138.9C299.598 137.2 298.298 135.9 296.598 135.9C294.898 135.9 293.598 137.3 293.598 138.9Z" fill="white"/>
<g opacity="0.7">
<path opacity="0.7" d="M300.2 130.2H293.1C292.7 130.2 292.5 129.9 292.5 129.6V103.2C292.5 102.8 292.8 102.6 293.1 102.6H300.2C300.6 102.6 300.8 102.9 300.8 103.2V129.6C300.8 130 300.5 130.2 300.2 130.2Z" fill="white"/>
</g>
<path d="M299.302 104.7H294.102C293.802 104.7 293.602 104.5 293.602 104.2V104.1C293.602 103.8 293.802 103.6 294.102 103.6H299.302C299.602 103.6 299.802 103.8 299.802 104.1V104.2C299.802 104.5 299.602 104.7 299.302 104.7Z" fill="#F99746"/>
<path d="M295.498 121.3V127C295.498 127.2 295.398 127.3 295.198 127.3C294.998 127.3 294.898 127.2 294.898 127V121.3C294.898 121.1 294.998 121 295.198 121C295.398 121 295.498 121.1 295.498 121.3Z" fill="#9DAEBD"/>
<path d="M295.498 113.4V119.1C295.498 119.3 295.398 119.4 295.198 119.4C294.998 119.4 294.898 119.3 294.898 119.1V113.4C294.898 113.2 294.998 113.1 295.198 113.1C295.398 113.1 295.498 113.3 295.498 113.4Z" fill="#9DAEBD"/>
<path d="M298.702 121.3V127C298.702 127.2 298.602 127.3 298.402 127.3C298.202 127.3 298.102 127.2 298.102 127V121.3C298.102 121.1 298.202 121 298.402 121C298.602 121 298.702 121.1 298.702 121.3Z" fill="#9DAEBD"/>
<path d="M298.702 113.4V119.1C298.702 119.3 298.602 119.4 298.402 119.4C298.202 119.4 298.102 119.3 298.102 119.1V113.4C298.102 113.2 298.202 113.1 298.402 113.1C298.602 113.1 298.702 113.3 298.702 113.4Z" fill="#9DAEBD"/>
<path d="M297.1 119.6V126.9C297.1 127.1 297 127.2 296.8 127.2C296.6 127.2 296.5 127.1 296.5 126.9V119.6C296.5 119.4 296.6 119.3 296.8 119.3C296.9 119.4 297.1 119.5 297.1 119.6Z" fill="#9DAEBD"/>
<path d="M297.1 109.8V117.1C297.1 117.3 297 117.4 296.8 117.4C296.6 117.4 296.5 117.3 296.5 117.1V109.8C296.5 109.6 296.6 109.5 296.8 109.5C296.9 109.5 297.1 109.6 297.1 109.8Z" fill="#9DAEBD"/>
<path d="M284.202 149.5H273.302C272.302 149.5 271.602 148.7 271.602 147.8V102C271.602 101 272.402 100.3 273.302 100.3H284.202C285.202 100.3 285.902 101.1 285.902 102V147.8C285.902 148.8 285.102 149.5 284.202 149.5Z" fill="#63C0C4"/>
<path d="M275.398 138.9C275.398 137 276.898 135.5 278.798 135.5C280.698 135.5 282.198 137 282.198 138.9C282.198 140.8 280.698 142.3 278.798 142.3C276.898 142.3 275.398 140.8 275.398 138.9Z" fill="#9DAEBD"/>
<path d="M275 138.9C275 136.9 276.7 135.2 278.7 135.2C280.7 135.2 282.4 136.9 282.4 138.9C282.4 140.9 280.7 142.6 278.7 142.6C276.7 142.7 275 141 275 138.9ZM275.7 138.9C275.7 140.6 277 141.9 278.7 141.9C280.4 141.9 281.7 140.6 281.7 138.9C281.7 137.2 280.4 135.9 278.7 135.9C277.1 135.9 275.7 137.3 275.7 138.9Z" fill="white"/>
<g opacity="0.7">
<path opacity="0.7" d="M282.302 130.2H275.202C274.802 130.2 274.602 129.9 274.602 129.6V103.2C274.602 102.8 274.902 102.6 275.202 102.6H282.302C282.702 102.6 282.902 102.9 282.902 103.2V129.6C282.902 130 282.602 130.2 282.302 130.2Z" fill="white"/>
</g>
<path d="M281.403 104.7H276.203C275.903 104.7 275.703 104.5 275.703 104.2V104.1C275.703 103.8 275.903 103.6 276.203 103.6H281.403C281.703 103.6 281.903 103.8 281.903 104.1V104.2C282.003 104.5 281.703 104.7 281.403 104.7Z" fill="#F99746"/>
<path d="M277.702 121.3V127C277.702 127.2 277.602 127.3 277.402 127.3C277.202 127.3 277.102 127.2 277.102 127V121.3C277.102 121.1 277.202 121 277.402 121C277.502 121 277.702 121.1 277.702 121.3Z" fill="#505ABA"/>
<path d="M277.702 113.4V119.1C277.702 119.3 277.602 119.4 277.402 119.4C277.202 119.4 277.102 119.3 277.102 119.1V113.4C277.102 113.2 277.202 113.1 277.402 113.1C277.502 113.1 277.702 113.3 277.702 113.4Z" fill="#9DAEBD"/>
<path d="M280.803 121.3V127C280.803 127.2 280.703 127.3 280.503 127.3C280.303 127.3 280.203 127.2 280.203 127V121.3C280.203 121.1 280.303 121 280.503 121C280.703 121 280.803 121.1 280.803 121.3Z" fill="#505ABA"/>
<path d="M280.803 113.4V119.1C280.803 119.3 280.703 119.4 280.503 119.4C280.303 119.4 280.203 119.3 280.203 119.1V113.4C280.203 113.2 280.303 113.1 280.503 113.1C280.703 113.1 280.803 113.3 280.803 113.4Z" fill="#9DAEBD"/>
<path d="M279.202 119.6V126.9C279.202 127.1 279.102 127.2 278.902 127.2C278.702 127.2 278.602 127.1 278.602 126.9V119.6C278.602 119.4 278.702 119.3 278.902 119.3C279.102 119.4 279.202 119.5 279.202 119.6Z" fill="#505ABA"/>
<path d="M279.202 109.8V117.1C279.202 117.3 279.102 117.4 278.902 117.4C278.702 117.4 278.602 117.3 278.602 117.1V109.8C278.602 109.6 278.702 109.5 278.902 109.5C279.102 109.5 279.202 109.6 279.202 109.8Z" fill="#9DAEBD"/>
<path d="M265.905 149.5H255.005C254.005 149.5 253.305 148.7 253.305 147.8V102C253.305 101 254.105 100.3 255.005 100.3H265.905C266.905 100.3 267.605 101.1 267.605 102V147.8C267.705 148.8 266.905 149.5 265.905 149.5Z" fill="#63C0C4"/>
<path d="M260.502 142.3C262.379 142.3 263.902 140.778 263.902 138.9C263.902 137.022 262.379 135.5 260.502 135.5C258.624 135.5 257.102 137.022 257.102 138.9C257.102 140.778 258.624 142.3 260.502 142.3Z" fill="#9DAEBD"/>
<path d="M256.805 138.9C256.805 136.9 258.505 135.2 260.505 135.2C262.505 135.2 264.205 136.9 264.205 138.9C264.205 140.9 262.505 142.6 260.505 142.6C258.505 142.7 256.805 141 256.805 138.9ZM257.505 138.9C257.505 140.6 258.805 141.9 260.505 141.9C262.205 141.9 263.505 140.6 263.505 138.9C263.505 137.2 262.205 135.9 260.505 135.9C258.805 135.9 257.505 137.3 257.505 138.9Z" fill="white"/>
<g opacity="0.7">
<path opacity="0.7" d="M264.106 130.2H257.006C256.606 130.2 256.406 129.9 256.406 129.6V103.2C256.406 102.8 256.706 102.6 257.006 102.6H264.106C264.506 102.6 264.706 102.9 264.706 103.2V129.6C264.706 130 264.406 130.2 264.106 130.2Z" fill="white"/>
</g>
<path d="M263.208 104.7H258.008C257.708 104.7 257.508 104.5 257.508 104.2V104.1C257.508 103.8 257.708 103.6 258.008 103.6H263.208C263.508 103.6 263.708 103.8 263.708 104.1V104.2C263.708 104.5 263.508 104.7 263.208 104.7Z" fill="#F99746"/>
<path d="M259.405 121.3V127C259.405 127.2 259.305 127.3 259.105 127.3C258.905 127.3 258.805 127.2 258.805 127V121.3C258.805 121.1 258.905 121 259.105 121C259.305 121 259.405 121.1 259.405 121.3Z" fill="#9DAEBD"/>
<path d="M259.405 113.4V119.1C259.405 119.3 259.305 119.4 259.105 119.4C258.905 119.4 258.805 119.3 258.805 119.1V113.4C258.805 113.2 258.905 113.1 259.105 113.1C259.305 113.1 259.405 113.3 259.405 113.4Z" fill="#9DAEBD"/>
<path d="M262.608 121.3V127C262.608 127.2 262.508 127.3 262.308 127.3C262.108 127.3 262.008 127.2 262.008 127V121.3C262.008 121.1 262.108 121 262.308 121C262.508 121 262.608 121.1 262.608 121.3Z" fill="#9DAEBD"/>
<path d="M262.608 113.4V119.1C262.608 119.3 262.508 119.4 262.308 119.4C262.108 119.4 262.008 119.3 262.008 119.1V113.4C262.008 113.2 262.108 113.1 262.308 113.1C262.508 113.1 262.608 113.3 262.608 113.4Z" fill="#9DAEBD"/>
<path d="M261.006 119.6V126.9C261.006 127.1 260.906 127.2 260.706 127.2C260.506 127.2 260.406 127.1 260.406 126.9V119.6C260.406 119.4 260.506 119.3 260.706 119.3C260.806 119.4 261.006 119.5 261.006 119.6Z" fill="#9DAEBD"/>
<path d="M261.006 109.8V117.1C261.006 117.3 260.906 117.4 260.706 117.4C260.506 117.4 260.406 117.3 260.406 117.1V109.8C260.406 109.6 260.506 109.5 260.706 109.5C260.806 109.5 261.006 109.6 261.006 109.8Z" fill="#9DAEBD"/>
<path d="M248.1 149.5H237.2C236.2 149.5 235.5 148.7 235.5 147.8V102C235.5 101 236.3 100.3 237.2 100.3H248.1C249.1 100.3 249.8 101.1 249.8 102V147.8C249.8 148.8 249 149.5 248.1 149.5Z" fill="#63C0C4"/>
<path d="M239.297 138.9C239.297 137 240.797 135.5 242.697 135.5C244.597 135.5 246.097 137 246.097 138.9C246.097 140.8 244.597 142.3 242.697 142.3C240.797 142.3 239.297 140.8 239.297 138.9Z" fill="#9DAEBD"/>
<path d="M238.898 138.9C238.898 136.9 240.598 135.2 242.598 135.2C244.598 135.2 246.298 136.9 246.298 138.9C246.298 140.9 244.598 142.6 242.598 142.6C240.598 142.7 238.898 141 238.898 138.9ZM239.598 138.9C239.598 140.6 240.898 141.9 242.598 141.9C244.298 141.9 245.598 140.6 245.598 138.9C245.598 137.2 244.298 135.9 242.598 135.9C240.998 135.9 239.598 137.3 239.598 138.9Z" fill="white"/>
<g opacity="0.7">
<path opacity="0.7" d="M246.2 130.2H239.1C238.7 130.2 238.5 129.9 238.5 129.6V103.2C238.5 102.8 238.8 102.6 239.1 102.6H246.2C246.6 102.6 246.8 102.9 246.8 103.2V129.6C246.8 130 246.5 130.2 246.2 130.2Z" fill="white"/>
</g>
<path d="M245.302 104.7H240.102C239.802 104.7 239.602 104.5 239.602 104.2V104.1C239.602 103.8 239.802 103.6 240.102 103.6H245.302C245.602 103.6 245.802 103.8 245.802 104.1V104.2C245.802 104.5 245.602 104.7 245.302 104.7Z" fill="#F99746"/>
<path d="M241.6 121.3V127C241.6 127.2 241.5 127.3 241.3 127.3C241.1 127.3 241 127.2 241 127V121.3C241 121.1 241.1 121 241.3 121C241.4 121 241.6 121.1 241.6 121.3Z" fill="#9DAEBD"/>
<path d="M241.6 113.4V119.1C241.6 119.3 241.5 119.4 241.3 119.4C241.1 119.4 241 119.3 241 119.1V113.4C241 113.2 241.1 113.1 241.3 113.1C241.4 113.1 241.6 113.3 241.6 113.4Z" fill="#9DAEBD"/>
<path d="M244.702 121.3V127C244.702 127.2 244.602 127.3 244.402 127.3C244.202 127.3 244.102 127.2 244.102 127V121.3C244.102 121.1 244.202 121 244.402 121C244.602 121 244.702 121.1 244.702 121.3Z" fill="#9DAEBD"/>
<path d="M244.702 113.4V119.1C244.702 119.3 244.602 119.4 244.402 119.4C244.202 119.4 244.102 119.3 244.102 119.1V113.4C244.102 113.2 244.202 113.1 244.402 113.1C244.602 113.1 244.702 113.3 244.702 113.4Z" fill="#9DAEBD"/>
<path d="M243.1 119.6V126.9C243.1 127.1 243 127.2 242.8 127.2C242.6 127.2 242.5 127.1 242.5 126.9V119.6C242.5 119.4 242.6 119.3 242.8 119.3C243 119.4 243.1 119.5 243.1 119.6Z" fill="#9DAEBD"/>
<path d="M243.1 109.8V117.1C243.1 117.3 243 117.4 242.8 117.4C242.6 117.4 242.5 117.3 242.5 117.1V109.8C242.5 109.6 242.6 109.5 242.8 109.5C243 109.5 243.1 109.6 243.1 109.8Z" fill="#9DAEBD"/>
<path d="M229.1 149.5H218.2C217.2 149.5 216.5 148.7 216.5 147.8V102C216.5 101 217.3 100.3 218.2 100.3H229.1C230.1 100.3 230.8 101.1 230.8 102V147.8C230.8 148.8 230 149.5 229.1 149.5Z" fill="#8C9DF4"/>
<path d="M307.598 178.399C308.598 178.399 309.298 177.599 309.298 176.699V39.5994C309.298 38.5994 308.498 37.8994 307.598 37.8994C306.598 37.8994 305.898 38.6994 305.898 39.5994V176.699C305.898 177.599 306.698 178.399 307.598 178.399Z" fill="#D1DAE0"/>
<path d="M309.405 93.8994H209.805V95.2994H309.405V93.8994Z" fill="#D1DAE0"/>
<path d="M309.402 149.5H203.602V150.9H309.402V149.5Z" fill="#D1DAE0"/>
<path d="M43.8031 126.8H35.7031V153.1H43.8031V126.8Z" fill="#FFBEA2"/>
<path d="M63.4047 126.8H43.8047V153.1H63.4047V126.8Z" fill="#F77D48"/>
<path d="M38.3984 130.1C38.3984 129.3 38.9984 128.7 39.7984 128.7C40.5984 128.7 41.1984 129.3 41.1984 130.1C41.1984 130.9 40.5984 131.5 39.7984 131.5C38.9984 131.4 38.3984 130.8 38.3984 130.1Z" fill="white"/>
<path d="M38.8047 130.1C38.8047 129.6 39.2047 129.1 39.8047 129.1C40.3047 129.1 40.8047 129.5 40.8047 130.1C40.8047 130.6 40.4047 131.1 39.8047 131.1C39.2047 131 38.8047 130.6 38.8047 130.1Z" fill="#9DAEBD"/>
<g opacity="0.7">
<path opacity="0.7" d="M41.6984 133.3H37.8984V140.2H41.6984V133.3Z" fill="white"/>
</g>
<path d="M58.9984 126.8H50.8984V153.1H58.9984V126.8Z" fill="#FFBEA2"/>
<path d="M78.6 126.8H59V153.1H78.6V126.8Z" fill="#F77D48"/>
<path d="M53.6016 130.1C53.6016 129.3 54.2016 128.7 55.0016 128.7C55.8016 128.7 56.4016 129.3 56.4016 130.1C56.4016 130.9 55.8016 131.5 55.0016 131.5C54.2016 131.4 53.6016 130.8 53.6016 130.1Z" fill="white"/>
<path d="M54 130.1C54 129.6 54.4 129.1 55 129.1C55.5 129.1 56 129.5 56 130.1C56 130.6 55.6 131.1 55 131.1C54.4 131 54 130.6 54 130.1Z" fill="#9DAEBD"/>
<g opacity="0.7">
<path opacity="0.7" d="M56.9016 133.3H53.1016V140.2H56.9016V133.3Z" fill="white"/>
</g>
<path d="M72.9047 126.8H64.8047V153.1H72.9047V126.8Z" fill="#FFBEA2"/>
<path d="M92.4047 126.8H72.8047V153.1H92.4047V126.8Z" fill="#F77D48"/>
<path d="M67.3047 130.1C67.3047 129.3 67.9047 128.7 68.7047 128.7C69.5047 128.7 70.1047 129.3 70.1047 130.1C70.1047 130.9 69.5047 131.5 68.7047 131.5C67.9047 131.4 67.3047 130.8 67.3047 130.1Z" fill="white"/>
<path d="M67.7031 130.1C67.7031 129.6 68.1031 129.1 68.7031 129.1C69.2031 129.1 69.7031 129.5 69.7031 130.1C69.7031 130.6 69.3031 131.1 68.7031 131.1C68.2031 131 67.7031 130.6 67.7031 130.1Z" fill="#9DAEBD"/>
<g opacity="0.7">
<path opacity="0.7" d="M70.8 133.3H67V140.2H70.8V133.3Z" fill="white"/>
</g>
<path d="M93.8047 143.899H47.8047V177.899H93.8047V143.899Z" fill="#00666B"/>
<path d="M69.1016 143.899H32.6016V177.899H69.1016V143.899Z" fill="#63C0C4"/>
<path d="M53.5 149.4H44.1C43.5 149.4 43 148.9 43 148.3V148.2C43 147.6 43.5 147.1 44.1 147.1H53.5C54.1 147.1 54.6 147.6 54.6 148.2V148.3C54.6 149 54.1 149.4 53.5 149.4Z" fill="#2C3A64"/>
<path d="M212.703 99.4994L218.903 173.499C218.903 173.499 219.603 177.999 216.203 177.999C210.703 177.999 188.903 177.999 188.903 177.999C188.903 177.999 193.003 177.099 193.003 174.999C192.903 172.499 185.703 98.8994 185.703 98.8994L212.703 99.4994Z" fill="#212B53"/>
<path d="M186.803 176.599C187.903 176.599 209.003 176.599 214.303 176.599C216.603 176.599 217.003 174.499 217.103 173.199C217.103 172.599 217.003 172.099 217.003 172.099L216.803 170.199L216.403 165.299L216.003 160.999L215.503 155.399L215.103 150.699L210.703 98.0994L183.703 97.3994C183.703 97.3994 186.703 128.199 188.903 150.699C189.103 153.199 189.403 155.599 189.603 157.799C189.703 158.499 189.703 159.199 189.803 159.899C190.003 161.999 190.203 163.999 190.303 165.699C190.403 166.599 190.503 167.499 190.503 168.199C190.803 171.199 190.903 173.199 190.903 173.499C190.903 173.699 190.903 173.899 190.803 174.099C190.703 176.499 187.303 176.599 186.803 176.599Z" fill="#658197"/>
<path d="M278.103 59.1992L263.003 120.099L260.903 128.399L253.803 156.699H122.703L148.703 59.1992H278.103Z" fill="#658197"/>
<path d="M278.105 59.1992L280.205 59.8992L256.605 158.899L253.805 156.699L278.105 59.1992Z" fill="#212B53"/>
<path d="M256.603 158.899H126.303L122.703 156.699H253.803L256.603 158.899Z" fill="#212B53"/>
<path d="M180.802 176.6H152.602V177.9H180.802V176.6Z" fill="#212B53"/>
<path d="M159.805 158.899L160.005 159.899L186.505 165.199L186.105 160.899L186.005 158.899H159.805Z" fill="#658197"/>
<g opacity="0.5">
<path opacity="0.5" d="M186.805 176.599C187.905 176.599 209.005 176.599 214.305 176.599C216.605 176.599 217.005 174.499 217.105 173.199L190.705 168.199C191.005 171.199 191.105 173.199 191.105 173.499C191.105 173.699 191.105 173.899 191.005 174.099C190.705 176.499 187.305 176.599 186.805 176.599Z" fill="white"/>
</g>
<path d="M278.103 59.1992H148.703L127.703 137.599H258.603L278.103 59.1992Z" fill="#658197"/>
<path d="M133.805 134.199H255.005L259.305 116.899L261.005 110.299L261.705 107.599L266.105 89.7994L266.305 88.8994L268.705 79.4994L269.805 75.2994L270.705 71.7994L271.405 68.7994L272.805 63.3994H153.305L151.805 68.7994L151.005 71.7994L150.005 75.2994L148.905 79.4994L141.305 107.199L140.605 109.499L140.305 110.599L135.105 129.599L133.805 134.199Z" fill="#FFBEA2"/>
<path d="M124.305 101.299C124.305 101.299 124.605 97.8994 120.805 97.8994C120.805 97.8994 122.005 98.1994 122.605 98.7994C122.605 98.7994 120.105 97.3994 117.505 99.5994C114.805 101.799 116.505 107.399 115.705 108.399C114.905 109.499 111.705 109.699 112.105 113.099C112.505 116.499 122.105 120.799 121.505 123.599C121.505 123.599 125.305 117.999 122.605 115.499C122.605 115.499 123.905 116.699 124.105 118.199C124.105 118.199 124.505 115.299 122.605 114.399C121.005 113.599 119.605 110.599 119.805 110.099C119.805 109.499 124.305 101.299 124.305 101.299Z" fill="#231F20"/>
<path d="M120.505 117.8C120.505 117.8 123.405 129.7 126.205 132.1C127.905 133.5 132.905 136.8 132.905 136.8L130.805 137.6C130.805 137.6 123.805 135.2 122.205 133.4C120.605 131.6 116.305 122.3 116.305 122.3L120.505 117.8Z" fill="#A87C4F"/>
<path d="M137.108 141.199L136.408 139.499C135.708 137.699 133.908 136.499 132.008 136.499H119.508V144.399V178.199H171.108V144.399H141.908C139.808 144.399 137.908 143.099 137.108 141.199Z" fill="#F99746"/>
<path d="M93.5066 138.699L93.6066 138.799C94.2066 139.899 95.7066 142.599 97.3066 145.499C98.1066 146.899 98.8066 148.299 99.6066 149.699C100.907 152.099 102.107 154.099 102.707 155.299C103.407 156.399 103.907 157.199 104.107 157.499C104.207 157.599 104.207 157.699 104.207 157.799C104.107 158.799 104.107 159.799 104.207 160.699C105.207 170.199 111.607 175.399 111.607 175.399L113.507 175.699C113.507 175.699 110.807 165.699 110.007 159.999C109.907 158.999 109.807 158.299 109.907 157.799C110.007 156.299 109.807 154.199 109.307 151.699C108.407 147.299 106.807 141.799 105.407 137.499C105.307 137.199 102.607 127.499 102.607 127.499C100.307 129.499 92.1066 130.299 92.1066 130.299C92.1066 130.299 90.6066 133.699 93.5066 138.699Z" fill="#194263"/>
<path d="M117.503 178.2H109.503C109.503 178.2 109.303 177 109.703 176.1C110.103 175.2 110.703 175.2 109.803 173.8C110.303 174.3 111.903 174.5 113.103 174.4C113.203 174.6 114.003 176.2 114.503 176.5C115.003 176.8 117.303 176.7 117.503 178.2Z" fill="#233862"/>
<path d="M93.5078 138.699L93.6078 138.799C94.2078 139.899 97.6078 146.199 99.2078 149.099C97.4078 141.499 98.6078 133.899 98.6078 133.899L93.5078 138.699Z" fill="#233862"/>
<path d="M123.206 100.799C123.306 100.599 118.606 102.899 118.406 103.099C116.206 105.499 116.906 108.599 118.106 108.699C118.906 108.699 118.706 109.999 118.706 109.999L127.506 106.299C127.606 106.299 126.506 100.099 123.206 100.799Z" fill="#231F20"/>
<path d="M120.202 116.1C120.202 116.1 121.502 118.8 121.402 121C121.402 121 119.802 123.6 115.602 124.2C115.602 124.1 119.202 116.1 120.202 116.1Z" fill="#FF8855"/>
<path d="M99.7049 130.9V129.4C96.7049 129.8 89.4049 125.8 89.4049 125.8C89.4049 125.8 86.3049 127.9 85.9049 133.8C85.7049 136.7 84.4049 148.9 84.2049 152.5C84.1049 153.8 84.1049 154.8 84.1049 155.1C84.1049 155.2 84.0049 155.3 84.0049 155.4C83.4049 156.2 82.9049 157 82.4049 157.9C77.9049 166.3 80.2049 177.8 80.2049 177.8L81.3049 177.5C81.3049 177.5 85.1049 165.6 87.6049 160.5C88.0049 159.6 88.4049 158.9 88.7049 158.6C89.6049 157.5 90.6049 155.5 91.6049 153.2C93.6049 148.8 99.7049 130.9 99.7049 130.9Z" fill="#194263"/>
<path d="M86.6047 178.199H78.6047C78.6047 178.199 78.4047 176.999 78.8047 176.099C79.2047 175.199 79.8047 174.799 79.7047 173.699C80.2047 174.199 81.0047 174.799 82.2047 174.699C82.3047 174.899 83.1047 176.199 83.6047 176.499C84.1047 176.799 86.5047 176.699 86.6047 178.199Z" fill="#113C5F"/>
<path d="M115.002 125.8C113.902 126 115.202 126.8 113.702 127C111.602 127.2 109.402 127.4 108.302 127.8C107.902 128 107.602 128.2 107.502 128.4C107.002 129.9 103.902 132.4 103.902 132.4C90.0016 131.8 89.1016 125.6 89.1016 125.6C98.1016 116.8 105.802 112.1 112.102 111.5C113.602 111.4 115.702 111.5 116.702 112C118.902 113 120.102 116 120.102 116C120.102 116 119.102 125.2 115.002 125.8Z" fill="#FF8855"/>
<path d="M113.702 126.999C111.602 127.199 109.402 127.399 108.302 127.799C107.802 120.899 111.102 115.699 111.102 115.699C111.102 115.699 113.302 124.399 113.702 126.999Z" fill="#FF8855"/>
<path d="M115.507 114.6C115.507 114.6 110.207 114.3 109.307 117.6C108.407 120.9 111.107 134.1 111.607 135.5C112.707 138 118.007 145.4 118.007 145.4L119.707 144.5C119.707 144.5 116.307 133.7 115.507 132.6C114.407 130.9 117.107 116 115.507 114.6Z" fill="#A87C4F"/>
<path d="M119.806 144.499C119.806 144.499 120.206 144.899 120.606 145.299C121.006 145.699 120.606 145.899 121.706 147.899C121.706 147.899 121.606 148.199 121.406 148.099C121.206 148.099 120.406 147.299 120.006 147.299C120.006 147.299 119.706 147.499 119.706 148.299C119.706 148.999 119.706 150.599 119.506 150.899C119.406 151.199 118.506 149.599 118.006 148.499C117.606 147.499 118.006 144.199 118.006 144.199L119.806 144.499Z" fill="#A87C4F"/>
<path d="M108.305 122C108.305 122.1 113.305 122.9 116.405 121.3C116.405 121.3 119.005 113.1 115.305 113.5C111.605 113.9 109.405 115.1 109.305 116.8C109.205 118.7 108.305 122 108.305 122Z" fill="#FF8855"/>
<path d="M116.703 112.6C116.803 113.3 116.803 114 117.703 114.9C118.403 115.6 119.303 116.1 120.003 115.4C120.303 115.1 120.803 114.5 121.003 114.1C121.603 113.1 122.303 112.1 122.303 112.1L119.303 109.5L119.103 109.3C118.303 110.7 117.503 111.3 116.903 111.8C116.703 112.1 116.603 112.4 116.703 112.6Z" fill="#A87C4F"/>
<path d="M122.305 112.2C122.305 112.2 121.605 113.2 121.005 114.2C119.105 113.1 119.105 110.8 119.305 109.6L122.305 112.2Z" fill="#A87C4F"/>
<path d="M122.307 113.5C122.307 113.5 117.807 111 119.407 108.2C121.007 105.4 121.507 103.2 124.507 104.7C127.407 106.2 127.407 107.6 127.107 108.6C126.807 109.7 123.607 114.1 122.307 113.5Z" fill="#A87C4F"/>
<path d="M127.808 106.999C127.608 105.799 127.008 105.599 126.508 105.699C124.808 102.899 122.108 103.999 122.108 103.999C120.608 105.799 118.508 106.099 118.508 106.099C118.508 106.099 119.008 107.099 121.208 107.699C121.908 107.899 122.608 107.799 123.308 107.499C121.808 108.299 120.208 108.699 120.208 108.699C123.008 108.999 125.708 106.399 126.008 106.099C126.108 106.499 126.408 107.299 126.208 107.999C126.008 108.799 125.308 110.399 125.708 110.499C125.908 110.599 128.108 108.899 127.808 106.999Z" fill="#231F20"/>
<path d="M133.803 136.8C133.803 136.8 132.503 137.7 133.503 138.4C134.403 139 136.103 139.2 136.103 138.8C136.103 137.4 135.403 136.4 133.803 136.8Z" fill="#A87C4F"/>
<path d="M33.4985 178.8H326.998C327.198 178.8 327.298 178.6 327.298 178.5V178.3C327.298 178.1 327.098 178 326.998 178H33.4985C33.2985 178 33.1985 178.2 33.1985 178.3V178.5C33.0985 178.6 33.2985 178.8 33.4985 178.8Z" fill="#113C5F"/>
<path d="M232.8 86.6L233.9 84.9C235.1 83.1 237.1 82 239 82H251.3L249.2 89.8L240.7 120.7C240.3 122.1 239.1 123 237.6 123H193.4C191.3 123 189.8 121 190.3 119L198.3 89.7H227.1C229.2 89.8 231.5 88.6 232.8 86.6Z" fill="#FF8855"/>
<path d="M244.5 74.8992C244.7 75.0992 244.7 75.3992 244.6 75.5992C244.4 76.0992 243.8 76.5992 243.2 77.1992C243.1 77.2992 243 77.2992 243 77.3992C243 77.3992 243 77.3992 242.9 77.3992C242.3 77.9992 242.5 78.0992 241.4 79.2992C240.1 80.5992 239.2 80.6992 239 80.4992C238.8 80.3992 239.2 79.6992 239.7 78.8992C239.7 78.8992 239.7 78.7992 239.8 78.7992C239.9 78.6992 239.9 78.5992 240 78.4992C240.6 77.4992 240.4 77.0992 240.3 75.5992C240.2 74.3992 238.5 69.0992 238.5 69.0992L241 68.6992C241 68.6992 241.7 72.9992 242.6 73.5992C243 73.8992 243.5 73.9992 244 74.1992C244 74.1992 244.1 74.1992 244.1 74.2992C244 74.5992 244.3 74.6992 244.5 74.8992Z" fill="#FFB27D"/>
<path d="M244.498 74.8998C244.698 75.0998 244.698 75.3998 244.598 75.5998C244.398 76.0998 243.798 76.5998 243.198 77.1998C243.098 77.2998 242.998 77.2998 242.998 77.3998C242.998 77.3998 242.998 77.3998 242.898 77.3998C242.298 77.9998 242.498 78.0998 241.398 79.2998C240.098 80.5998 239.198 80.6998 238.998 80.4998C238.798 80.3998 239.198 79.6998 239.698 78.8998C239.998 78.7998 241.098 78.2998 241.998 77.1998C242.698 76.1998 243.298 74.9998 243.798 74.2998C243.898 74.2998 243.898 74.2998 243.898 74.2998C243.998 74.5998 244.298 74.6998 244.498 74.8998Z" fill="#233862"/>
<path d="M224.5 73.3996C224.3 74.1996 223.3 73.9996 222 73.6996C220.8 73.3996 221.1 73.7996 219.3 73.5996C217.6 73.3996 217 72.7996 217 72.4996C217 72.2996 217.8 72.1996 218.7 72.0996C218.8 72.0996 218.9 72.0996 219 72.0996C220 71.9996 220.8 71.2996 221.7 70.6996C222.6 70.1996 223.9 68.0996 223.9 68.0996L226.3 68.2996C226.3 68.2996 225.1 70.1996 224.6 70.9996C224.3 71.4996 224.3 72.0996 224.4 72.5996C224.5 72.8996 224.5 73.0996 224.5 73.3996Z" fill="#FFB27D"/>
<path d="M222 73.6996C220.8 73.3996 221.1 73.7996 219.3 73.5996C217.6 73.3996 217 72.7996 217 72.4996C217 72.2996 217.8 72.1996 218.7 72.0996C218.7 72.0996 219.7 72.7996 221.2 72.8996C222.4 72.8996 223.6 72.5996 224.4 72.5996C224.4 72.8996 224.4 73.0996 224.4 73.3996C224.3 74.1996 223.2 73.9996 222 73.6996Z" fill="#233862"/>
<path d="M233.602 58.1993L235.802 64.1993L238.702 71.9993C238.702 71.9993 239.502 72.0993 240.202 71.8993C240.902 71.6993 241.702 71.1993 241.702 71.1993C241.702 71.1993 240.902 62.7993 239.402 57.9993C239.002 56.7993 238.602 55.7993 238.102 55.1993C235.802 52.3993 233.602 58.1993 233.602 58.1993Z" fill="#00666B"/>
<path d="M235.802 48.7C237.102 48.3 240.402 48.7 243.902 49.3C244.902 49.5 245.902 49 246.402 48.2L255.402 47.5C255.402 47.5 258.402 54.1 256.702 58.3C256.502 58.9 255.902 59.3 255.102 59.3C255.102 59.3 249.702 59.3 247.902 59.3C243.402 59.3 238.402 56.2 237.802 56.1C236.702 55.9 236.302 58 235.302 60.2C234.202 62.4 225.302 70.1 225.302 70.1C225.302 70.1 223.902 70.1 223.402 69.9C222.802 69.7 222.602 69.4 222.602 69.4C222.602 69.4 232.602 49.8 235.802 48.7Z" fill="#01888B"/>
<path d="M246.598 35.7996C249.798 37.5996 256.298 41.1996 256.398 41.1996C256.398 41.1996 258.798 42.0996 260.198 41.1996C262.498 39.6996 263.698 35.6996 259.498 32.1996C257.398 30.4996 255.998 29.9996 255.698 27.2996C255.598 25.7996 253.498 20.7996 250.098 21.2996C249.798 21.2996 249.498 21.3996 249.298 21.3996C248.898 21.3996 248.198 21.3996 247.598 21.7996C245.498 22.8996 241.698 35.0996 246.598 35.7996Z" fill="#231F20"/>
<path d="M249.203 34.2998C249.203 34.2998 250.803 34.8998 251.803 34.3998C252.803 33.9998 253.603 32.2998 253.503 32.2998C253.003 32.2998 252.503 31.8998 252.203 29.2998L252.003 29.3998L248.703 30.5998C248.703 30.5998 248.903 31.5998 249.103 32.5998C249.303 33.3998 249.403 34.1998 249.203 34.2998Z" fill="#FFB27D"/>
<path d="M248.797 30.4998C248.797 30.4998 248.897 31.0998 249.097 32.0998C250.997 31.7998 251.797 30.2998 251.997 29.2998L248.797 30.4998Z" fill="#ED975D"/>
<path d="M248.3 31.4994C248.3 31.4994 252.8 30.8994 252.3 28.0994C251.9 25.2994 252.2 23.3994 249.3 23.5994C246.4 23.8994 246 24.9994 246 25.9994C246 26.9994 247.2 31.5994 248.3 31.4994Z" fill="#FFB27D"/>
<path d="M246.203 24.4998C246.203 24.4998 249.103 26.9998 251.003 27.1998C252.903 27.3998 253.703 26.7998 253.703 26.7998C253.703 26.7998 252.603 25.7998 251.903 24.2998C251.703 23.7998 251.303 23.4998 250.803 23.4998C249.303 23.3998 246.703 23.2998 246.203 24.4998Z" fill="#231F20"/>
<path d="M247.999 24.2992C247.999 24.2992 246.999 25.1992 246.699 25.8992C246.399 26.5992 246.299 28.0992 246.599 28.7992C246.599 28.7992 245.099 25.8992 245.999 24.4992C246.799 22.9992 247.999 24.2992 247.999 24.2992Z" fill="#231F20"/>
<path d="M245.502 40.8992C245.602 49.8992 245.502 47.9992 246.502 48.8992C246.702 49.0992 247.402 49.1992 248.302 49.2992C251.102 49.4992 255.902 48.9992 256.102 48.4992C256.702 46.6992 256.302 46.1992 256.802 43.4992C256.902 43.1992 256.902 42.8992 257.002 42.5992C257.402 40.6992 257.902 40.0992 256.302 37.0992C254.902 34.3992 253.402 32.1992 253.202 32.2992C249.402 34.4992 249.102 32.6992 249.102 32.6992C249.102 32.6992 245.402 36.4992 245.502 40.8992Z" fill="#5C81A2"/>
<path d="M235.797 64.2L238.697 72C238.697 72 239.497 72.1 240.197 71.9C240.897 71.7 241.697 71.2 241.697 71.2C241.697 71.2 240.897 62.8 239.397 58L235.797 64.2Z" fill="#01888B"/>
<path d="M249.198 32.5C249.198 32.5 245.298 33.2 244.898 34.8C244.398 36.5 242.898 46.6 242.898 46.6C242.898 46.6 243.998 47.7 244.898 46.8C245.798 45.9 247.798 37.3 247.798 37.3L249.198 32.5Z" fill="#5C81A2"/>
<path d="M248.297 49.2992C251.097 49.4992 255.897 48.9992 256.097 48.4992C256.697 46.6992 256.297 46.1992 256.797 43.4992L255.497 39.6992C255.497 39.6992 255.697 43.8992 254.497 44.9992C253.297 46.0992 249.397 47.0992 248.797 48.0992C248.497 48.4992 248.397 48.8992 248.297 49.2992Z" fill="#233862"/>
<path d="M251.5 47.4994C251.5 47.4994 248.8 46.8994 248.3 47.0994C247.9 47.2994 246.8 48.1994 246.6 48.4994C246.5 48.7994 247.6 48.2994 247.9 48.1994C248.1 48.0994 248.8 48.3994 249.1 48.4994C250.4 48.8994 251.2 48.6994 251.2 48.6994L251.5 47.4994Z" fill="#FFB27D"/>
<path d="M253.3 32.1992C253.3 32.1992 257 32.3992 258.2 34.1992C260 36.6992 263.5 47.2992 261.5 48.6992C259.2 50.2992 251.1 49.0992 251.1 49.0992C251.1 49.0992 250.8 47.7992 251.2 47.1992C251.6 46.5992 257.7 45.5992 258 45.2992C258.3 44.9992 254.5 39.7992 254.5 38.8992C254.5 38.1992 253.3 32.1992 253.3 32.1992Z" fill="#5C81A2"/>
<path d="M248.202 47.8994C248.202 47.8994 247.602 48.5994 247.402 48.6994C247.202 48.7994 247.102 48.7994 247.102 48.7994L247.502 48.0994L248.202 47.8994Z" fill="#FFB27D"/>
<path d="M248.302 47.0996L246.602 47.8996C246.602 47.8996 246.702 47.9996 246.902 47.9996C247.102 47.9996 247.602 47.7996 247.602 47.7996L248.302 47.0996Z" fill="#FFB27D"/>
<path d="M234.102 49H251.502V49.4H234.202L234.102 49Z" fill="#233862"/>
<path d="M247.405 49.3996H234.205L230.305 39.5996H243.405L247.405 49.3996Z" fill="#233862"/>
<path d="M237.604 44.4994C237.504 44.1994 237.704 43.8994 238.004 43.8994C238.304 43.8994 238.704 44.1994 238.804 44.4994C238.904 44.7994 238.704 45.0994 238.404 45.0994C238.004 45.0994 237.704 44.7994 237.604 44.4994Z" fill="white"/>
<path opacity="0.5" d="M205.298 84.6992L210.998 82.7992L211.198 82.6992L211.398 82.7992L227.098 89.5992L214.798 118.299L194.398 109.599L204.998 84.9992L205.098 84.7992L205.298 84.6992Z" fill="white"/>
<path d="M219.698 82.7996L219.598 82.9996L203.898 104.6L221.898 117.6L240.198 92.2996L226.398 82.2996L226.198 82.0996L225.898 82.1996L219.998 82.7996H219.698Z" fill="white"/>
<path d="M172.402 75.6992L209.502 77.7992C209.502 77.7992 209.602 77.7992 209.502 77.8992L199.402 123.999C199.402 123.999 199.402 124.099 199.302 123.999L162.202 121.899L161.602 121.299L172.402 75.6992Z" fill="#658197"/>
<path d="M165.203 120.4L196.503 122.4C197.403 122.5 198.203 121.7 198.303 120.8L208.403 80.7001C208.503 79.8001 207.703 79.0001 206.803 78.9001L175.503 76.9001C174.603 76.8001 173.803 77.6001 173.703 78.5001L163.603 118.6C163.503 119.5 164.203 120.3 165.203 120.4Z" fill="white"/>
<path d="M197 84.7L177.5 83.5L177.6 83L197.1 84.2L197 84.7Z" fill="#FF8855"/>
<path d="M195.898 88.9002L176.398 87.7002L176.498 87.2002L195.998 88.4002L195.898 88.9002Z" fill="#FF8855"/>
<path d="M203.898 87.2L176.898 85.5L176.998 85L203.998 86.7L203.898 87.2Z" fill="#FF8855"/>
<path d="M187.003 101.6L173.703 100.8L173.803 100.3L187.103 101.1L187.003 101.6Z" fill="#BDD1F9"/>
<path d="M192.605 99.7996L174.305 98.5996L174.405 98.0996L192.705 99.2996L192.605 99.7996Z" fill="#BDD1F9"/>
<path d="M192.602 104.3L173.102 103.1L173.202 102.6L192.702 103.8L192.602 104.3Z" fill="#BDD1F9"/>
<path d="M194.2 106.6L172.5 105.2L172.6 104.7L194.3 106.1L194.2 106.6Z" fill="#BDD1F9"/>
<path d="M185.602 109.8L171.602 108.9L171.702 108.4L185.702 109.3L185.602 109.8C185.702 109.8 185.602 109.8 185.602 109.8Z" fill="#BDD1F9"/>
<path d="M184.602 114L170.602 113.1L170.702 112.6L184.702 113.5L184.602 114Z" fill="#BDD1F9"/>
<path d="M190.402 112.3L171.102 111.1L171.202 110.6L190.502 111.8L190.402 112.3Z" fill="#BDD1F9"/>
<path d="M180.405 75.3993L180.305 77.9993C180.305 78.1993 180.505 78.4993 180.805 78.4993L201.205 79.5993C201.505 79.5993 201.705 79.3993 201.705 79.1993L201.805 76.5993C201.905 75.4993 201.005 74.5993 199.805 74.5993L182.605 73.5993C181.505 73.4993 180.505 74.2993 180.405 75.3993Z" fill="#658197"/>
</svg>
