<svg width="360" height="200" viewBox="0 0 360 200" fill="none" xmlns="http://www.w3.org/2000/svg">
<path d="M116.167 63.7763C116.167 63.7763 92.7758 38.4457 69.4852 44.7529C62.1567 73.1354 92.2738 86.0551 92.2738 86.0551L122.19 86.2585L116.167 63.7763Z" fill="#5C81A2"/>
<path d="M80.7265 78.9337L105.322 73.4403L83.3367 56.0446L68.7801 58.893L68.6797 58.0792L82.5336 55.4342L68.8805 44.6509L69.6836 44.3457L94.5804 63.9795L95.8855 48.2114L96.5882 48.9235L95.2831 64.5899L123.091 86.4617L122.589 87.0721L106.025 74.0507L81.5297 79.5441L80.7265 78.9337Z" fill="white"/>
<path d="M112.349 82.494C112.349 82.494 84.3402 76.7971 74 93.1756C90.966 128.984 136.443 109.045 136.443 109.045L112.349 82.494Z" fill="#63C0C4"/>
<path d="M97.1902 113.623L112.65 98.3641L74 93.4811V92.769L97.4913 95.7191L87.6531 83.0029H88.5566L98.5956 95.8208L130.419 99.7883L130.319 100.5L113.554 98.4658L98.1941 113.623H97.1902Z" fill="white"/>
<path d="M129.92 64.4879C129.92 64.4879 124.097 30.2051 99.5016 24.8135C75.709 61.4361 112.452 83.1044 112.452 83.1044L129.92 64.4879Z" fill="#FFBEA2"/>
<path d="M91.3672 54.0102V53.1963L114.859 63.5727L102.611 24.3052L103.314 24L111.947 51.9756L121.384 40.175L121.484 41.0905L112.248 52.7894L119.276 75.4751L118.774 76.1872L115.16 64.59L91.3672 54.0102Z" fill="white"/>
<path d="M104.719 140.073C104.719 140.073 109.437 136.716 109.939 135.292C110.642 133.359 109.136 131.731 107.63 133.257C106.225 134.681 106.024 135.597 104.719 140.073Z" fill="#3D95D1"/>
<path d="M108.734 133.766C108.734 133.766 107.028 135.698 104.719 139.971C104.719 139.971 108.534 134.478 108.734 133.766Z" fill="#3D95D1"/>
<path d="M102.211 151.67C102.211 151.67 104.921 149.737 105.223 148.923C105.624 147.804 104.721 146.889 103.918 147.703C103.014 148.618 102.914 149.127 102.211 151.67Z" fill="#3D95D1"/>
<path d="M104.52 148.109C104.52 148.109 103.516 149.228 102.211 151.67C102.211 151.67 104.319 148.516 104.52 148.109Z" fill="#3D95D1"/>
<path opacity="0.1" d="M169.272 169.982C146.785 169.982 105.424 170.694 110.544 166.828C115.664 162.963 142.568 166.727 164.755 165.506C186.841 164.183 206.818 162.759 229.507 164.692C252.094 166.625 245.971 168.761 236.032 169.372C217.761 170.491 214.548 170.999 204.007 170.389C172.987 168.558 178.107 169.982 169.272 169.982Z" fill="#005D92"/>
<path d="M192.962 142.107H160.938V163.878H192.962V142.107Z" fill="#005D92"/>
<path d="M192.962 142.107H160.938V163.878H192.962V142.107Z" fill="#00466E"/>
<path d="M201.796 167.234H152.203C152.203 165.2 153.307 163.368 155.114 162.453L160.937 159.604H192.962L198.784 162.453C200.591 163.368 201.796 165.2 201.796 167.234Z" fill="#005D92"/>
<path d="M160.938 149.737H192.962V152.077L160.938 151.263V149.737Z" fill="#002F49"/>
<g opacity="0.2">
<path opacity="0.2" d="M152.203 167.235H201.796C201.796 165.505 200.993 163.877 199.587 162.962H154.512C153.107 163.877 152.203 165.505 152.203 167.235Z" fill="#0F3A5D"/>
</g>
<path d="M246.17 149.738H107.832C104.619 149.738 102.109 147.093 102.109 143.939V64.6921C102.109 61.4368 104.72 58.8936 107.832 58.8936H246.17C249.382 58.8936 251.892 61.5385 251.892 64.6921V143.939C251.892 147.195 249.382 149.738 246.17 149.738Z" fill="#0F3A5D"/>
<path opacity="0.2" d="M246.17 58.8936H107.832C104.619 58.8936 102.109 61.5385 102.109 64.6921V66.3198C102.109 63.0645 104.72 60.5212 107.832 60.5212H246.17C249.382 60.5212 251.892 63.1662 251.892 66.3198V64.6921C251.892 61.4368 249.382 58.8936 246.17 58.8936Z" fill="#3D95D1"/>
<g opacity="0.5">
<path opacity="0.5" d="M246.17 147.703H107.832C104.619 147.703 102.109 145.058 102.109 141.904V143.939C102.109 147.194 104.72 149.737 107.832 149.737H246.17C249.382 149.737 251.892 147.092 251.892 143.939V141.904C251.892 145.16 249.382 147.703 246.17 147.703Z" fill="#00466E"/>
</g>
<path d="M246.876 66.624H107.133V138.038H246.876V66.624Z" fill="#F2F9FD"/>
<path d="M246.875 66.6242V138.038H107.131V66.6242H246.875ZM247.577 65.9121H246.875H107.131H106.328V66.6242V138.038V138.75H107.031H246.875H247.577V138.038V66.6242V65.9121Z" fill="#00466E"/>
<path opacity="0.2" d="M245.268 141.09H108.737C107.432 141.09 106.328 139.971 106.328 138.648H247.577C247.577 140.073 246.574 141.09 245.268 141.09Z" fill="#3D95D1"/>
<path opacity="0.15" d="M246.876 135.801H107.133V136.004H246.876V135.801Z" fill="#005D92"/>
<path opacity="0.15" d="M246.876 121.151H107.133V121.355H246.876V121.151Z" fill="#005D92"/>
<path opacity="0.15" d="M246.876 106.604H107.133V106.808H246.876V106.604Z" fill="#005D92"/>
<path opacity="0.15" d="M246.876 91.9551H107.133V92.1585H246.876V91.9551Z" fill="#005D92"/>
<path opacity="0.15" d="M246.876 77.4082H107.133V77.6117H246.876V77.4082Z" fill="#005D92"/>
<path opacity="0.15" d="M138.255 66.625H138.055V135.903H138.255V66.625Z" fill="#005D92"/>
<path opacity="0.15" d="M153.716 66.625H153.516V135.903H153.716V66.625Z" fill="#005D92"/>
<path opacity="0.15" d="M169.27 66.625H169.07V135.903H169.27V66.625Z" fill="#005D92"/>
<path opacity="0.15" d="M184.833 66.625H184.633V135.903H184.833V66.625Z" fill="#005D92"/>
<path opacity="0.15" d="M200.395 66.625H200.195V135.903H200.395V66.625Z" fill="#005D92"/>
<path opacity="0.15" d="M215.958 66.625H215.758V135.903H215.958V66.625Z" fill="#005D92"/>
<path opacity="0.15" d="M231.419 66.625H231.219V135.903H231.419V66.625Z" fill="#005D92"/>
<path opacity="0.15" d="M122.692 66.625H122.492V135.903H122.692V66.625Z" fill="#005D92"/>
<path d="M109.325 135.877H120.469V114.921H109.325V135.877Z" fill="#5C81A2"/>
<path d="M124.872 135.861H136.016V110.734H124.872V135.861Z" fill="#5C81A2"/>
<path d="M140.419 135.891H151.562V104.965H140.419V135.891Z" fill="#5C81A2"/>
<path d="M155.966 135.855H167.109V108.694H155.966V135.855Z" fill="#5C81A2"/>
<path d="M171.614 135.837H182.758V111.93H171.614V135.837Z" fill="#FFBEA2"/>
<path d="M187.161 135.904H198.305V107.318H187.161V135.904Z" fill="#FFBEA2"/>
<path d="M202.708 135.908H213.852V102.744H202.708V135.908Z" fill="#FFBEA2"/>
<path d="M218.255 135.832H229.398V93.0039H218.255V135.832Z" fill="#3D95D1"/>
<path d="M233.802 135.87H244.945V85.6158H233.802V135.87Z" fill="#3D95D1"/>
<path d="M109.325 135.897H120.469V121.859H109.325V135.897Z" fill="#0F3A5D"/>
<path d="M124.872 135.845H136.016V119.059H124.872V135.845Z" fill="#0F3A5D"/>
<path d="M140.419 135.854H151.562V115.202H140.419V135.854Z" fill="#0F3A5D"/>
<path d="M155.966 135.904H167.109V117.796H155.966V135.904Z" fill="#0F3A5D"/>
<path d="M171.614 135.83H182.758V119.859H171.614V135.83Z" fill="#FF8A59"/>
<path d="M187.161 135.832H198.305V116.707H187.161V135.832Z" fill="#FF8A59"/>
<path d="M202.708 135.929H213.852V113.752H202.708V135.929Z" fill="#FF8A59"/>
<path d="M218.255 135.893H229.398V107.205H218.255V135.893Z" fill="#0F3A5D"/>
<path d="M233.802 135.836H244.945V102.265H233.802V135.836Z" fill="#0F3A5D"/>
<path d="M107.132 109.554L107.031 109.249L130.422 102.942L145.983 96.8382H146.083L161.041 100.907L177.104 104.163L192.965 99.3814L208.124 95.1088L223.685 84.8341L239.647 78.2217L239.747 78.5269L223.886 85.1393L208.325 95.5157L193.066 99.7883L177.104 104.468L160.941 101.213L145.983 97.2451L130.523 103.247L107.132 109.554Z" fill="#FAA634"/>
<path d="M241.556 77.5095L237.641 77.1025L239.046 78.7302L239.146 80.6631L241.556 77.5095Z" fill="#FAA634"/>
<path opacity="0.2" d="M153.307 93.379V58.791H108.734C105.02 58.791 102.008 61.8429 102.008 65.6069V95.6171H151.099C152.303 95.6171 153.307 94.7015 153.307 93.379Z" fill="#005D92"/>
<g opacity="0.2">
<path opacity="0.8" d="M234.827 69.6763H164.654C163.449 69.6763 162.445 68.659 162.445 67.4383V26.3396C162.445 25.1189 163.449 24.1016 164.654 24.1016H234.827C236.031 24.1016 237.035 25.1189 237.035 26.3396V67.4383C237.035 68.659 236.031 69.6763 234.827 69.6763Z" fill="#005D92"/>
<path opacity="0.2" d="M237.037 26.3394C237.037 25.1187 236.033 24.2031 234.828 24.2031H164.755C163.551 24.2031 162.547 25.2204 162.547 26.3394V28.6792H237.037V26.3394Z" fill="#005D92"/>
</g>
<path d="M95.893 89.4119C94.8891 89.4119 94.0859 88.5981 94.0859 87.5808V59.8087C94.0859 58.7914 94.8891 57.9775 95.893 57.9775H148.999C150.003 57.9775 150.807 58.7914 150.807 59.8087V87.5808C150.807 88.5981 150.003 89.4119 148.999 89.4119H95.893V89.4119Z" fill="white"/>
<path d="M148.997 58.0796C149.901 58.0796 150.704 58.8934 150.704 59.809V87.5811C150.704 88.4967 149.901 89.3105 148.997 89.3105H95.8906C94.9871 89.3105 94.184 88.4967 94.184 87.5811V59.809C94.184 58.8934 94.9871 58.0796 95.8906 58.0796H148.997V58.0796ZM148.997 57.7744H95.8906C94.7863 57.7744 93.8828 58.69 93.8828 59.809V87.5811C93.8828 88.7001 94.7863 89.6157 95.8906 89.6157H148.997C150.101 89.6157 151.005 88.7001 151.005 87.5811V59.809C151.005 58.69 150.101 57.7744 148.997 57.7744Z" fill="#086166"/>
<path d="M145.883 72.5254L144.678 72.322C144.478 72.322 144.377 72.2202 144.277 72.0168L143.574 70.6943C143.373 70.2874 142.871 70.2874 142.57 70.5926L141.968 71.5081C141.767 71.8133 141.265 71.8133 141.064 71.5081L140.864 71.3047C140.663 70.9995 140.161 70.9995 139.96 71.3047L139.86 71.4064C139.559 71.7116 139.057 71.7116 138.856 71.3047L137.149 67.5407C136.948 67.032 136.246 67.1338 136.045 67.5407L133.134 75.3738C133.033 75.7808 132.531 75.8825 132.23 75.5773L132.13 75.4756C131.828 75.2721 131.527 75.3738 131.326 75.5773L131.025 75.9842L130.523 75.4756H129.419C129.118 75.4756 128.917 75.679 128.817 75.9842L128.616 76.798C128.516 77.205 128.014 77.4084 127.612 77.1032C127.311 76.7981 126.909 76.8998 126.709 77.3067L125.705 79.1378C125.604 79.443 125.203 79.5447 124.902 79.3413L124.199 78.9344C123.998 78.8326 123.797 78.8326 123.697 78.9344L122.693 79.443C122.492 79.5447 122.191 79.5447 121.99 79.3413L121.689 79.0361C121.388 78.7309 120.886 78.7309 120.685 79.1378C120.585 79.443 120.284 79.5447 119.982 79.443L118.878 79.0361C118.677 78.9344 118.477 79.0361 118.376 79.1378L117.071 80.0534C116.87 80.1551 116.77 80.1551 116.569 80.1551L115.666 79.8499C115.565 79.8499 115.364 79.8499 115.264 79.8499L114.361 80.1551C114.16 80.2569 113.959 80.1551 113.758 80.0534L112.754 79.2396C112.553 79.0361 112.252 79.0361 112.052 79.2396L110.546 80.4603C110.546 80.4603 110.546 80.4603 110.445 80.4603L108.839 81.3759C108.638 81.4776 108.538 81.4776 108.337 81.3759L107.434 80.969H107.333L103.92 80.4603H103.82H101.41C101.31 80.4603 101.31 80.4603 101.209 80.4603L98.8 81.3759C98.5992 81.4776 98.3984 81.6811 98.3984 81.8845V84.1226H146.485V73.0341C146.485 72.7289 146.184 72.5254 145.883 72.5254Z" fill="#63C0C4"/>
<g opacity="0.3">
<path opacity="0.3" d="M146.487 79.9512H98.5V80.1546H146.487V79.9512Z" fill="#005D92"/>
<path opacity="0.3" d="M146.487 75.7803H98.5V75.9837H146.487V75.7803Z" fill="#005D92"/>
<path opacity="0.3" d="M146.487 71.5078H98.5V71.7113H146.487V71.5078Z" fill="#005D92"/>
<path opacity="0.3" d="M146.487 67.2354H98.5V67.4388H146.487V67.2354Z" fill="#005D92"/>
<path opacity="0.3" d="M146.487 63.0645H98.5V63.2679H146.487V63.0645Z" fill="#005D92"/>
</g>
<path d="M98.5984 63.166H98.3984V84.4275H98.5984V63.166Z" fill="#005D92"/>
<path d="M146.487 84.2236H98.5V84.4271H146.487V84.2236Z" fill="#005D92"/>
<path d="M145.884 69.3714L144.68 69.168C144.479 69.168 144.378 68.9645 144.278 68.7611L143.575 67.0317C143.375 66.523 142.873 66.523 142.571 66.9299L141.969 68.049C141.768 68.4559 141.266 68.4559 141.066 68.1507L140.865 67.8455C140.664 67.5403 140.162 67.5403 139.961 67.8455L139.861 67.9472C139.56 68.3542 139.058 68.2524 138.857 67.7438L137.15 63.0642C136.95 62.4539 136.247 62.4539 136.046 63.0642L133.135 73.0337C133.034 73.5424 132.532 73.6441 132.231 73.3389L132.131 73.2372C131.83 72.932 131.528 73.0337 131.328 73.4406L131.027 73.9493L130.525 73.2372H129.42C129.119 73.2372 128.918 73.4406 128.818 73.8475L128.617 74.9666C128.517 75.5769 128.015 75.7804 127.613 75.3735C127.312 75.0683 126.91 75.17 126.71 75.5769L125.706 77.9167C125.605 78.3236 125.204 78.4254 124.903 78.2219L124.401 77.815C124.2 77.7133 123.999 77.7133 123.899 77.815L122.895 78.4254C122.694 78.6288 122.393 78.5271 122.192 78.2219L121.891 77.815C121.59 77.4081 121.088 77.5098 120.887 77.9167C120.787 78.2219 120.486 78.4254 120.184 78.3236L119.08 77.815C118.879 77.7133 118.678 77.815 118.578 77.9167L117.273 79.1375C117.072 79.2392 116.972 79.3409 116.771 79.2392L115.868 78.8323C115.767 78.7306 115.566 78.7306 115.466 78.8323L114.562 79.2392C114.362 79.3409 114.161 79.2392 113.96 79.1375L112.956 78.1202C112.755 77.9167 112.454 77.9167 112.253 78.1202L110.748 79.6461C110.748 79.6461 110.748 79.6461 110.647 79.7479L109.041 80.9686C108.84 81.0703 108.74 81.0703 108.539 80.9686L107.636 80.46C107.636 80.46 107.535 80.46 107.535 80.3582L104.122 79.6461H104.021H101.612C101.512 79.6461 101.512 79.6461 101.411 79.6461L98.9016 80.8669C98.7008 80.9686 98.5 81.2738 98.5 81.579V82.1894C98.5 81.9859 98.6004 81.6807 98.9016 81.6807L101.311 80.7651C101.411 80.7651 101.411 80.7651 101.512 80.7651H103.921H104.021L107.435 81.2738H107.535L108.439 81.6807C108.639 81.7824 108.84 81.7824 108.941 81.6807L110.547 80.7651C110.547 80.7651 110.547 80.7651 110.647 80.7651L112.153 79.5444C112.354 79.3409 112.655 79.3409 112.856 79.5444L113.86 80.3582C114.061 80.46 114.261 80.5617 114.462 80.46L115.366 80.1548C115.466 80.1548 115.667 80.1548 115.767 80.1548L116.671 80.46C116.871 80.5617 117.072 80.46 117.173 80.3582L118.478 79.4427C118.578 79.3409 118.779 79.3409 118.98 79.3409L120.084 79.7479C120.385 79.8496 120.686 79.7478 120.787 79.4427C120.987 79.0357 121.489 79.0357 121.791 79.3409L122.092 79.6461C122.293 79.8496 122.594 79.9513 122.794 79.7479L123.798 79.2392C123.999 79.1375 124.2 79.1375 124.3 79.2392L125.003 79.6461C125.304 79.7479 125.605 79.6461 125.806 79.4427L126.81 77.6115C127.011 77.3063 127.412 77.2046 127.714 77.4081C128.015 77.7133 128.617 77.5098 128.718 77.1029L128.918 76.289C129.019 75.9839 129.219 75.7804 129.521 75.7804H130.625L131.127 76.289L131.428 75.7804C131.629 75.4752 132.03 75.4752 132.231 75.6787L132.332 75.7804C132.633 75.9839 133.135 75.8821 133.235 75.5769L136.146 67.7438C136.347 67.2351 137.05 67.2351 137.251 67.7438L138.957 71.5078C139.158 71.9147 139.66 72.0164 139.961 71.6095L140.062 71.5078C140.262 71.2026 140.764 71.2026 140.965 71.5078L141.166 71.7112C141.367 72.0164 141.869 72.0164 142.069 71.7112L142.672 70.7957C142.873 70.3887 143.475 70.4905 143.676 70.8974L144.378 72.2199C144.479 72.4233 144.68 72.5251 144.78 72.5251L145.985 72.7285C146.286 72.7285 146.487 73.0337 146.487 73.3389V70.3887C146.487 69.6766 146.185 69.3714 145.884 69.3714Z" fill="#0F3A5D"/>
<path opacity="0.2" d="M217.663 77.5098C216.458 77.5098 215.555 78.4253 215.555 79.6461V120.033C215.555 121.253 216.458 122.169 217.663 122.169H251.896V77.5098H217.663Z" fill="#005D92"/>
<path d="M218.162 96.3296C216.957 96.3296 215.953 95.3123 215.953 94.0915V58.3845C215.953 57.1638 216.957 56.1465 218.162 56.1465H284.219C285.423 56.1465 286.427 57.1638 286.427 58.3845V94.0915C286.427 95.3123 285.423 96.3296 284.219 96.3296H218.162Z" fill="white"/>
<path d="M284.216 56.2485C285.421 56.2485 286.324 57.1641 286.324 58.3849V94.0919C286.324 95.3126 285.421 96.2282 284.216 96.2282H218.159C216.955 96.2282 216.051 95.3126 216.051 94.0919V58.3849C216.051 57.1641 216.955 56.2485 218.159 56.2485H284.216ZM284.216 55.9434H218.159C216.854 55.9434 215.75 57.0624 215.75 58.3849V94.0919C215.75 95.4144 216.854 96.5334 218.159 96.5334H284.216C285.521 96.5334 286.626 95.4144 286.626 94.0919V58.3849C286.525 57.0624 285.521 55.9434 284.216 55.9434Z" fill="#086166"/>
<path d="M226.493 72.0166H221.875V90.7348H226.493V72.0166Z" fill="#FAA634"/>
<path d="M234.126 75.6787H229.508V90.7347H234.126V75.6787Z" fill="#FBB85D"/>
<path d="M241.852 79.4424H237.234V90.7343H241.852V79.4424Z" fill="#FAA634"/>
<path d="M249.579 78.5273H244.961V90.7349H249.579V78.5273Z" fill="#FBB85D"/>
<path d="M257.212 77.1025H252.594V90.836H257.212V77.1025Z" fill="#FAA634"/>
<path d="M264.946 68.2529H260.328V90.8369H264.946V68.2529Z" fill="#FBB85D"/>
<path d="M272.571 61.9453H267.953V90.8365H272.571V61.9453Z" fill="#FAA634"/>
<path d="M280.305 63.5732H275.688V90.8367H280.305V63.5732Z" fill="#FBB85D"/>
<path d="M239.546 76.4921H239.446L231.916 72.6264L224.086 68.9641L224.186 68.8624L232.017 72.5247L239.546 76.2886L247.176 75.3731L255.006 73.8471L262.535 64.9967L270.265 58.6895L278.196 60.3171V60.5206L270.265 58.8929L262.636 65.0984L255.107 74.0506L247.276 75.5765L239.546 76.4921Z" fill="#0F3A5D"/>
<path d="M223.983 69.6765C223.581 69.6765 223.18 69.2696 223.18 68.8627C223.18 68.4557 223.581 68.0488 223.983 68.0488C224.384 68.0488 224.786 68.4557 224.786 68.8627C224.786 69.3713 224.485 69.6765 223.983 69.6765Z" fill="#0F3A5D"/>
<path d="M231.514 73.3386C231.112 73.3386 230.711 72.9317 230.711 72.5248C230.711 72.1179 231.112 71.7109 231.514 71.7109C231.916 71.7109 232.317 72.1179 232.317 72.5248C232.317 73.0334 232.016 73.3386 231.514 73.3386Z" fill="#0F3A5D"/>
<path d="M239.545 77.2048C239.144 77.2048 238.742 76.7979 238.742 76.391C238.742 75.9841 239.144 75.5771 239.545 75.5771C239.947 75.5771 240.348 75.9841 240.348 76.391C240.348 76.7979 239.947 77.2048 239.545 77.2048Z" fill="#0F3A5D"/>
<path d="M247.17 76.2888C246.769 76.2888 246.367 75.8819 246.367 75.475C246.367 75.068 246.769 74.6611 247.17 74.6611C247.572 74.6611 247.973 75.068 247.973 75.475C247.973 75.9836 247.672 76.2888 247.17 76.2888Z" fill="#0F3A5D"/>
<path d="M254.905 74.7624C254.503 74.7624 254.102 74.3555 254.102 73.9486C254.102 73.5417 254.503 73.1348 254.905 73.1348C255.306 73.1348 255.708 73.5417 255.708 73.9486C255.708 74.3555 255.306 74.7624 254.905 74.7624Z" fill="#0F3A5D"/>
<path d="M262.436 66.0144C262.034 66.0144 261.633 65.6075 261.633 65.2006C261.633 64.7936 262.034 64.3867 262.436 64.3867C262.837 64.3867 263.239 64.7936 263.239 65.2006C263.239 65.7092 262.837 66.0144 262.436 66.0144Z" fill="#0F3A5D"/>
<path d="M270.264 59.6052C269.862 59.6052 269.461 59.1983 269.461 58.7914C269.461 58.3845 269.862 57.9775 270.264 57.9775C270.666 57.9775 271.067 58.3845 271.067 58.7914C271.067 59.1983 270.766 59.6052 270.264 59.6052Z" fill="#0F3A5D"/>
<path d="M277.991 61.2331C277.589 61.2331 277.188 60.8262 277.188 60.4193C277.188 60.0124 277.589 59.6055 277.991 59.6055C278.392 59.6055 278.794 60.0124 278.794 60.4193C278.794 60.8262 278.392 61.2331 277.991 61.2331Z" fill="#0F3A5D"/>
<path d="M36.2563 138.344L34.9512 137.53L25.113 173.949C25.0126 174.458 25.3138 174.865 25.8157 174.865C26.1169 174.865 26.4181 174.661 26.5185 174.356L36.2563 138.344Z" fill="#00466E"/>
<path d="M25.9144 137.53L24.6094 138.344L34.3472 174.356C34.4476 174.661 34.7488 174.865 35.05 174.865C35.5519 174.865 35.8531 174.356 35.7527 173.949L25.9144 137.53Z" fill="#00466E"/>
<path d="M94.7876 138.344L93.4825 137.53L83.6442 173.949C83.5438 174.458 83.845 174.865 84.347 174.865C84.6481 174.865 84.9493 174.661 85.0497 174.356L94.7876 138.344Z" fill="#00466E"/>
<path d="M84.4457 137.53L83.1406 138.344L92.8785 174.356C92.9789 174.661 93.2801 174.865 93.5812 174.865C94.0832 174.865 94.3843 174.356 94.284 173.949L84.4457 137.53Z" fill="#00466E"/>
<path d="M91.4702 138.751H23.2047C22.502 138.751 22 138.242 22 137.53C22 136.818 22.502 136.31 23.2047 136.31H91.4702V138.751Z" fill="#005D92"/>
<path d="M95.482 138.751H82.4312C81.7285 138.751 81.2266 138.242 81.2266 137.53C81.2266 136.818 81.7285 136.31 82.4312 136.31H95.482C96.1847 136.31 96.6867 136.818 96.6867 137.53C96.7871 138.242 96.1847 138.751 95.482 138.751Z" fill="#337DA8"/>
<path d="M56.2344 136.31H57.0375L57.4391 138.751H56.6359L56.2344 136.31Z" fill="#00466E"/>
<path d="M55.5301 173.847L55.4297 174.254H53.4219L53.5223 173.745H53.6227L54.1246 171.405L56.2328 171.609L56.1324 172.219L56.6344 172.626L59.6461 173.542C59.6461 173.542 59.8469 173.643 59.8469 173.745V173.949V174.05C59.8469 174.05 59.8469 174.152 59.5457 174.152H56.1324L55.9316 173.847L55.7309 173.745L55.5301 173.847Z" fill="#212B53"/>
<path d="M56.4336 144.956L56.032 142.006L56.2328 140.785L41.6762 140.276V143.633L41.375 146.991L43.2824 150.449L56.534 150.958L53.723 171.711L56.8351 172.423L61.7543 149.534L60.8507 146.991L56.4336 144.956Z" fill="#01888B"/>
<path d="M74.5066 174.253L74.4062 174.66H72.3984L72.4988 174.151H72.5992V171.913L74.7074 171.71L75.109 172.626L75.6109 173.032L78.6226 173.948C78.6226 173.948 78.8234 174.05 78.8234 174.151V174.355V174.457C78.8234 174.457 78.8234 174.558 78.5223 174.558H75.109L74.9082 174.253L74.7074 174.151L74.5066 174.253Z" fill="#212B53"/>
<path d="M56.4367 144.956L56.1355 142.616L56.7379 141.09L40.9766 141.7L41.6793 143.531L41.3781 146.888L42.2816 149.33C42.5828 150.042 43.2855 150.551 43.9883 150.652L70.4913 151.771L72.198 172.422L75.3101 172.219V150.449L74.2058 148.007L56.4367 144.956Z" fill="#01888B"/>
<path d="M66.1719 104.57L67.3766 103.349L67.477 102.637L67.6777 101.721L69.0832 100.195L69.4848 100.399L68.782 101.416L68.9828 101.518L70.2879 99.585L70.9906 101.009L70.2879 102.942L69.6855 103.654L68.4809 104.57L67.477 105.79L66.1719 104.57Z" fill="#A87C4F"/>
<path d="M60.9516 111.894L60.8512 111.793C60.0481 111.081 59.1446 111.182 58.0403 111.996C55.4302 113.827 52.82 115.15 50.2099 117.489C48.8044 118.71 49.3063 119.728 49.7079 120.643L49.8083 120.847C50.6114 121.864 51.9165 122.271 52.7196 121.559C55.5306 119.015 60.7509 114.641 60.7509 114.641C61.6544 113.725 61.7548 112.606 60.9516 111.894Z" fill="#FFBEA2"/>
<path d="M68.2789 105.282L66.4718 103.857C66.4718 103.857 60.5488 109.453 58.7418 111.691C57.8383 112.81 57.5371 113.623 58.2398 114.336C58.9426 115.048 60.1472 115.455 61.2515 114.132C62.8578 112.098 68.2789 105.282 68.2789 105.282Z" fill="#FFBEA2"/>
<path d="M43.0859 136.207H46.2984H47.1016L48.1055 136.411L49.4105 136.309L49.6113 135.902L49.009 135.699H48.4066L48.507 135.597H49.8121L51.318 136.106L51.6191 135.801L50.314 134.783L48.6074 134.173L47.7039 134.275L45.7965 134.58H43.0859V136.207Z" fill="#FCCA85"/>
<path d="M33.7481 136.207L33.9489 136.309C34.9528 136.614 35.6556 136.106 36.3583 134.885C37.8641 132.036 40.5747 125.933 41.8798 122.677C42.5825 120.948 41.679 120.236 40.8759 119.625L40.6751 119.524C39.4704 118.913 38.2657 119.524 37.8641 120.643C36.4587 124.203 32.7442 133.868 32.7442 133.868C32.4431 134.885 32.7442 135.902 33.7481 136.207Z" fill="#FFBEA2"/>
<path d="M44.9924 136.309L45.5948 134.376C45.5948 134.376 38.0655 133.257 35.1542 132.952C33.7487 132.85 32.8452 133.156 32.7448 134.173C32.544 135.19 33.046 136.309 34.7526 136.411C37.2624 136.614 44.9924 136.309 44.9924 136.309Z" fill="#FFBEA2"/>
<path d="M45.6748 114.987L42.9297 115.599L43.8785 119.97L46.6237 119.358L45.6748 114.987Z" fill="#A87C4F"/>
<path d="M47.1019 111.895C47.8047 113.726 47.1019 115.76 45.4957 116.371C43.8894 116.981 42.0824 115.964 41.3797 114.133C41.2793 113.827 39.8738 110.572 39.7734 110.267L40.5766 108.843L42.6848 107.317L44.793 107.113C44.793 107.215 45.7969 107.52 46.1984 108.741C46.6 109.758 47.1019 111.691 47.1019 111.895Z" fill="#A87C4F"/>
<path d="M45.8955 107.113C46.1966 105.892 45.5943 105.282 45.1927 105.079C44.9919 104.977 44.2892 104.875 42.9841 105.689C41.6791 106.503 41.4783 105.791 40.7755 106.401C39.5709 107.317 38.8681 109.453 39.2697 110.979C39.5709 112.098 40.5748 113.319 41.0767 113.827L41.7794 114.946C42.0806 115.353 42.4822 115.557 42.9841 115.455L43.988 115.252C44.3896 115.15 44.49 115.15 44.7912 114.845L44.8915 114.641C45.1927 114.234 45.2931 113.726 45.2931 113.115L45.1927 111.894L44.9919 110.979L45.2931 110.572L45.6947 111.284L45.9958 110.979C45.8955 110.775 45.8955 110.165 45.6947 109.656C45.6947 109.555 45.7951 109.351 45.7951 109.249C45.5943 108.843 45.3935 108.334 45.2931 108.13C45.5943 107.927 45.7951 107.724 45.8955 107.113Z" fill="#231F20"/>
<path d="M45.9953 111.081C45.9953 111.081 46.4973 112.404 46.698 112.505C46.8988 112.607 47.2 112.302 47.2 112.302C47.2 112.302 47.3004 112.607 47.4008 112.81C47.4008 113.014 47.6016 114.336 47.3004 115.049C46.9992 115.761 46.1961 116.066 46.1961 116.066C46.1961 116.066 46.1961 116.066 46.1961 115.964C46.1961 115.761 46.2965 115.252 46.2965 115.15C46.3969 114.947 46.1961 112.912 46.0957 112.709C45.9953 112.505 45.5938 111.386 45.5938 111.386L45.9953 111.081Z" fill="#231F20"/>
<path d="M46.7964 117.693H47.1979L50.6112 116.98C52.7194 117.082 53.7233 118.71 53.9241 120.439L55.3296 129.29L55.7311 132.24L57.0362 141.396L56.3335 143.227L41.6765 143.735L40.6726 141.904L40.9737 133.359L39.0663 128.985L37.5605 123.389C37.3597 122.169 37.4601 120.032 39.0663 119.32C39.9698 118.913 42.8812 118.405 42.8812 118.405C42.8812 118.405 44.2866 118.506 44.7886 118.405C45.2905 118.099 46.7964 117.693 46.7964 117.693Z" fill="#FFBEA2"/>
<path d="M48.1102 172.306H49.5156V156.436H48.1102V172.306Z" fill="#212B53"/>
<path d="M56.1347 173.745V172.728C56.1347 172.525 55.934 172.321 55.7332 172.321H41.9797C41.7789 172.321 41.5781 172.525 41.5781 172.728V173.745H56.1347Z" fill="#212B53"/>
<path d="M44.3875 175.068C44.3875 174.051 43.5844 173.237 42.5805 173.237C41.5766 173.237 40.7734 174.051 40.7734 175.068C40.7734 176.086 41.5766 176.9 42.5805 176.9C43.5844 176.9 44.3875 176.086 44.3875 175.068Z" fill="#212B53"/>
<path d="M43.6851 175.068C43.6851 174.458 43.1832 173.949 42.5809 173.949C41.9785 173.949 41.4766 174.458 41.4766 175.068C41.4766 175.679 41.9785 176.187 42.5809 176.187C43.1832 176.187 43.6851 175.679 43.6851 175.068Z" fill="#005D92"/>
<path d="M50.7156 175.068C50.7156 174.051 49.9125 173.237 48.9086 173.237C47.9047 173.237 47.1016 174.051 47.1016 175.068C47.1016 176.086 47.9047 176.9 48.9086 176.9C49.9125 176.9 50.7156 176.086 50.7156 175.068Z" fill="#212B53"/>
<path d="M56.9344 175.068C56.9344 174.051 56.1312 173.237 55.1273 173.237C54.1234 173.237 53.3203 174.051 53.3203 175.068C53.3203 176.086 54.1234 176.9 55.1273 176.9C56.1312 176.9 56.9344 176.086 56.9344 175.068Z" fill="#212B53"/>
<path d="M49.9117 175.068C49.9117 174.458 49.4098 173.949 48.8074 173.949C48.2051 173.949 47.7031 174.458 47.7031 175.068C47.7031 175.679 48.2051 176.187 48.8074 176.187C49.4098 176.187 49.9117 175.679 49.9117 175.068Z" fill="#005D92"/>
<path d="M56.3336 175.068C56.3336 174.458 55.8316 173.949 55.2293 173.949C54.627 173.949 54.125 174.458 54.125 175.068C54.125 175.679 54.627 176.187 55.2293 176.187C55.8316 176.187 56.3336 175.679 56.3336 175.068Z" fill="#005D92"/>
<path d="M50.3086 172.322H47.2969V166.726C47.2969 166.421 47.4977 166.218 47.7988 166.218H49.8066C50.1078 166.218 50.3086 166.421 50.3086 166.726V172.322Z" fill="#212B53"/>
<path opacity="0.7" d="M47.2969 172.322C47.2969 172.322 50.0074 171.61 50.3086 170.897V172.322H47.2969Z" fill="#00466E"/>
<path opacity="0.9" d="M49.2062 157.876H48.8047V166.218H49.2062V157.876Z" fill="#336B8B"/>
<path d="M56.2351 155.333C56.2351 155.333 49.4086 161.233 41.5781 155.027L56.2351 155.333Z" fill="#5C81A2"/>
<path opacity="0.4" d="M53.6238 155.333L41.4766 155.027L41.7777 155.231L52.5195 155.434C52.5195 155.434 52.7203 155.536 52.6199 155.943C52.4191 156.248 52.0176 156.452 51.5156 156.757C50.6121 157.164 48.1023 157.774 47.1988 157.672C52.3187 158.486 56.1336 155.333 56.1336 155.333H53.6238Z" fill="#00466E"/>
<path d="M39.7711 155.028L62.5597 155.435C64.0656 155.435 65.3706 154.417 65.3706 153.095C65.3706 151.874 64.3667 151.467 62.8609 151.467L39.8715 150.552C38.3656 150.552 37.0605 151.569 37.0605 152.892C36.9601 154.011 38.1648 155.028 39.7711 155.028Z" fill="#0F3A5D"/>
<g opacity="0.3">
<path opacity="0.3" d="M65.3696 153.095C65.3696 151.874 64.3657 151.467 62.8598 151.467L43.3841 150.653C43.3841 150.653 43.2837 150.959 44.8899 151.06C46.4962 151.162 53.6239 151.671 54.929 151.671C56.1336 151.671 60.5508 151.976 61.8559 152.179C63.161 152.281 64.8676 152.586 65.3696 153.502C65.3696 153.4 65.3696 153.298 65.3696 153.197V153.095Z" fill="#5C81A2"/>
</g>
<path opacity="0.3" d="M39.6717 128.273C39.6717 128.273 42.4826 127.968 43.7877 127.764C45.4943 127.561 50.2127 126.849 51.1162 129.697C52.0197 132.444 51.7185 134.987 52.1201 138.751C52.5217 142.413 52.6221 144.346 52.2205 145.77C51.8189 147.194 48.4057 147.398 46.3979 147.398C42.583 147.296 41.5791 147.5 40.8764 146.381C39.8725 144.753 38.969 139.158 38.467 137.428C37.9651 135.699 35.6561 129.595 39.6717 128.273Z" fill="#005D92"/>
<path d="M42.5814 147.093H48.3036C48.6048 147.093 48.8056 147.093 49.1068 146.992L51.0142 146.585C51.1146 146.585 51.1146 146.585 51.215 146.483C51.8173 146.076 52.0181 145.16 51.9177 143.94C51.8173 141.702 51.215 138.65 50.9138 136.717L50.5122 131.122C50.0103 128.07 48.906 127.765 45.1915 127.765L39.0677 128.172C35.9556 128.68 35.5541 130.715 36.056 133.767L37.6623 139.26C38.2646 142.414 39.0677 147.093 42.5814 147.093Z" fill="#0F3A5D"/>
<path d="M50.8141 136.818L50.4125 131.223C49.9106 128.171 48.8063 127.866 45.0918 127.866L39.1688 128.273C38.6668 128.375 38.1649 128.477 37.7633 128.68C36.7594 129.087 36.2575 129.697 36.7594 129.596C36.8598 129.596 37.5625 128.884 39.0684 128.68C41.8793 128.375 45.1922 128.171 46.3969 128.477C47.3004 128.782 47.8024 129.596 48.0031 131.223L48.4047 136.818C48.7059 138.548 49.6094 142.007 49.6094 144.346C49.6094 146.076 48.9067 147.093 48.7059 147.093L50.9145 146.584H51.0149C52.7215 145.567 51.4164 139.769 50.8141 136.818Z" fill="#5C81A2"/>
<path d="M45.891 154.418L43.4816 136.412L42.5781 136.514L45.0879 154.316C45.2887 154.316 45.5898 154.316 45.891 154.418Z" fill="#0F3A5D"/>
<path d="M81.9332 135.191H66.1719L68.8824 126.442C68.9828 126.238 69.0832 126.137 69.284 126.137H84.1418C84.4429 126.137 84.6437 126.442 84.5433 126.747L81.9332 135.191Z" fill="#003553"/>
<path d="M81.5343 134.275H67.0781L69.3871 126.646H83.9437L81.5343 134.275Z" fill="white"/>
<path opacity="0.7" d="M81.5343 134.275H67.0781L69.3871 126.646H83.9437L81.5343 134.275Z" fill="#E4F2FB"/>
<path d="M81.7355 136.309H58.0434C57.8426 136.309 57.7422 136.106 57.7422 136.004V135.292H81.9363V136.208C81.9363 136.208 81.8359 136.309 81.7355 136.309Z" fill="#00466E"/>
<path d="M81.7351 136.309H71.3949C71.1941 136.309 71.0938 136.106 71.0938 136.004V135.292H81.9359V136.208C81.9359 136.208 81.8355 136.309 81.7351 136.309Z" fill="#336B8B"/>
<path d="M81.8363 131.223L81.234 131.324C81.1336 131.324 80.8324 131.223 80.732 131.223L80.5312 130.917C80.4308 130.816 80.3304 130.816 80.2301 130.917L80.0293 131.121C79.9289 131.223 79.8285 131.223 79.7281 131.121L79.6277 131.019C79.5273 130.917 79.4269 130.917 79.3265 131.019C79.2261 131.121 79.1258 131.121 79.0254 131.019L78.5234 130.104C78.423 130.002 78.2222 130.002 78.2222 130.104L77.3187 132.138C77.3187 132.24 77.1179 132.24 77.0176 132.24C76.9172 132.138 76.8168 132.24 76.8168 132.24L76.7164 132.342L76.5156 132.24H76.2144C76.114 132.24 76.0137 132.24 76.0137 132.342L75.9133 132.545C75.9133 132.647 75.7125 132.749 75.6121 132.647C75.5117 132.545 75.4113 132.647 75.3109 132.647L75.0098 133.156C75.0098 133.257 74.9094 133.257 74.809 133.257L74.6082 133.156C74.6082 133.156 74.5078 133.156 74.4074 133.156L74.1062 133.257C74.0058 133.257 73.9054 133.257 73.9054 133.257L73.8051 133.156C73.7047 133.054 73.6043 133.054 73.5039 133.156C73.5039 133.257 73.4035 133.257 73.3031 133.257L73.0019 133.156C72.9016 133.156 72.9015 133.156 72.8012 133.156L72.3996 133.359C72.3996 133.359 72.2992 133.359 72.1988 133.359L71.8976 133.257H71.7973L71.4961 133.359C71.3957 133.359 71.3957 133.359 71.2953 133.359L70.9941 133.156C70.8937 133.156 70.7933 133.156 70.7933 133.156L70.3918 133.461L69.8898 133.664C69.8898 133.664 69.7894 133.664 69.6891 133.664L69.3879 133.562L68.384 133.461H67.6812C67.6812 133.461 67.6812 133.461 67.5809 133.461L66.8781 133.664C66.7777 133.664 66.7777 133.766 66.6773 133.766L66.4766 134.275H80.9328L81.7359 131.63C82.3382 131.63 81.9367 131.223 81.8363 131.223Z" fill="#FF8A59"/>
<path d="M103.619 166.929C103.619 166.929 100.105 165.098 100.205 162.962C100.406 159.096 102.514 158.689 101.912 156.248C101.31 153.806 104.12 151.161 105.225 152.789C106.329 154.315 105.124 155.23 105.727 156.146C106.429 156.96 106.63 159.096 105.827 160.52C105.024 161.945 109.441 163.471 106.429 165.912C104.522 167.54 103.619 166.929 103.619 166.929Z" fill="#BAD875"/>
<path d="M104.118 167.031C104.118 167.031 103.415 163.775 103.215 162.351C103.014 160.927 103.315 160.215 103.516 159.503C103.717 158.892 103.917 158.282 103.817 157.366C103.717 155.332 104.118 153.195 104.118 153.094C104.118 153.094 103.717 155.332 103.817 157.366C103.917 158.282 103.717 158.791 103.516 159.401C103.315 160.113 103.014 160.825 103.215 162.249C103.315 163.775 104.018 167.031 104.118 167.031Z" fill="#8BA258"/>
<path opacity="0.2" d="M104.818 166.726C104.818 166.726 103.413 163.471 104.517 162.148C106.525 159.808 108.031 160.622 108.934 158.791C109.838 156.96 112.849 156.756 112.749 158.282C112.649 159.808 111.444 159.808 111.444 160.622C111.444 161.436 110.641 162.962 109.336 163.471C108.131 163.979 109.637 165.607 106.826 166.421C104.919 166.929 104.818 166.726 104.818 166.726Z" fill="#63C0C4"/>
<path d="M105.016 166.624C105.016 166.624 106.12 164.183 106.722 163.267C107.325 162.352 107.827 161.945 108.329 161.64C108.73 161.334 109.132 161.131 109.533 160.521C110.437 159.198 111.742 158.079 111.842 158.079C111.842 158.079 110.437 159.3 109.533 160.622C109.132 161.233 108.73 161.436 108.329 161.741C107.827 162.047 107.325 162.453 106.722 163.369C106.12 164.285 105.016 166.624 105.016 166.624Z" fill="#8BA258"/>
<path opacity="0.2" d="M103.014 166.726C103.014 166.726 104.52 163.267 103.316 161.843C101.107 159.402 99.6011 160.215 98.6976 158.283C97.7941 156.35 94.5816 156.146 94.682 157.774C94.7824 159.402 96.0875 159.3 96.0875 160.215C96.0875 161.131 96.991 162.657 98.296 163.166C99.6011 163.674 97.9949 165.505 101.007 166.319C103.014 166.93 103.014 166.726 103.014 166.726Z" fill="#63C0C4"/>
<path d="M102.916 166.624C102.916 166.624 101.711 164.081 101.109 163.064C100.506 162.047 100.004 161.64 99.4019 161.334C98.9 161.029 98.4984 160.724 98.0969 160.114C97.093 158.689 95.6875 157.469 95.6875 157.469C95.6875 157.469 97.1934 158.689 98.0969 160.114C98.4984 160.724 99.0004 161.029 99.4019 161.334C99.9039 161.64 100.506 162.047 101.109 163.064C101.711 164.081 102.916 166.624 102.916 166.624Z" fill="#8BA258"/>
<path d="M103.016 164.488C103.016 164.488 103.518 164.183 103.518 163.98C103.618 163.776 103.417 163.675 103.317 163.776C103.116 163.878 103.116 163.98 103.016 164.488Z" fill="#337DA8"/>
<path d="M103.417 163.776C103.417 163.776 103.216 163.98 103.016 164.387C103.016 164.488 103.317 163.878 103.417 163.776Z" fill="#265E7E"/>
<path d="M101.109 160.216C101.109 160.216 101.411 159.707 101.411 159.605C101.411 159.402 101.21 159.3 101.109 159.503C101.109 159.707 101.109 159.809 101.109 160.216Z" fill="#337DA8"/>
<path d="M101.308 159.504C101.308 159.504 101.208 159.707 101.208 160.216C101.108 160.216 101.308 159.606 101.308 159.504Z" fill="#265E7E"/>
<path d="M101.609 161.131C101.609 161.131 102.111 160.826 102.111 160.622C102.212 160.419 102.011 160.317 101.911 160.419C101.81 160.622 101.81 160.724 101.609 161.131Z" fill="#337DA8"/>
<path d="M102.011 160.521C102.011 160.521 101.81 160.724 101.609 161.131C101.609 161.131 102.011 160.622 102.011 160.521Z" fill="#265E7E"/>
<path d="M101.609 161.03C101.609 161.03 101.007 161.03 100.906 160.928C100.706 160.827 100.806 160.623 101.007 160.623C101.207 160.623 101.207 160.725 101.609 161.03Z" fill="#337DA8"/>
<path d="M100.906 160.725C100.906 160.725 101.107 160.826 101.609 161.03C101.609 161.03 101.007 160.725 100.906 160.725Z" fill="#265E7E"/>
<path d="M102.007 161.843C102.007 161.843 101.405 161.843 101.305 161.742C101.104 161.64 101.204 161.437 101.405 161.437C101.606 161.538 101.706 161.64 102.007 161.843Z" fill="#337DA8"/>
<path d="M101.406 161.64C101.406 161.64 101.607 161.741 102.109 161.945C102.009 161.843 101.406 161.64 101.406 161.64Z" fill="#265E7E"/>
<path d="M102.51 162.962C102.51 162.962 101.907 163.064 101.807 162.962C101.606 162.861 101.606 162.657 101.807 162.657C102.108 162.657 102.108 162.759 102.51 162.962Z" fill="#337DA8"/>
<path d="M101.805 162.759C101.805 162.759 102.005 162.759 102.507 162.962C102.507 162.962 101.905 162.861 101.805 162.759Z" fill="#265E7E"/>
<path d="M102.916 164.183C102.916 164.183 102.313 164.285 102.213 164.183C102.012 164.081 102.012 163.878 102.213 163.878C102.414 163.878 102.514 163.878 102.916 164.183Z" fill="#337DA8"/>
<path d="M102.211 163.979C102.211 163.979 102.412 163.979 102.914 164.183C102.914 164.183 102.311 163.979 102.211 163.979Z" fill="#265E7E"/>
<path d="M101.109 160.114C101.109 160.114 100.507 160.114 100.406 160.012C100.206 159.91 100.306 159.707 100.507 159.707C100.607 159.707 100.707 159.809 101.109 160.114Z" fill="#337DA8"/>
<path d="M100.406 159.809C100.406 159.809 100.607 159.91 101.109 160.114C101.009 160.114 100.406 159.91 100.406 159.809Z" fill="#265E7E"/>
<path d="M100.507 159.3C100.507 159.3 99.9051 159.3 99.8048 159.199C99.604 159.097 99.7044 158.894 99.9051 158.894C100.106 158.894 100.106 158.995 100.507 159.3Z" fill="#337DA8"/>
<path d="M99.8047 158.995C99.8047 158.995 100.005 159.097 100.507 159.3C100.507 159.3 99.9051 159.097 99.8047 158.995Z" fill="#265E7E"/>
<path d="M99.8044 158.384C99.8044 158.384 99.202 158.384 99.1016 158.283C98.9008 158.181 99.0012 157.978 99.202 157.978C99.4028 158.079 99.4028 158.079 99.8044 158.384Z" fill="#337DA8"/>
<path d="M99.1016 158.181C99.1016 158.181 99.3023 158.282 99.8043 158.486C99.8043 158.384 99.202 158.181 99.1016 158.181Z" fill="#265E7E"/>
<path d="M99.0967 157.774C99.0967 157.774 98.5947 157.875 98.4943 157.875C98.2936 157.774 98.2936 157.672 98.4943 157.57C98.6951 157.57 98.6951 157.57 99.0967 157.774Z" fill="#337DA8"/>
<path d="M98.4922 157.672C98.4922 157.672 98.693 157.672 99.0945 157.774L98.4922 157.672Z" fill="#265E7E"/>
<path d="M98.598 157.266C98.598 157.266 98.096 157.164 97.9956 157.164C97.8952 157.062 97.8952 156.859 98.096 156.96C98.2968 156.96 98.2968 157.062 98.598 157.266Z" fill="#337DA8"/>
<path d="M97.9922 156.96C97.9922 156.96 98.193 157.062 98.4941 157.265C98.5945 157.265 98.0926 157.062 97.9922 156.96Z" fill="#265E7E"/>
<path d="M102.211 162.148C102.211 162.148 102.713 161.843 102.713 161.64C102.813 161.436 102.613 161.335 102.512 161.436C102.311 161.64 102.311 161.742 102.211 162.148Z" fill="#337DA8"/>
<path d="M102.511 161.538C102.511 161.538 102.31 161.742 102.109 162.148C102.21 162.148 102.511 161.64 102.511 161.538Z" fill="#265E7E"/>
<path d="M102.617 163.166C102.617 163.166 103.119 162.861 103.119 162.657C103.22 162.454 103.019 162.352 102.918 162.454C102.718 162.657 102.718 162.759 102.617 163.166Z" fill="#337DA8"/>
<path d="M103.019 162.556C103.019 162.556 102.818 162.759 102.617 163.166C102.617 163.166 102.918 162.657 103.019 162.556Z" fill="#265E7E"/>
<path d="M100.508 159.402C100.508 159.402 100.809 158.893 100.809 158.792C100.809 158.588 100.608 158.487 100.508 158.69C100.508 158.893 100.508 158.893 100.508 159.402Z" fill="#337DA8"/>
<path d="M100.706 158.69C100.706 158.69 100.606 158.894 100.606 159.403C100.506 159.403 100.706 158.792 100.706 158.69Z" fill="#265E7E"/>
<path d="M99.8047 158.588C99.8047 158.588 100.106 158.079 100.106 157.977C100.106 157.774 99.9051 157.672 99.8047 157.876C99.8047 157.977 99.8047 158.079 99.8047 158.588Z" fill="#337DA8"/>
<path d="M100.003 157.876C100.003 157.876 99.903 158.079 99.903 158.588C99.803 158.588 100.003 157.876 100.003 157.876Z" fill="#265E7E"/>
<path d="M99.197 157.875C99.197 157.875 99.4981 157.469 99.4981 157.367C99.4981 157.163 99.2974 157.163 99.2974 157.265C99.0966 157.367 99.197 157.469 99.197 157.875Z" fill="#337DA8"/>
<path d="M99.2953 157.265C99.2953 157.265 99.1953 157.468 99.1953 157.875L99.2953 157.265Z" fill="#265E7E"/>
<path d="M103.521 167.133C103.521 167.133 103.42 165.607 102.718 163.573C102.115 161.742 100.911 159.198 98.6016 157.367C99.6055 158.181 100.509 159.198 101.212 160.419C101.814 161.335 102.316 162.454 102.718 163.573C103.42 165.506 103.521 167.031 103.521 167.133Z" fill="#265E7E"/>
<path d="M104.82 164.285C104.82 164.285 104.418 163.98 104.418 163.878C104.318 163.675 104.518 163.573 104.619 163.675C104.719 163.776 104.719 163.878 104.82 164.285Z" fill="#337DA8"/>
<path d="M104.516 163.675C104.516 163.675 104.616 163.878 104.817 164.285C104.817 164.183 104.516 163.777 104.516 163.675Z" fill="#265E7E"/>
<path d="M106.629 160.521C106.629 160.521 106.328 160.114 106.328 159.911C106.328 159.707 106.529 159.707 106.629 159.809C106.629 160.012 106.629 160.114 106.629 160.521Z" fill="#337DA8"/>
<path d="M106.528 159.809C106.528 159.809 106.628 160.012 106.628 160.419C106.628 160.521 106.428 159.91 106.528 159.809Z" fill="#265E7E"/>
<path d="M106.124 161.335C106.124 161.335 105.723 161.03 105.723 160.928C105.622 160.724 105.823 160.623 105.923 160.724C106.024 160.826 106.024 160.928 106.124 161.335Z" fill="#337DA8"/>
<path d="M105.727 160.725C105.727 160.725 105.827 160.928 106.028 161.335C106.128 161.335 105.827 160.826 105.727 160.725Z" fill="#265E7E"/>
<path d="M106.125 161.132C106.125 161.132 106.627 161.132 106.727 161.03C106.828 160.928 106.828 160.725 106.627 160.725C106.527 160.826 106.527 160.928 106.125 161.132Z" fill="#337DA8"/>
<path d="M106.727 160.928C106.727 160.928 106.527 161.029 106.125 161.131C106.125 161.131 106.727 160.928 106.727 160.928Z" fill="#265E7E"/>
<path d="M105.727 161.945C105.727 161.945 106.229 161.945 106.329 161.843C106.429 161.742 106.429 161.538 106.229 161.538C106.128 161.64 106.028 161.742 105.727 161.945Z" fill="#337DA8"/>
<path d="M106.329 161.741C106.329 161.741 106.128 161.843 105.727 161.945L106.329 161.741Z" fill="#265E7E"/>
<path d="M105.328 162.962C105.328 162.962 105.83 163.064 105.93 162.962C106.131 162.861 106.031 162.657 105.93 162.657C105.73 162.657 105.629 162.759 105.328 162.962Z" fill="#337DA8"/>
<path d="M105.93 162.759C105.93 162.759 105.73 162.759 105.328 162.962C105.328 162.962 105.83 162.861 105.93 162.759Z" fill="#265E7E"/>
<path d="M104.922 163.98C104.922 163.98 105.424 164.082 105.524 163.98C105.725 163.878 105.625 163.675 105.524 163.675C105.323 163.675 105.223 163.777 104.922 163.98Z" fill="#337DA8"/>
<path d="M105.524 163.776C105.524 163.776 105.323 163.776 104.922 163.98C104.922 163.98 105.524 163.878 105.524 163.776Z" fill="#265E7E"/>
<path d="M106.633 160.42C106.633 160.42 107.135 160.42 107.235 160.318C107.336 160.216 107.336 160.013 107.135 160.013C107.034 160.114 107.034 160.114 106.633 160.42Z" fill="#337DA8"/>
<path d="M107.235 160.114C107.235 160.114 107.034 160.216 106.633 160.318C106.633 160.419 107.235 160.216 107.235 160.114Z" fill="#265E7E"/>
<path d="M107.234 159.707C107.234 159.707 107.736 159.707 107.837 159.605C107.937 159.503 107.937 159.3 107.736 159.3C107.636 159.402 107.536 159.402 107.234 159.707Z" fill="#337DA8"/>
<path d="M107.837 159.401C107.837 159.401 107.636 159.503 107.234 159.605C107.234 159.707 107.736 159.503 107.837 159.401Z" fill="#265E7E"/>
<path d="M107.836 158.893C107.836 158.893 108.338 158.893 108.438 158.792C108.539 158.69 108.539 158.486 108.338 158.486C108.238 158.588 108.137 158.588 107.836 158.893Z" fill="#337DA8"/>
<path d="M108.438 158.689C108.438 158.689 108.237 158.791 107.836 158.893L108.438 158.689Z" fill="#265E7E"/>
<path d="M108.539 158.283C108.539 158.283 108.941 158.384 109.041 158.384C109.141 158.283 109.242 158.181 109.041 158.181C108.84 158.079 108.84 158.181 108.539 158.283Z" fill="#337DA8"/>
<path d="M109.04 158.181C109.04 158.181 108.839 158.181 108.438 158.282C108.538 158.282 109.04 158.282 109.04 158.181Z" fill="#265E7E"/>
<path d="M108.938 157.876C108.938 157.876 109.339 157.876 109.439 157.774C109.54 157.672 109.54 157.469 109.339 157.571C109.239 157.571 109.239 157.672 108.938 157.876Z" fill="#337DA8"/>
<path d="M109.439 157.673C109.439 157.673 109.239 157.775 108.938 157.978C108.938 157.876 109.439 157.673 109.439 157.673Z" fill="#265E7E"/>
<path d="M105.624 162.25C105.624 162.25 105.223 161.945 105.223 161.843C105.122 161.64 105.323 161.538 105.423 161.64C105.524 161.741 105.524 161.843 105.624 162.25Z" fill="#337DA8"/>
<path d="M105.32 161.64C105.32 161.64 105.421 161.843 105.621 162.25C105.621 162.25 105.32 161.741 105.32 161.64Z" fill="#265E7E"/>
<path d="M105.226 163.064C105.226 163.064 104.824 162.759 104.824 162.657C104.724 162.454 104.925 162.352 105.025 162.454C105.125 162.657 105.125 162.657 105.226 163.064Z" fill="#337DA8"/>
<path d="M104.922 162.556C104.922 162.556 105.022 162.759 105.223 163.166C105.223 163.064 104.922 162.556 104.922 162.556Z" fill="#265E7E"/>
<path d="M107.129 159.707C107.129 159.707 106.828 159.3 106.828 159.096C106.828 158.893 107.029 158.893 107.129 158.995C107.23 159.3 107.23 159.3 107.129 159.707Z" fill="#337DA8"/>
<path d="M107.031 159.097C107.031 159.097 107.131 159.3 107.131 159.707C107.131 159.707 107.031 159.198 107.031 159.097Z" fill="#265E7E"/>
<path d="M107.832 158.995C107.832 158.995 107.531 158.588 107.531 158.384C107.531 158.181 107.732 158.181 107.832 158.283C107.832 158.486 107.832 158.588 107.832 158.995Z" fill="#337DA8"/>
<path d="M107.734 158.385C107.734 158.385 107.834 158.588 107.834 158.995C107.834 158.995 107.734 158.385 107.734 158.385Z" fill="#265E7E"/>
<path d="M108.434 158.384C108.434 158.384 108.234 157.977 108.234 157.876C108.234 157.672 108.434 157.672 108.434 157.774C108.434 157.977 108.434 158.079 108.434 158.384Z" fill="#337DA8"/>
<path d="M108.336 157.876C108.336 157.876 108.436 158.079 108.436 158.385L108.336 157.876Z" fill="#265E7E"/>
<path d="M104.32 166.625C104.32 166.625 104.521 165.2 105.123 163.471C105.726 161.843 106.93 159.605 108.938 157.978C108.035 158.69 107.232 159.605 106.529 160.622C105.927 161.436 105.525 162.454 105.123 163.471C104.421 165.2 104.32 166.625 104.32 166.625Z" fill="#265E7E"/>
<path d="M104.117 163.572C104.117 163.572 103.515 163.267 103.414 163.064C103.314 162.86 103.414 162.657 103.615 162.759C103.816 162.962 103.916 163.064 104.117 163.572Z" fill="#005D92"/>
<path d="M103.516 162.86C103.516 162.86 103.716 163.064 104.118 163.572C104.118 163.572 103.616 162.962 103.516 162.86Z" fill="#00466E"/>
<path d="M105.627 158.079C105.627 158.079 105.125 157.57 105.125 157.367C105.125 157.062 105.326 156.96 105.426 157.163C105.627 157.367 105.627 157.469 105.627 158.079Z" fill="#005D92"/>
<path d="M105.328 157.163C105.328 157.163 105.429 157.468 105.629 157.977C105.629 157.977 105.328 157.265 105.328 157.163Z" fill="#00466E"/>
<path d="M105.125 159.198C105.125 159.198 104.523 158.893 104.422 158.69C104.322 158.486 104.422 158.283 104.623 158.384C104.924 158.588 104.924 158.69 105.125 159.198Z" fill="#005D92"/>
<path d="M104.523 158.486C104.523 158.486 104.724 158.69 105.126 159.198C105.126 159.198 104.624 158.588 104.523 158.486Z" fill="#00466E"/>
<path d="M105.227 158.995C105.227 158.995 105.929 158.893 106.03 158.791C106.23 158.588 106.13 158.384 105.929 158.486C105.628 158.486 105.528 158.588 105.227 158.995Z" fill="#005D92"/>
<path d="M106.03 158.588C106.03 158.588 105.729 158.69 105.227 159.097C105.227 158.995 105.929 158.588 106.03 158.588Z" fill="#00466E"/>
<path d="M104.82 160.215C104.82 160.215 105.523 160.114 105.623 160.012C105.824 159.808 105.724 159.605 105.523 159.707C105.222 159.707 105.222 159.808 104.82 160.215Z" fill="#005D92"/>
<path d="M105.623 159.707C105.623 159.707 105.322 159.809 104.82 160.216C104.82 160.216 105.523 159.809 105.623 159.707Z" fill="#00466E"/>
<path d="M104.422 161.741C104.422 161.741 105.125 161.741 105.225 161.538C105.426 161.334 105.325 161.131 105.125 161.131C104.924 161.233 104.823 161.334 104.422 161.741Z" fill="#005D92"/>
<path d="M105.225 161.334C105.225 161.334 104.924 161.436 104.422 161.741C104.422 161.741 105.225 161.334 105.225 161.334Z" fill="#00466E"/>
<path d="M104.117 163.165C104.117 163.165 104.82 163.165 104.92 162.962C105.121 162.758 105.021 162.555 104.82 162.555C104.619 162.758 104.519 162.86 104.117 163.165Z" fill="#005D92"/>
<path d="M105.023 162.86C105.023 162.86 104.722 162.962 104.22 163.267C104.119 163.166 104.922 162.86 105.023 162.86Z" fill="#00466E"/>
<path d="M105.727 157.875C105.727 157.875 106.429 157.773 106.53 157.672C106.73 157.468 106.63 157.265 106.429 157.367C106.128 157.265 106.028 157.367 105.727 157.875Z" fill="#005D92"/>
<path d="M106.428 157.366C106.428 157.366 106.127 157.468 105.625 157.875C105.725 157.875 106.428 157.468 106.428 157.366Z" fill="#00466E"/>
<path d="M106.227 156.756C106.227 156.756 106.929 156.654 107.03 156.553C107.23 156.349 107.13 156.146 106.929 156.247C106.729 156.146 106.628 156.247 106.227 156.756Z" fill="#005D92"/>
<path d="M107.03 156.247C107.03 156.247 106.729 156.349 106.227 156.756C106.227 156.654 106.929 156.247 107.03 156.247Z" fill="#00466E"/>
<path d="M106.93 155.434C106.93 155.434 107.632 155.332 107.733 155.231C107.934 155.027 107.833 154.824 107.632 154.925C107.432 154.925 107.331 155.027 106.93 155.434Z" fill="#005D92"/>
<path d="M107.733 155.027C107.733 155.027 107.432 155.129 106.93 155.536C106.93 155.434 107.632 155.027 107.733 155.027Z" fill="#00466E"/>
<path d="M107.734 154.518C107.734 154.518 108.337 154.62 108.437 154.518C108.638 154.416 108.638 154.213 108.437 154.213C108.136 154.111 108.136 154.213 107.734 154.518Z" fill="#005D92"/>
<path d="M108.437 154.314C108.437 154.314 108.136 154.314 107.734 154.518C107.734 154.518 108.337 154.314 108.437 154.314Z" fill="#00466E"/>
<path d="M108.234 153.908C108.234 153.908 108.837 153.704 108.937 153.603C109.038 153.399 108.937 153.196 108.736 153.298C108.536 153.399 108.536 153.501 108.234 153.908Z" fill="#005D92"/>
<path d="M108.837 153.399C108.837 153.399 108.636 153.501 108.234 153.908C108.234 153.908 108.837 153.501 108.837 153.399Z" fill="#00466E"/>
<path d="M104.727 160.622C104.727 160.622 104.124 160.317 104.024 160.113C103.923 159.91 104.024 159.707 104.225 159.808C104.425 160.012 104.526 160.113 104.727 160.622Z" fill="#005D92"/>
<path d="M104.125 159.91C104.125 159.91 104.326 160.114 104.727 160.622C104.727 160.622 104.125 160.012 104.125 159.91Z" fill="#00466E"/>
<path d="M104.422 161.944C104.422 161.944 103.819 161.639 103.719 161.436C103.619 161.232 103.719 161.029 103.92 161.131C104.121 161.334 104.121 161.436 104.422 161.944Z" fill="#005D92"/>
<path d="M103.82 161.232C103.82 161.232 104.021 161.436 104.423 161.945C104.423 161.945 103.82 161.334 103.82 161.232Z" fill="#00466E"/>
<path d="M106.229 156.858C106.229 156.858 105.727 156.35 105.727 156.146C105.727 155.841 105.927 155.739 106.028 155.943C106.128 156.146 106.128 156.248 106.229 156.858Z" fill="#005D92"/>
<path d="M105.93 155.942C105.93 155.942 106.03 156.248 106.231 156.756C106.231 156.858 105.93 156.044 105.93 155.942Z" fill="#00466E"/>
<path d="M106.932 155.638C106.932 155.638 106.43 155.129 106.43 154.925C106.43 154.722 106.63 154.519 106.731 154.722C106.932 155.027 106.932 155.129 106.932 155.638Z" fill="#005D92"/>
<path d="M106.633 154.823C106.633 154.823 106.733 155.128 106.934 155.637C106.934 155.637 106.633 154.925 106.633 154.823Z" fill="#00466E"/>
<path d="M107.534 154.62C107.534 154.62 107.133 154.213 107.133 154.01C107.133 153.807 107.334 153.705 107.434 153.807C107.534 154.112 107.534 154.213 107.534 154.62Z" fill="#005D92"/>
<path d="M107.336 153.908C107.336 153.908 107.436 154.112 107.637 154.62C107.537 154.62 107.336 154.01 107.336 153.908Z" fill="#00466E"/>
<path d="M104.019 167.031C104.019 167.031 103.919 165.098 104.321 162.453C104.722 160.114 105.826 156.655 108.236 153.908C107.132 155.129 106.228 156.553 105.525 158.181C104.923 159.503 104.521 160.928 104.321 162.453C103.819 164.997 103.919 166.93 104.019 167.031Z" fill="#00466E"/>
<path d="M108.538 174.865H99.9043C99.8039 174.865 99.7035 174.763 99.7035 174.661L98.3984 166.625C98.3984 166.523 98.4988 166.319 98.5992 166.319H109.843C109.943 166.319 110.144 166.421 110.044 166.625L108.739 174.661C108.739 174.763 108.638 174.865 108.538 174.865Z" fill="#005D92"/>
<path opacity="0.2" d="M104.616 168.049C103.813 167.642 98.4922 167.744 98.4922 167.744L99.5965 174.661C99.5965 174.763 99.6969 174.865 99.7973 174.865H106.423C106.624 174.458 106.925 173.949 107.025 173.135C107.327 170.694 105.419 168.456 104.616 168.049Z" fill="#63C0C4"/>
<path opacity="0.3" d="M108.734 174.661L110.039 166.625C110.039 166.523 109.938 166.319 109.838 166.319H98.4938C98.3934 166.319 98.1926 166.421 98.293 166.625L98.4938 167.744C98.4938 167.744 103.212 167.438 104.618 168.049C105.923 168.557 107.328 170.694 107.027 173.135C106.927 173.847 106.726 174.458 106.425 174.865H108.432C108.633 174.865 108.734 174.763 108.734 174.661Z" fill="#00466E"/>
<path opacity="0.2" d="M110.141 166.319H98.2948C98.0941 166.319 97.9937 166.421 98.0941 166.625C98.0941 166.625 98.0941 167.235 98.1945 167.337H98.4956H110.041C110.041 167.337 110.241 167.337 110.342 167.337C110.442 167.235 110.442 166.625 110.442 166.625C110.342 166.523 110.241 166.319 110.141 166.319Z" fill="#63C0C4"/>
<g opacity="0.5">
<path opacity="0.5" d="M110.141 166.319H98.2945C98.1941 166.319 98.0938 166.421 98.0938 166.421C98.1941 166.421 98.2945 166.421 98.4953 166.421C99.2984 166.421 101.708 166.421 102.712 166.421C103.816 166.421 105.824 166.421 106.225 166.421C106.727 166.421 107.631 166.421 108.233 166.421C108.635 166.421 109.839 166.421 110.241 166.319C110.241 166.421 110.241 166.319 110.141 166.319Z" fill="#669EBE"/>
</g>
<path d="M162.45 66.6243C161.145 66.6243 160.141 65.607 160.141 64.2845V26.5429C160.141 25.2204 161.145 24.2031 162.45 24.2031H231.819C233.124 24.2031 234.128 25.2204 234.128 26.5429V64.2845C234.128 65.607 233.124 66.6243 231.819 66.6243H162.45Z" fill="white"/>
<path d="M231.817 24.3052C233.022 24.3052 234.026 25.3225 234.026 26.5432V64.2848C234.026 65.5056 233.022 66.5229 231.817 66.5229H162.447C161.243 66.5229 160.239 65.5056 160.239 64.2848V26.5432C160.239 25.3225 161.243 24.3052 162.447 24.3052H231.817V24.3052ZM231.817 24H162.447C161.042 24 159.938 25.119 159.938 26.5432V64.2848C159.938 65.7091 161.042 66.8281 162.447 66.8281H231.817C233.223 66.8281 234.327 65.7091 234.327 64.2848V26.5432C234.327 25.119 233.122 24 231.817 24Z" fill="#086166"/>
<path d="M184.535 29.3916V45.9735H168.172C168.172 55.1291 175.5 62.5554 184.535 62.5554C193.571 62.5554 200.899 55.1291 200.899 45.9735C200.799 36.8178 193.571 29.3916 184.535 29.3916Z" fill="#0F3A5D"/>
<path d="M168.172 45.9734H184.535L178.512 30.6123C172.388 32.9521 168.172 38.9541 168.172 45.9734Z" fill="#FF8A59"/>
<path d="M178.516 30.5106L184.539 45.8718V29.3916C182.33 29.3916 180.323 29.7985 178.516 30.5106Z" fill="#FFBEA2"/>
<path d="M178.616 30.8158C180.523 30.002 182.531 29.6968 184.539 29.6968V29.3916C182.431 29.3916 180.423 29.7985 178.516 30.6124L178.616 30.8158Z" fill="#D6E8AC"/>
<path d="M184.535 29.3916V29.6968C193.37 29.6968 200.598 37.0213 200.598 45.9735C200.598 54.9257 193.37 62.2502 184.535 62.2502C175.701 62.2502 168.473 54.9257 168.473 45.9735H168.172C168.172 55.1291 175.5 62.5554 184.535 62.5554C193.571 62.5554 200.899 55.1291 200.899 45.9735C200.799 36.8178 193.571 29.3916 184.535 29.3916Z" fill="#C8E5F7"/>
<path d="M168.473 45.9736C168.473 39.2595 172.489 33.3592 178.612 30.8159L178.512 30.5107C172.489 32.9522 168.172 38.9543 168.172 45.8719H168.473V45.9736Z" fill="#FBB85D"/>
<path d="M213.749 32.0361H210.336V35.4949H213.749V32.0361Z" fill="#FAA634"/>
<g opacity="0.3">
<path opacity="0.3" d="M226.099 32.9521H215.859V33.3591H226.099V32.9521Z" fill="#005D92"/>
<path opacity="0.3" d="M222.385 34.0713H215.859V34.4782H222.385V34.0713Z" fill="#005D92"/>
</g>
<path d="M213.749 37.3262H210.336V40.785H213.749V37.3262Z" fill="#BAD875"/>
<g opacity="0.3">
<path opacity="0.3" d="M226.099 38.2422H215.859V38.6491H226.099V38.2422Z" fill="#005D92"/>
<path opacity="0.3" d="M222.385 39.3613H215.859V39.7682H222.385V39.3613Z" fill="#005D92"/>
</g>
<path d="M213.749 42.4121H210.336V45.8709H213.749V42.4121Z" fill="#76BEEA"/>
<g opacity="0.3">
<path opacity="0.3" d="M226.099 43.3281H215.859V43.735H226.099V43.3281Z" fill="#005D92"/>
<path opacity="0.3" d="M222.385 44.4473H215.859V44.8542H222.385V44.4473Z" fill="#005D92"/>
</g>
<path opacity="0.2" d="M225.997 49.4326H210.336V59.0969H225.997V49.4326Z" fill="#76BEEA"/>
<path d="M191.2 46.9871C191.795 43.2714 189.305 39.7703 185.638 39.1673C181.971 38.5642 178.516 41.0876 177.921 44.8033C177.326 48.519 179.816 52.0201 183.483 52.6232C187.15 53.2262 190.605 50.7029 191.2 46.9871Z" fill="white"/>
<path d="M333.614 115.251L333.112 116.777L332.61 117.184L332.007 117.896L331.305 119.727L331.706 119.931L332.208 118.913L332.409 119.015L331.405 121.05L332.911 120.948L334.216 119.422L334.517 118.71L334.718 117.184L335.22 115.861L333.614 115.251Z" fill="#FBCDA6"/>
<path d="M336.924 110.978L336.823 111.08C335.92 111.385 335.217 110.876 334.514 109.757C332.908 107.214 330.599 104.366 329.093 101.416C328.29 99.8896 329.093 99.0758 329.796 98.4654L329.896 98.3637C331 97.6516 331.904 98.5672 332.506 99.4827C334.414 102.738 337.727 108.638 337.727 108.638C338.128 109.554 337.827 110.571 336.924 110.978Z" fill="#F6A505"/>
<path d="M335.219 116.777L333.211 115.963C333.211 115.963 334.215 112.911 334.717 109.757C334.918 108.435 335.52 107.519 336.423 107.825C337.327 108.028 338.23 108.842 337.628 110.47C336.925 112.809 335.219 116.777 335.219 116.777Z" fill="#F6A505"/>
<path d="M324.881 115.657L289.945 88.8008L293.559 84.0195L328.495 110.876C328.596 110.978 328.596 111.08 328.495 111.181L325.182 115.759C325.082 115.759 324.982 115.759 324.881 115.657Z" fill="#0F3A5D"/>
<path d="M331.502 122.169L298.775 97.1433C298.072 96.5329 297.871 95.5156 298.474 94.7018L301.586 90.5309C302.188 89.8188 303.192 89.6153 303.995 90.2257L336.723 115.251C337.526 115.963 338.128 116.37 337.526 117.082L333.51 122.576C332.807 123.288 332.205 122.779 331.502 122.169Z" fill="#0F3A5D"/>
<path d="M273.778 47.7027C273.075 47.7027 272.373 47.8044 271.67 47.9062C257.816 49.9407 248.179 62.9621 250.186 76.899C252.194 90.9377 265.044 100.704 278.798 98.6691C292.652 96.6345 302.289 83.6132 300.281 69.6763C298.474 56.4514 286.829 46.9906 273.778 47.7027ZM278.195 94.193C266.851 95.8207 256.411 87.7841 254.804 76.3904C253.198 64.895 261.129 54.3151 272.373 52.6874C272.975 52.5857 273.477 52.5857 274.079 52.484C284.721 51.8736 294.258 59.605 295.764 70.4901C297.37 81.8838 289.439 92.5654 278.195 94.193Z" fill="#0F3A5D"/>
<path opacity="0.3" d="M286.358 92.5622C296.845 86.3596 300.385 72.7164 294.264 62.0893C288.143 51.4622 274.679 47.8753 264.192 54.0779C253.705 60.2804 250.165 73.9236 256.286 84.5507C262.407 95.1779 275.871 98.7647 286.358 92.5622Z" fill="white"/>
<path opacity="0.3" d="M295.863 72.1173C296.565 83.7144 287.831 93.5822 276.487 94.2943C265.043 95.0064 255.305 86.1559 254.602 74.6605C253.899 63.0634 262.633 53.1956 273.977 52.4835C285.422 51.7714 295.16 60.6218 295.863 72.1173Z" fill="#005D92"/>
<path opacity="0.2" d="M293.656 72.2193C294.259 82.494 286.529 91.4461 276.289 92.0565C266.149 92.6669 257.315 84.8337 256.713 74.4573C256.11 64.1827 263.84 55.2305 274.08 54.6201C284.32 54.1115 293.054 61.9446 293.656 72.2193Z" fill="white"/>
<path opacity="0.4" d="M278.496 64.3861C285.021 65.7086 290.442 68.8622 293.856 72.6262C293.856 72.5244 293.856 72.321 293.856 72.2192C293.253 61.8429 284.419 53.908 274.28 54.5183C266.148 55.027 259.522 60.8256 257.414 68.3535C261.831 64.3861 269.862 62.6567 278.496 64.3861Z" fill="white"/>
<path d="M335.825 120.032C334.52 121.863 333.114 123.084 332.713 122.881C332.311 122.575 333.114 120.948 334.52 119.117C335.825 117.285 337.23 116.065 337.632 116.268C337.933 116.573 337.13 118.201 335.825 120.032Z" fill="#33718E"/>
<path d="M324.682 94.3058L324.148 98.6465L326.838 98.9863L327.372 94.6456L324.682 94.3058Z" fill="#FFDBCB"/>
<path d="M321.593 96.8972L321.047 101.339L328.817 102.32L329.363 97.8788L321.593 96.8972Z" fill="#FBCDA6"/>
<path d="M322.867 91.3448C322.365 93.2776 323.168 95.1088 324.775 95.6174C326.381 96.0243 328.088 94.9053 328.59 93.0742C328.69 92.769 329.794 89.4119 329.794 89.2084L328.891 87.886L326.682 86.5635H324.674C324.674 86.6652 323.771 87.0721 323.47 88.2929C323.168 89.2084 322.968 91.1413 322.867 91.3448Z" fill="#FFDBCB"/>
<path d="M323.671 86.5632C323.27 85.4442 323.771 84.7321 324.173 84.5287C324.374 84.4269 325.077 84.2235 326.382 84.9356C327.687 85.6477 327.787 84.9356 328.59 85.4442C329.795 86.2581 330.799 88.2926 330.498 89.7169C330.297 90.8359 329.393 92.0566 328.992 92.667L328.389 93.786C328.189 94.1929 327.687 94.3964 327.285 94.3964L326.482 94.2947C326.08 94.1929 325.88 94.2947 325.478 94.0912L325.277 93.8878C324.976 93.4808 324.775 92.9722 324.775 92.4635L324.876 91.2428C324.876 91.2428 325.177 90.5307 325.177 90.3272C325.177 90.1238 324.976 89.7169 324.775 89.8186C324.575 89.8186 324.474 90.5307 324.173 90.6324C324.073 90.6324 323.872 90.5307 323.872 90.429C323.771 90.2255 323.872 89.6151 324.073 89.1065C324.073 89.0047 323.872 88.8013 323.972 88.8013C324.073 88.3944 324.474 87.8857 324.374 87.5805C324.273 87.2753 323.872 87.1736 323.671 86.5632Z" fill="#212B53"/>
<path d="M305 99.991L303.595 99.3806L303.294 98.7703L302.892 97.9564L301.286 96.7357L300.985 97.0409L301.788 97.8547L301.687 97.9564L300.081 96.5322L299.68 97.9564L300.784 99.6858L301.386 100.194L302.691 100.703L304.097 101.517L305 99.991Z" fill="#FFDBCB"/>
<path d="M308.513 103.45L308.413 103.348C308.112 102.433 308.714 101.822 309.919 101.212C312.629 99.7876 315.54 97.753 318.552 96.4305C320.158 95.8202 321.062 96.5323 321.363 97.3461V97.4478C321.765 98.872 321.062 99.4824 320.058 99.9911C316.745 101.619 310.621 104.467 310.621 104.467C309.818 104.772 308.814 104.365 308.513 103.45Z" fill="#F6A505"/>
<path d="M302.992 101.212L303.996 99.2793C303.996 99.2793 306.907 100.602 309.919 101.314C311.224 101.619 312.027 102.229 311.726 103.247C311.425 104.162 310.521 104.976 309.016 104.264C306.707 103.247 302.992 101.212 302.992 101.212Z" fill="#F6A505"/>
<path d="M307.912 170.388L308.012 170.795H309.919L309.819 170.286H309.719V168.354H307.711V168.659L306.807 169.371L303.896 170.185C303.896 170.185 303.695 170.286 303.695 170.388V170.592V170.693C303.695 170.693 303.695 170.795 303.996 170.795H307.309L307.51 170.49L307.711 170.388H307.912Z" fill="#212B53"/>
<path d="M326.287 170.388L326.387 170.795H328.295L328.194 170.286H328.094L327.692 168.354H325.684V168.659L325.182 169.371L322.271 170.185C322.271 170.185 322.07 170.286 322.07 170.388V170.592V170.693C322.07 170.693 322.07 170.795 322.372 170.795H325.684L325.885 170.49L326.086 170.388H326.287Z" fill="#212B53"/>
<path d="M330.101 121.253L316.046 120.846L316.147 122.27L315.344 126.339L310.927 148.211L307.312 168.252L310.525 168.862L315.745 149.228L321.568 130.205L321.869 129.798L323.576 149.025L325.182 168.353L328.294 168.557L328.394 148.516L329.198 129.086L330.001 126.237L329.8 122.88L330.101 121.253Z" fill="#00666B"/>
<path d="M323.972 96.736H323.671C323.671 96.736 321.161 96.2273 320.358 96.2273C318.35 96.0239 317.145 97.7532 316.945 99.3809V109.961L316.643 112.707L315.539 120.948L316.041 122.27L329.895 122.88L330.296 121.354V113.725L331.2 107.214L332.605 101.822C332.706 100.602 332.706 98.6688 331.1 97.9567C330.296 97.5498 327.486 97.0411 327.486 97.0411C327.486 97.0411 326.18 97.1429 325.679 97.0411C325.177 97.1429 323.972 96.736 323.972 96.736Z" fill="#F6A505"/>
</svg>
