<svg width="16" height="16" viewBox="0 0 16 16" fill="none" xmlns="http://www.w3.org/2000/svg">
<path d="M10.5 13.4167C8.40833 13.4167 6.6 12.2333 5.7 10.5H10.5V8.83333H5.15C5.10833 8.55833 5.08333 8.28333 5.08333 8C5.08333 7.71667 5.10833 7.44167 5.15 7.16667H10.5V5.5H5.7C6.6 3.76667 8.41667 2.58333 10.5 2.58333C11.8417 2.58333 13.075 3.075 14.025 3.89167L15.5 2.41667C14.175 1.225 12.4167 0.5 10.5 0.5C7.23333 0.5 4.46667 2.59167 3.43333 5.5H0.5V7.16667H3.05C3.01667 7.44167 3 7.71667 3 8C3 8.28333 3.01667 8.55833 3.05 8.83333H0.5V10.5H3.43333C4.46667 13.4083 7.23333 15.5 10.5 15.5C12.425 15.5 14.175 14.775 15.5 13.5833L14.0167 12.1083C13.075 12.925 11.85 13.4167 10.5 13.4167Z" fill="#0F3A5D"/>
</svg>
