<svg width="30" height="30" viewBox="0 0 30 30" fill="none" xmlns="http://www.w3.org/2000/svg">
<rect width="30" height="30" fill="white"/>
<path d="M22.8513 17.3248C22.699 17.3182 22.5479 17.3545 22.4153 17.4297C22.2826 17.5048 22.1738 17.6158 22.1013 17.7498L21.6763 17.6748L21.6138 17.3623C21.6058 17.2276 21.5713 17.0958 21.5123 16.9745C21.4533 16.8532 21.3709 16.7447 21.2699 16.6553C21.1689 16.5658 21.0512 16.4972 20.9236 16.4534C20.796 16.4096 20.6609 16.3914 20.5263 16.3998C20.3083 16.3845 20.0913 16.4409 19.9085 16.5606C19.7256 16.6802 19.587 16.8564 19.5138 17.0623L19.0263 16.9998V16.4998C19.0135 16.2157 18.8924 15.9472 18.6878 15.7496C18.4832 15.552 18.2107 15.4402 17.9263 15.4373C17.6553 15.4305 17.3924 15.53 17.1938 15.7145C16.9952 15.8991 16.8768 16.154 16.8638 16.4248V16.6623H16.3638L16.0638 9.72483C16.0508 9.45513 15.9319 9.20144 15.733 9.01888C15.534 8.83633 15.2711 8.73964 15.0013 8.74983C14.8683 8.7431 14.7353 8.76267 14.6098 8.80743C14.4844 8.85218 14.369 8.92124 14.2704 9.01065C14.1717 9.10006 14.0916 9.20805 14.0347 9.32846C13.9778 9.44887 13.9452 9.57931 13.9388 9.71233L13.4263 21.8998L9.75129 18.8373C9.56391 18.6751 9.32411 18.5863 9.07629 18.5873C8.8405 18.5872 8.61154 18.6665 8.42628 18.8123C8.20936 18.9871 8.0659 19.2369 8.02423 19.5123C7.98257 19.7877 8.04575 20.0687 8.20128 20.2998L12.6763 26.7123C13.0743 27.2944 13.6074 27.7712 14.23 28.1021C14.8527 28.4331 15.5462 28.6081 16.2513 28.6123H20.7638C21.1671 28.6134 21.5664 28.5331 21.938 28.3763C22.3095 28.2196 22.6457 27.9895 22.9263 27.6998C23.2061 27.4033 23.4233 27.0535 23.5651 26.6712C23.7068 26.289 23.7701 25.8821 23.7513 25.4748V18.0748C23.7435 17.9657 23.7138 17.8593 23.6639 17.7619C23.6141 17.6645 23.545 17.5782 23.461 17.5082C23.3769 17.4382 23.2796 17.3858 23.1748 17.3543C23.0701 17.3228 22.96 17.3128 22.8513 17.3248Z" fill="#FF7C44"/>
<path d="M29.5242 7.3126L25.9617 3.7501C25.7823 3.57673 25.5425 3.47983 25.293 3.47983C25.0434 3.47983 24.8037 3.57673 24.6242 3.7501C24.448 3.95787 24.3513 4.22144 24.3513 4.49385C24.3513 4.76626 24.448 5.02983 24.6242 5.2376L26.3492 7.0751H20.6117C20.3063 5.81346 19.5856 4.69114 18.5654 3.88847C17.5452 3.08581 16.2848 2.64941 14.9867 2.64941C13.6886 2.64941 12.4282 3.08581 11.4081 3.88847C10.3879 4.69114 9.66716 5.81346 9.36172 7.0751H3.64922L5.37422 5.2376C5.5504 5.02983 5.6471 4.76626 5.6471 4.49385C5.6471 4.22144 5.5504 3.95787 5.37422 3.7501C5.19476 3.57673 4.95499 3.47983 4.70547 3.47983C4.45595 3.47983 4.21618 3.57673 4.03672 3.7501L0.47422 7.3126C0.297611 7.49285 0.198856 7.73525 0.19922 7.9876V7.9876C0.201459 8.23944 0.299833 8.4809 0.47422 8.6626L4.03672 12.2251C4.21618 12.3985 4.45595 12.4954 4.70547 12.4954C4.95499 12.4954 5.19476 12.3985 5.37422 12.2251C5.5504 12.0173 5.6471 11.7538 5.6471 11.4814C5.6471 11.2089 5.5504 10.9454 5.37422 10.7376L3.67422 8.9251H9.23672C9.33994 10.4323 10.0259 11.84 11.1492 12.8501C11.2895 12.968 11.466 13.0342 11.6492 13.0376C11.756 13.035 11.8611 13.0103 11.9579 12.9651C12.0547 12.92 12.1411 12.8553 12.2117 12.7751C12.2782 12.7032 12.3292 12.6184 12.3615 12.5259C12.3937 12.4334 12.4066 12.3353 12.3992 12.2376C12.3944 12.1397 12.3697 12.0438 12.3267 11.9557C12.2838 11.8677 12.2234 11.7892 12.1492 11.7251C11.4916 11.146 11.026 10.3804 10.8144 9.53005C10.6028 8.67975 10.6552 7.78516 10.9647 6.9654C11.2742 6.14563 11.826 5.43959 12.5468 4.94129C13.2675 4.44299 14.123 4.17607 14.9992 4.17607C15.8755 4.17607 16.7309 4.44299 17.4517 4.94129C18.1724 5.43959 18.7243 6.14563 19.0338 6.9654C19.3433 7.78516 19.3957 8.67975 19.1841 9.53005C18.9725 10.3804 18.5068 11.146 17.8492 11.7251C17.7793 11.7948 17.7238 11.8776 17.686 11.9687C17.6481 12.0599 17.6286 12.1576 17.6286 12.2564C17.6286 12.3551 17.6481 12.4528 17.686 12.544C17.7238 12.6351 17.7793 12.7179 17.8492 12.7876C17.9214 12.8649 18.0084 12.9269 18.105 12.9698C18.2017 13.0128 18.306 13.0358 18.4117 13.0376C18.5949 13.0342 18.7714 12.968 18.9117 12.8501C20.0351 11.84 20.721 10.4323 20.8242 8.9251H26.3867L24.6242 10.7376C24.448 10.9454 24.3513 11.2089 24.3513 11.4814C24.3513 11.7538 24.448 12.0173 24.6242 12.2251C24.8037 12.3985 25.0434 12.4954 25.293 12.4954C25.5425 12.4954 25.7823 12.3985 25.9617 12.2251L29.5242 8.6626C29.6986 8.4809 29.797 8.23944 29.7992 7.9876C29.7996 7.73525 29.7008 7.49285 29.5242 7.3126V7.3126Z" fill="#FF7C44"/>
</svg>
