<svg width="30" height="30" viewBox="0 0 30 30" fill="none" xmlns="http://www.w3.org/2000/svg">
<path d="M25.75 4.25H4.25C2.875 4.25 1.875 5.375 1.875 6.625V21C1.875 22.375 3 23.375 4.25 23.375H10.25V24.625C10.25 25.25 10.75 25.875 11.5 25.875H18.625C19.25 25.875 19.875 25.375 19.875 24.625V23.375H25.875C27.25 23.375 28.25 22.25 28.25 21V6.625C28.125 5.25 27.125 4.25 25.75 4.25ZM10.25 16.375C10.25 16.75 10 17 9.625 17H5.875C5.5 17 5.25 16.75 5.25 16.375V13.375C5.25 13 5.5 12.75 5.875 12.75H9.625C10 12.75 10.25 13 10.25 13.375V16.375ZM17.5 16.375C17.5 16.75 17.25 17 16.875 17H13.125C12.75 17 12.5 16.75 12.5 16.375V10.875C12.5 10.5 12.75 10.25 13.125 10.25H16.875C17.25 10.25 17.5 10.5 17.5 10.875V16.375ZM24.75 16.375C24.75 16.75 24.5 17 24.125 17H20.375C20 17 19.75 16.75 19.75 16.375V14.625C19.75 14.25 20 14 20.375 14H24.125C24.5 14 24.75 14.25 24.75 14.625V16.375Z" fill="white"/>
</svg>
