<svg width="54" height="54" viewBox="0 0 54 54" fill="none" xmlns="http://www.w3.org/2000/svg">
<path d="M20.2492 32.1742C21.8647 32.1742 23.1742 30.8647 23.1742 29.2492C23.1742 27.6338 21.8647 26.3242 20.2492 26.3242C18.6338 26.3242 17.3242 27.6338 17.3242 29.2492C17.3242 30.8647 18.6338 32.1742 20.2492 32.1742Z" fill="#FF7C44"/>
<path d="M33.7492 32.1742C35.3647 32.1742 36.6742 30.8647 36.6742 29.2492C36.6742 27.6338 35.3647 26.3242 33.7492 26.3242C32.1338 26.3242 30.8242 27.6338 30.8242 29.2492C30.8242 30.8647 32.1338 32.1742 33.7492 32.1742Z" fill="#FF7C44"/>
<path d="M27.0008 48.8248C15.0758 48.8248 5.17578 38.9248 5.17578 26.9998C5.17578 15.0748 15.0758 5.1748 27.0008 5.1748C38.9258 5.1748 48.8258 15.0748 48.8258 26.9998C48.8258 38.9248 38.9258 48.8248 27.0008 48.8248ZM21.3758 13.9498C19.1258 19.5748 14.6258 23.8498 8.77578 26.0998L8.32578 26.3248L8.55078 26.9998C8.55078 37.3498 16.8758 45.8998 27.2258 45.8998C37.5758 45.8998 45.9008 37.5748 45.9008 27.2248C45.9008 25.4248 45.6758 23.6248 45.2258 22.0498L45.0008 21.3748L44.3258 21.5998C42.7508 22.0498 41.1758 22.0498 39.6008 22.0498C33.0758 22.0498 26.7758 19.1248 22.7258 13.9498L21.8258 12.8248L21.3758 13.9498ZM17.7758 10.7998C13.7258 13.0498 10.8008 16.8748 9.22578 21.1498L8.77578 22.7248L10.3508 21.8248C14.4008 19.5748 17.3258 15.7498 18.9008 11.4748L19.3508 9.89981L17.7758 10.7998ZM27.0008 8.3248C26.1008 8.3248 24.9758 8.3248 23.8508 8.5498L22.9508 8.77481L23.4008 9.67481C26.7758 15.2998 32.8508 18.6748 39.3758 18.6748C40.2758 18.6748 41.4008 18.6748 42.5258 18.4498L43.4258 18.2248L42.9758 17.3248C39.6008 11.6998 33.5258 8.3248 27.0008 8.3248Z" fill="#FF7C44"/>
</svg>
