<svg width="24" height="25" viewBox="0 0 24 25" fill="none" xmlns="http://www.w3.org/2000/svg">
<path d="M8.99922 14.5898C9.71719 14.5898 10.2992 14.0011 10.2992 13.2749C10.2992 12.5487 9.71719 11.96 8.99922 11.96C8.28125 11.96 7.69922 12.5487 7.69922 13.2749C7.69922 14.0011 8.28125 14.5898 8.99922 14.5898Z" fill="white"/>
<path d="M14.9992 14.5898C15.7172 14.5898 16.2992 14.0011 16.2992 13.2749C16.2992 12.5487 15.7172 11.96 14.9992 11.96C14.2812 11.96 13.6992 12.5487 13.6992 13.2749C13.6992 14.0011 14.2812 14.5898 14.9992 14.5898Z" fill="white"/>
<path d="M12.0008 22.0751C6.70078 22.0751 2.30078 17.6246 2.30078 12.2636C2.30078 6.90272 6.70078 2.45215 12.0008 2.45215C17.3008 2.45215 21.7008 6.90272 21.7008 12.2636C21.7008 17.6246 17.3008 22.0751 12.0008 22.0751ZM9.50078 6.39698C8.50078 8.92571 6.50078 10.8476 3.90078 11.859L3.70078 11.9602L3.80078 12.2636C3.80078 16.9165 7.50078 20.7602 12.1008 20.7602C16.7008 20.7602 20.4008 17.0177 20.4008 12.3648C20.4008 11.5556 20.3008 10.7464 20.1008 10.0384L20.0008 9.73491L19.7008 9.83606C19.0008 10.0384 18.3008 10.0384 17.6008 10.0384C14.7008 10.0384 11.9008 8.72342 10.1008 6.39698L9.70078 5.89123L9.50078 6.39698ZM7.90078 4.98089C6.10078 5.99238 4.80078 7.71192 4.10078 9.63376L3.90078 10.3418L4.60078 9.93721C6.40078 8.92571 7.70078 7.20617 8.40078 5.28433L8.60078 4.57629L7.90078 4.98089ZM12.0008 3.86824C11.6008 3.86824 11.1008 3.86824 10.6008 3.96939L10.2008 4.07054L10.4008 4.47514C11.9008 7.00388 14.6008 8.52112 17.5008 8.52112C17.9008 8.52112 18.4008 8.52112 18.9008 8.41997L19.3008 8.31882L19.1008 7.91422C17.6008 5.38548 14.9008 3.86824 12.0008 3.86824Z" fill="white"/>
</svg>
