<svg width="54" height="54" viewBox="0 0 54 54" fill="none" xmlns="http://www.w3.org/2000/svg">
<path d="M47.925 50.3434H6.075C5.175 50.3434 4.5 49.6684 4.5 48.7684C4.5 47.8684 5.175 47.1934 6.075 47.1934H47.925C48.825 47.1934 49.5 47.8684 49.5 48.7684C49.5 49.6684 48.825 50.3434 47.925 50.3434Z" fill="#FF7C44"/>
<path d="M12.3742 44.2684C11.4742 44.2684 10.5742 43.3684 10.5742 42.4684V24.2434C10.5742 23.3434 11.4742 22.4434 12.3742 22.4434C13.2742 22.4434 14.1742 23.3434 14.1742 24.2434V42.4684C14.1742 43.5934 13.2742 44.2684 12.3742 44.2684Z" fill="#FF7C44"/>
<path d="M27.0008 44.043C26.1008 44.043 25.4258 43.368 25.4258 42.468V24.243C25.4258 23.343 26.1008 22.668 27.0008 22.668C27.9008 22.668 28.5758 23.343 28.5758 24.243V42.468C28.5758 43.368 27.9008 44.043 27.0008 44.043Z" fill="#FF7C44"/>
<path d="M41.1727 44.043C40.2727 44.043 39.5977 43.368 39.5977 42.468V24.243C39.5977 23.343 40.2727 22.668 41.1727 22.668C42.0727 22.668 42.7477 23.343 42.7477 24.243V42.468C42.5227 43.368 41.8477 44.043 41.1727 44.043Z" fill="#FF7C44"/>
<path d="M47.4757 19.5187H6.52568C5.62568 19.5187 4.95068 19.0687 4.72568 18.1687C4.50068 17.2687 4.72568 16.5937 5.62568 16.1437L26.1007 4.66875C26.7757 4.44375 27.2257 4.44375 27.9007 4.66875L48.3757 16.1437C49.2757 16.5937 49.5007 17.2687 49.2757 18.1687C49.0507 19.0687 48.3757 19.5187 47.4757 19.5187ZM11.0257 16.5937H42.9757L27.0007 7.59375L11.0257 16.5937Z" fill="#FF7C44"/>
</svg>
