<svg width="30" height="30" viewBox="0 0 30 30" fill="none" xmlns="http://www.w3.org/2000/svg">
<path d="M15 19.5C14.75 19.5 14.625 19.375 14.5 19.25L9.625 14.375C9.5 14.25 9.375 14 9.375 13.75C9.375 13.5 9.5 13.25 9.625 13.125C9.75 13 10 12.875 10.25 12.875C10.5 12.875 10.75 13 10.875 13.125L14 16.25L14 5.75C14 5.25 14.375 4.75 15 4.75C15.5 4.75 16 5.125 16 5.75V16.25L19.125 13.125C19.25 13 19.5 12.875 19.75 12.875C20 12.875 20.25 13 20.375 13.125C20.75 13.5 20.75 14.125 20.375 14.5L15.5 19.375C15.375 19.375 15.25 19.5 15 19.5Z" fill="#0F3A5D"/>
<path d="M7 25.25C5.75 25.25 4.75 24.25 4.75 23V20.375C4.75 19.875 5.125 19.375 5.75 19.375C6.375 19.375 6.75 19.75 6.75 20.375V23.375L23.5 23.375V20.375C23.5 19.875 23.875 19.375 24.5 19.375C25 19.375 25.5 19.75 25.5 20.375V23C25.5 24.25 24.5 25.25 23.25 25.25L7 25.25Z" fill="#0F3A5D"/>
</svg>
