<svg width="24" height="24" viewBox="0 0 24 24" fill="none" xmlns="http://www.w3.org/2000/svg">
<path fill-rule="evenodd" clip-rule="evenodd" d="M16.5333 20.9781C16.5333 21.1151 16.5333 21.2521 16.4 21.2521C16.2472 21.3044 16.1139 21.3567 16 21.4014C15.8157 21.4737 15.6824 21.526 15.6 21.526C15.4667 21.5945 15.3 21.6288 15.1333 21.663C14.9667 21.6973 14.8 21.7315 14.6667 21.8C14.5333 21.8 14.4 21.8 14.2667 21.663L12.8 19.7452H11.3333L9.86667 21.663C9.73333 21.8 9.73333 21.8 9.6 21.8H9.46667C9.2 21.8 8.8 21.663 8.53333 21.526C8.13333 21.389 7.86667 21.2521 7.6 21.1151C7.6 21.1151 7.46667 20.9781 7.46667 20.8411L7.6 18.5123C7.06667 18.2384 6.8 17.9644 6.4 17.5534L4.13333 18.1014C4 18.1014 3.86667 18.1014 3.73333 17.9644C3.66667 17.8274 3.56667 17.6904 3.46667 17.5534C3.36667 17.4164 3.26667 17.2795 3.2 17.1425C3.06667 16.7315 2.93334 16.4576 2.80001 16.1836L2.8 16.1836C2.66667 16.0466 2.66667 15.9096 2.8 15.7726L4.4 13.9918C4.37712 13.8978 4.35425 13.8078 4.33204 13.7205C4.22484 13.2988 4.13333 12.9389 4.13333 12.4849L2.13333 11.389C2 11.389 2 11.2521 2 11.1151C2 10.9781 2.03333 10.8069 2.06667 10.6356C2.1 10.4644 2.13333 10.2932 2.13333 10.1562C2.2 10.0192 2.23333 9.84795 2.26667 9.67671C2.3 9.50548 2.33333 9.33425 2.4 9.19726C2.4 9.06028 2.53333 8.92329 2.66667 8.92329L4.93333 8.64932C5.06667 8.10137 5.33333 7.69041 5.6 7.27946L4.8 5.08767C4.66667 4.95069 4.66667 4.8137 4.8 4.67672C5.06667 4.53973 5.33333 4.26576 5.6 3.99178C5.73333 3.8548 6 3.58082 6.26667 3.44384C6.4 3.30685 6.53333 3.30685 6.66667 3.44384L8.53333 4.67672C9.06667 4.40274 9.46667 4.26576 10 4.12877L10.5333 2.07398C10.5333 1.93699 10.6667 1.8 10.8 1.8H11.7333H12.6667C12.8 1.8 12.9333 1.93699 12.9333 2.07398L13.6 4.26576C14.1333 4.40274 14.6667 4.53973 15.0667 4.8137L17.0667 3.58082C17.2 3.44384 17.3333 3.44384 17.4667 3.58082C17.7333 3.71781 18 3.8548 18.2667 4.12877C18.3528 4.30569 18.4945 4.42548 18.6559 4.56193C18.7444 4.63678 18.8389 4.71665 18.9333 4.8137C19.0667 4.95069 19.0667 5.08767 19.0667 5.22466L18.2667 7.41644C18.5171 7.67376 18.663 7.98478 18.8026 8.28225C18.8859 8.45987 18.967 8.63266 19.0667 8.7863L21.3333 9.06028C21.4667 9.06028 21.6 9.19726 21.6 9.33425C21.7333 9.60822 21.8667 10.0192 21.8667 10.2932C21.8667 10.4301 21.9 10.6014 21.9333 10.7726C21.9667 10.9438 22 11.1151 22 11.2521C22 11.389 22 11.526 21.8667 11.526L19.8667 12.6219C19.8667 13.0759 19.7752 13.4358 19.668 13.8575C19.6458 13.9448 19.6229 14.0348 19.6 14.1288L21.2 15.9096V16.3205C21.0667 16.7315 20.9333 17.0055 20.8 17.2795C20.7333 17.4164 20.6333 17.5534 20.5333 17.6904C20.4333 17.8274 20.3333 17.9644 20.2667 18.1014C20.1333 18.2384 20 18.2384 19.8667 18.2384L17.6 17.6904C17.4 17.8274 17.2 17.9986 17 18.1699C16.8 18.3411 16.6 18.5123 16.4 18.6493L16.5333 20.9781ZM8 12C8 9.77778 9.77778 8 12 8C14.2222 8 16 9.77778 16 12C16 14.2222 14.2222 16 12 16C9.77778 16 8 14.2222 8 12Z" fill="#0F3A5D"/>
</svg>
