<?xml version="1.0" encoding="utf-8"?>
<!-- Generator: Adobe Illustrator 21.0.0, SVG Export Plug-In . SVG Version: 6.00 Build 0)  -->
<svg version="1.1" id="Layer_1" xmlns="http://www.w3.org/2000/svg" xmlns:xlink="http://www.w3.org/1999/xlink" x="0px" y="0px"
	 viewBox="0 0 24 24" style="enable-background:new 0 0 24 24;" xml:space="preserve">
<style type="text/css">
	.st0{fill:#37404F;}
	.st1{fill:none;stroke:#000000;stroke-width:1.0193;stroke-linecap:round;stroke-miterlimit:10;}
	.st2{fill:none;stroke:#000000;stroke-width:0.6795;stroke-linecap:round;stroke-miterlimit:10;}
	.st3{fill:#FFFFFF;}
	.st4{fill:#00A69C;}
	.st5{fill:#111111;}
	.st6{fill:#3C3C3B;}
	.st7{fill-rule:evenodd;clip-rule:evenodd;fill:#37404F;}
	.st8{fill-rule:evenodd;clip-rule:evenodd;}
	.st9{fill:none;stroke:#000000;stroke-width:0.7;stroke-linecap:round;stroke-linejoin:round;stroke-miterlimit:10;}
	.st10{fill:none;stroke:#000000;stroke-width:0.5539;stroke-linecap:round;stroke-linejoin:round;stroke-miterlimit:10;}
	.st11{fill:#CC003D;}
	.st12{fill:#FEFDFD;}
	.st13{fill:#F18D03;}
	.st14{fill:#C42617;}
	.st15{fill:#C92B1B;}
	.st16{fill:#C72A18;}
	.st17{fill:#E95C28;}
	.st18{fill:#EB5D29;}
	.st19{fill:#E65C24;}
	.st20{fill:#A6123B;}
	.st21{fill:#F15A40;}
	.st22{fill:none;stroke:#FFFFFF;stroke-linecap:round;stroke-miterlimit:10;}
</style>
<g>
	<path d="M8.3,12.9L8.3,12.9c0.5,0,0.9-0.4,0.9-0.9v0c0-0.5-0.4-0.9-0.9-0.9h0c-0.5,0-0.9,0.4-0.9,0.9v0C7.4,12.5,7.8,12.9,8.3,12.9
		z M15.7,11.1L15.7,11.1c-0.5,0-0.9,0.4-0.9,0.9v0c0,0.5,0.4,0.9,0.9,0.9h0c0.5,0,0.9-0.4,0.9-0.9v0C16.6,11.5,16.2,11.1,15.7,11.1z
		 M12,12.9L12,12.9c0.5,0,0.9-0.4,0.9-0.9v0c0-0.5-0.4-0.9-0.9-0.9h0c-0.5,0-0.9,0.4-0.9,0.9v0C11.1,12.5,11.5,12.9,12,12.9z"/>
	<g>
		<path d="M7.4,6.6L7.4,6.6C7,6.3,6.4,6.3,6.1,6.7l-4.1,5c-0.2,0.2-0.2,0.5,0,0.6l4.1,5c0.3,0.4,0.9,0.4,1.3,0.1l0,0
			c0.4-0.3,0.4-0.9,0.1-1.3l-3.2-3.8c-0.2-0.2-0.2-0.5,0-0.6l3.2-3.8C7.8,7.5,7.8,6.9,7.4,6.6z"/>
		<path d="M16.6,6.6L16.6,6.6c-0.4,0.3-0.4,0.9-0.1,1.3l3.2,3.8c0.2,0.2,0.2,0.5,0,0.6l-3.2,3.8c-0.3,0.4-0.3,1,0.1,1.3l0,0
			c0.4,0.3,1,0.3,1.3-0.1l4.1-5c0.2-0.2,0.2-0.5,0-0.6l-4.1-5C17.6,6.3,17,6.3,16.6,6.6z"/>
	</g>
</g>
</svg>
