<svg width="30" height="30" viewBox="0 0 30 30" fill="none" xmlns="http://www.w3.org/2000/svg">
<path d="M25.75 4.25H4.25C2.875 4.25 1.875 5.375 1.875 6.625V21C1.875 22.375 3 23.375 4.25 23.375H10.25V24.625C10.25 25.25 10.75 25.875 11.5 25.875H18.625C19.25 25.875 19.875 25.375 19.875 24.625V23.375H25.875C27.25 23.375 28.25 22.25 28.25 21V6.625C28.125 5.25 27.125 4.25 25.75 4.25ZM25.625 22.25H4.375C3.625 22.25 3 21.625 3 20.875V6.75C3 6 3.625 5.375 4.375 5.375H25.625C26.375 5.375 27 6 27 6.75V20.75C27 21.625 26.375 22.25 25.625 22.25Z" fill="white"/>
<path d="M9.625 12.5H5.875C5.5 12.5 5.25 12.75 5.25 13.125V16.25C5.25 16.625 5.5 16.875 5.875 16.875H9.625C10 16.875 10.25 16.625 10.25 16.25V13.125C10.25 12.75 10 12.5 9.625 12.5Z" fill="white"/>
<path d="M16.875 10H13.125C12.75 10 12.5 10.25 12.5 10.625V16.25C12.5 16.625 12.75 16.875 13.125 16.875H16.875C17.25 16.875 17.5 16.625 17.5 16.25V10.625C17.5 10.25 17.25 10 16.875 10Z" fill="white"/>
<path d="M24.125 13.75H20.375C20 13.75 19.75 14 19.75 14.375V16.25C19.75 16.625 20 16.875 20.375 16.875H24.125C24.5 16.875 24.75 16.625 24.75 16.25V14.375C24.75 14 24.5 13.75 24.125 13.75Z" fill="white"/>
</svg>
