<svg width="54" height="54" viewBox="0 0 54 54" fill="none" xmlns="http://www.w3.org/2000/svg">
<path d="M40.6784 31.5449H30.1484V42.0749H40.6784V31.5449Z" fill="#FF7C44"/>
<path d="M10.5078 49.3422C9.31434 49.3422 8.16975 48.8681 7.32583 48.0242C6.48192 47.1803 6.00781 46.0357 6.00781 44.8422V13.9272C6.00781 12.7338 6.48192 11.5892 7.32583 10.7452C8.16975 9.90133 9.31434 9.42723 10.5078 9.42723H13.0053V4.65723H17.5053V9.35973H36.6753V4.65723H41.1753V9.35973H43.6728C44.8663 9.35973 46.0109 9.83383 46.8548 10.6777C47.6987 11.5217 48.1728 12.6663 48.1728 13.8597V44.7972C48.1728 45.9907 47.6987 47.1353 46.8548 47.9792C46.0109 48.8231 44.8663 49.2972 43.6728 49.2972L10.5078 49.3422ZM8.25781 44.6622C8.25781 45.3007 8.51146 45.9131 8.96295 46.3646C9.41445 46.8161 10.0268 47.0697 10.6653 47.0697H43.3803C44.0188 47.0697 44.6312 46.8161 45.0827 46.3646C45.5342 45.9131 45.7878 45.3007 45.7878 44.6622V16.0647H8.21281L8.25781 44.6622Z" fill="#FF7C44"/>
</svg>
