<svg width="30" height="30" viewBox="0 0 30 30" fill="none" xmlns="http://www.w3.org/2000/svg">
<path d="M10.375 16.125C11 16.125 11.5 15.625 11.5 15C11.5 14.375 11 13.875 10.375 13.875C9.75 13.875 9.25 14.375 9.25 15C9.25 15.625 9.75 16.125 10.375 16.125ZM19.625 13.875C19 13.875 18.5 14.375 18.5 15C18.5 15.625 19 16.125 19.625 16.125C20.25 16.125 20.75 15.625 20.75 15C20.75 14.375 20.25 13.875 19.625 13.875ZM15 16.125C15.625 16.125 16.125 15.625 16.125 15C16.125 14.375 15.625 13.875 15 13.875C14.375 13.875 13.875 14.375 13.875 15C13.875 15.625 14.375 16.125 15 16.125Z" fill="white"/>
<path d="M9.25 8.25022C8.75 7.87522 8 7.87521 7.625 8.37521L2.5 14.6252C2.25 14.8752 2.25 15.2502 2.5 15.3752L7.625 21.6252C8 22.1252 8.75 22.1252 9.25 21.7502C9.75 21.3752 9.75 20.6252 9.375 20.1252L5.375 15.3752C5.125 15.1252 5.125 14.7502 5.375 14.6252L9.375 9.87522C9.75 9.37522 9.75 8.62522 9.25 8.25022Z" fill="white"/>
<path d="M20.7497 8.25022C20.2497 8.62522 20.2497 9.37522 20.6247 9.87522L24.6247 14.6252C24.8747 14.8752 24.8747 15.2502 24.6247 15.3752L20.6247 20.1252C20.2497 20.6252 20.2497 21.3752 20.7497 21.7502C21.2497 22.1252 21.9997 22.1252 22.3747 21.6252L27.4997 15.3752C27.7497 15.1252 27.7497 14.7502 27.4997 14.6252L22.3747 8.37521C21.9997 7.87521 21.2497 7.87522 20.7497 8.25022Z" fill="white"/>
</svg>
