<svg width="30" height="30" viewBox="0 0 30 30" fill="none" xmlns="http://www.w3.org/2000/svg">
<path d="M14.8334 3.0592C18.6327 3.0592 21.7988 6.22531 21.7988 10.0246C21.7988 13.824 18.6327 16.9901 14.8334 16.9901C11.034 16.9901 7.86792 13.824 7.86792 10.0246C7.86792 6.22531 11.034 3.0592 14.8334 3.0592ZM14.8334 1.25C10.039 1.25 6.05872 5.13979 6.05872 10.0246C6.05872 14.9095 9.9485 18.7993 14.8334 18.7993C19.6277 18.7993 23.608 14.9095 23.608 10.0246C23.608 5.13979 19.6277 1.25 14.8334 1.25Z" fill="#0F3A5D" stroke="#0F3A5D" stroke-width="0.5"/>
<path d="M21.1655 19.8849C19.2658 21.0609 17.0948 21.6941 14.8333 21.6941C12.5718 21.6941 10.4007 21.0609 8.50108 19.8849C5.78727 21.5132 3.52577 24.1365 1.98795 27.3931C2.44025 27.8454 2.89255 28.2977 3.34485 28.75C4.61129 25.9457 6.4205 23.5033 8.59154 21.9655C10.4912 22.9605 12.6623 23.5033 14.8333 23.5033C17.0043 23.5033 19.1754 22.9605 21.075 21.9655C23.2461 23.5033 25.0553 25.9457 26.3217 28.75C26.774 28.2977 27.2263 27.8454 27.6786 27.3931C26.0504 24.1365 23.7889 21.5132 21.1655 19.8849Z" fill="#0F3A5D" stroke="#0F3A5D" stroke-width="0.5"/>
</svg>
