<svg width="54" height="54" viewBox="0 0 54 54" fill="none" xmlns="http://www.w3.org/2000/svg">
<path d="M46.35 7.65039H7.65C5.175 7.65039 3.375 9.67539 3.375 11.9254V37.8004C3.375 40.2754 5.4 42.0754 7.65 42.0754H18.45V44.3254C18.45 45.4504 19.35 46.5754 20.7 46.5754H33.525C34.65 46.5754 35.775 45.6754 35.775 44.3254V42.0754H46.575C49.05 42.0754 50.85 40.0504 50.85 37.8004V11.9254C50.625 9.45039 48.825 7.65039 46.35 7.65039ZM46.125 40.0504H7.875C6.525 40.0504 5.4 38.9254 5.4 37.5754V12.1504C5.4 10.8004 6.525 9.67539 7.875 9.67539H46.125C47.475 9.67539 48.6 10.8004 48.6 12.1504V37.3504C48.6 38.9254 47.475 40.0504 46.125 40.0504Z" fill="#FF7C44"/>
<path d="M17.3242 22.5H10.5742C9.89922 22.5 9.44922 22.95 9.44922 23.625V29.25C9.44922 29.925 9.89922 30.375 10.5742 30.375H17.3242C17.9992 30.375 18.4492 29.925 18.4492 29.25V23.625C18.4492 22.95 17.9992 22.5 17.3242 22.5Z" fill="#FF7C44"/>
<path d="M30.375 18H23.625C22.95 18 22.5 18.45 22.5 19.125V29.25C22.5 29.925 22.95 30.375 23.625 30.375H30.375C31.05 30.375 31.5 29.925 31.5 29.25V19.125C31.5 18.45 31.05 18 30.375 18Z" fill="#FF7C44"/>
<path d="M43.4258 24.75H36.6758C36.0008 24.75 35.5508 25.2 35.5508 25.875V29.25C35.5508 29.925 36.0008 30.375 36.6758 30.375H43.4258C44.1008 30.375 44.5508 29.925 44.5508 29.25V25.875C44.5508 25.2 44.1008 24.75 43.4258 24.75Z" fill="#FF7C44"/>
</svg>
