<svg width="30" height="30" viewBox="0 0 30 30" fill="none" xmlns="http://www.w3.org/2000/svg">
<path fill-rule="evenodd" clip-rule="evenodd" d="M6.30156 4.11059C6.61604 3.84937 6.9719 3.78662 7.21733 3.78662C7.49846 3.78662 7.74996 3.86361 7.95136 3.96431C8.55708 4.26717 8.82441 4.86308 8.82441 5.38597V6.30755H10.9833C12.5206 6.30755 13.9227 6.81698 15.0699 7.71274C16.1949 6.8478 17.6201 6.30755 19.1492 6.30755H21.2462V5.44783C21.2462 4.96328 21.4747 4.41671 21.9932 4.09644C22.1505 3.98995 22.3008 3.93614 22.3995 3.90793C22.5545 3.86366 22.7025 3.84848 22.8301 3.84848C22.9577 3.84848 23.1057 3.86366 23.2607 3.90793C23.3787 3.94166 23.5728 4.01261 23.7639 4.16851L28.2707 7.57911C28.5691 7.78005 28.761 8.08194 28.8309 8.40801C28.8959 8.71137 28.8398 8.96219 28.8155 9.05914C28.8035 9.10722 28.7897 9.15228 28.778 9.18775C28.7388 9.38067 28.6685 9.52773 28.6363 9.59209C28.5745 9.71572 28.4722 9.88509 28.3183 10.039L28.2577 10.0996L23.6453 13.59C23.3309 13.8513 22.975 13.914 22.7296 13.914C22.4484 13.914 22.1969 13.837 21.9955 13.7363C21.3898 13.4335 21.1225 12.8376 21.1225 12.3147V11.4549H19.0255C18.2276 11.4549 17.609 12.0736 17.609 12.8714V24.5017C17.609 24.8762 17.479 25.286 17.1597 25.6054C16.8403 25.9247 16.4305 26.0547 16.0561 26.0547H13.8908C13.5164 26.0547 13.1066 25.9247 12.7872 25.6054C12.4679 25.286 12.3379 24.8762 12.3379 24.5017V12.7477C12.3379 11.9498 11.7193 11.3312 10.9214 11.3312H8.82441V12.1909C8.82441 12.6755 8.59592 13.222 8.07746 13.5423C7.92016 13.6488 7.76983 13.7026 7.67111 13.7308C7.51616 13.7751 7.36816 13.7903 7.24053 13.7903C7.1129 13.7903 6.9649 13.7751 6.80995 13.7308C6.69192 13.6971 6.49778 13.6262 6.30674 13.4702L1.6892 9.97588L1.62861 9.91529C1.47467 9.76135 1.3724 9.59198 1.31058 9.46835C1.26755 9.38227 1.14062 9.12021 1.14062 8.78845C1.14062 8.4567 1.26754 8.19463 1.31058 8.10856C1.3724 7.98493 1.47467 7.81555 1.6286 7.66162L1.68919 7.60103L6.30156 4.11059ZM7.14893 5.0466C7.12849 5.05297 7.11235 5.06175 7.09842 5.07369L7.08398 5.08607L2.51218 8.54581C2.49853 8.55951 2.48331 8.57792 2.4678 8.60068C2.45229 8.62341 2.43902 8.64676 2.42862 8.66757C2.41944 8.68593 2.40928 8.70799 2.40129 8.73326C2.39296 8.75962 2.39062 8.77833 2.39062 8.78845C2.39062 8.79858 2.39296 8.81729 2.40129 8.84364C2.40928 8.86891 2.41944 8.89097 2.42862 8.90933C2.43902 8.93015 2.4523 8.9535 2.4678 8.97623C2.48331 8.99898 2.49853 9.0174 2.51218 9.03109L7.0841 12.4909L7.09611 12.501C7.11055 12.5131 7.13082 12.5225 7.15335 12.5289C7.17974 12.5365 7.21007 12.5403 7.24053 12.5403C7.27099 12.5403 7.30132 12.5365 7.32771 12.5289C7.34611 12.5237 7.36398 12.5162 7.37818 12.5062L7.39676 12.4931L7.41624 12.4815C7.51796 12.4205 7.57441 12.3076 7.57441 12.1909V10.0812H10.9214C12.4096 10.0812 13.5879 11.2595 13.5879 12.7477V24.5017C13.5879 24.594 13.6189 24.6693 13.6711 24.7215C13.7233 24.7737 13.7985 24.8047 13.8908 24.8047H16.0561C16.1484 24.8047 16.2236 24.7737 16.2758 24.7215C16.328 24.6693 16.359 24.594 16.359 24.5017V12.8714C16.359 11.3832 17.5373 10.2049 19.0255 10.2049H22.3725V12.3147C22.3725 12.4393 22.4356 12.5588 22.5546 12.6183C22.6159 12.6489 22.6768 12.664 22.7296 12.664C22.7515 12.664 22.7759 12.6609 22.798 12.654C22.8184 12.6477 22.8345 12.6389 22.8485 12.6269L22.8629 12.6146L27.4347 9.15482C27.4484 9.14112 27.4636 9.1227 27.4791 9.09996C27.4946 9.07722 27.5079 9.05387 27.5183 9.03306C27.5254 9.01879 27.533 9.00255 27.54 8.98366C27.5472 8.96418 27.5521 8.9461 27.5546 8.93075L27.5636 8.8743L27.5827 8.82042C27.5846 8.81507 27.5867 8.80904 27.5888 8.80259C27.5905 8.79765 27.5922 8.79247 27.5939 8.78715C27.5979 8.7745 27.6009 8.76382 27.6029 8.75596C27.6064 8.74172 27.6093 8.72765 27.6106 8.71169C27.6119 8.69541 27.6111 8.68141 27.6086 8.66993C27.6036 8.64638 27.5909 8.62779 27.5708 8.61478L27.551 8.60205L22.9865 5.14784L22.9745 5.13777C22.9601 5.12566 22.9398 5.11627 22.9173 5.10984C22.8909 5.1023 22.8606 5.09848 22.8301 5.09848C22.7996 5.09848 22.7693 5.1023 22.7429 5.10984C22.7245 5.1151 22.7066 5.1226 22.6924 5.13258L22.6739 5.14563L22.6544 5.1573C22.5527 5.21825 22.4962 5.33116 22.4962 5.44783V7.55755H19.1492C17.7558 7.55755 16.4544 8.11515 15.4868 8.99181L15.0648 9.37413L14.6449 8.98947C13.6495 8.07747 12.3889 7.55755 10.9833 7.55755H7.57441V5.38597C7.57441 5.26138 7.51128 5.14182 7.39234 5.08235C7.33102 5.05169 7.27014 5.03662 7.21733 5.03662C7.19542 5.03662 7.17099 5.03972 7.14893 5.0466Z" fill="#0F3A5D"/>
</svg>
