<svg width="30" height="30" viewBox="0 0 30 30" fill="none" xmlns="http://www.w3.org/2000/svg">
<path d="M5.875 6.625L4.75 7.75L7.25 10.25C7.375 10.375 7.625 10.5 7.75 10.5C8 10.5 8.125 10.375 8.375 10.25L13.375 4.125L12.125 3.125L7.75 8.625L5.875 6.625Z" fill="#0B91CE"/>
<path d="M3.25 13.375H11.75C12.125 13.375 12.5 13 12.5 12.625V8.875H10.875V11.75H4V5.25H9.375V3.625H3.25C2.75 3.625 2.5 4 2.5 4.375V12.5C2.5 13 2.75 13.375 3.25 13.375Z" fill="#0F3A5D"/>
<path d="M11.75 17.25H9.375H3.25C2.75 17.25 2.5 17.5 2.5 18V21.625V26.125C2.5 26.5 2.875 26.875 3.25 26.875H5.625H11.75C12.125 26.875 12.5 26.5 12.5 26.125V22.5V18C12.5 17.5 12.125 17.25 11.75 17.25ZM10.875 25.25H5.625H4V21.625V18.75H9.375H10.875V22.5V25.25Z" fill="#0F3A5D"/>
<path d="M28.75 19.75H15V24.375H28.75V19.75Z" fill="#0F3A5D"/>
<path d="M28.75 6.125H15V10.75H28.75V6.125Z" fill="#0F3A5D"/>
</svg>
