<svg width="100" height="100" viewBox="0 0 100 100" fill="none" xmlns="http://www.w3.org/2000/svg">
<path d="M87.082 13.3333H48.332V10.8333C48.332 9.16658 47.082 8.33325 45.832 8.33325C44.582 8.33325 43.332 9.58325 43.332 10.8333V79.1666C43.332 80.8333 44.582 81.6666 45.832 81.6666C47.082 81.6666 48.332 80.4166 48.332 79.1666V49.5832H87.082C88.332 49.5832 89.582 48.3333 89.582 47.0833V15.8333C89.582 14.5833 88.332 13.3333 87.082 13.3333ZM84.582 43.3332C84.582 43.7499 84.1654 44.1666 83.7487 44.1666H49.582C49.1654 44.1666 48.7487 43.7499 48.7487 43.3332V19.9999C48.7487 19.5833 49.1654 19.1666 49.582 19.1666H83.332C83.7487 19.1666 84.1654 19.5833 84.1654 19.9999V43.3332H84.582Z" fill="#5C81A2"/>
<path d="M62.9167 74.1665C61.6667 73.7498 60 73.3332 58.3333 72.9165C57.9167 72.9165 57.9167 72.9165 57.5 72.9165C55.8333 72.9165 55 73.7498 55 74.9998C55 77.4998 57.0833 78.3332 57.9167 78.3332C58.3333 78.3332 59.1667 78.7498 59.5833 78.7498C63.3333 79.5832 65 80.8332 65.4167 81.2498L65.8333 81.6665L65.4167 82.0832C65 82.4998 63.3333 83.7498 59.5833 84.5832C55.4167 85.8332 50.4167 86.2498 45 86.2498C39.5833 86.2498 34.5833 85.8332 30.4167 84.5832C26.6667 83.7498 25 82.4998 24.5833 82.0832L24.1667 81.6665H25C25.4167 81.2498 27.0833 79.9998 30.8333 79.1665C31.25 79.1665 32.0833 78.7498 32.5 78.7498C33.3333 78.7498 35.4167 77.9165 35.4167 75.4165C35.4167 74.1665 34.5833 73.3332 32.9167 73.3332C32.5 73.3332 32.0833 73.3332 32.0833 73.3332C30.4167 73.7498 29.1667 74.1665 27.5 74.5832C21.6667 76.2498 18.75 78.7498 18.75 82.0832C18.75 85.4165 21.6667 87.9165 27.5 89.5832C32.0833 90.8332 38.3333 91.6665 45 91.6665C51.6667 91.6665 57.9167 90.8332 62.5 89.5832C68.3333 87.9165 71.25 85.4165 71.25 82.0832C71.25 78.7498 68.75 75.8332 62.9167 74.1665Z" fill="#5C81A2"/>
</svg>
