<svg width="30" height="30" viewBox="0 0 30 30" fill="none" xmlns="http://www.w3.org/2000/svg">
<path d="M22.6 17.525H16.75V23.375H22.6V17.525Z" fill="white"/>
<path d="M5.83594 27.4125C5.1729 27.4125 4.53701 27.1491 4.06817 26.6803C3.59933 26.2115 3.33594 25.5756 3.33594 24.9125V7.73752C3.33594 7.07448 3.59933 6.4386 4.06817 5.96976C4.53701 5.50092 5.1729 5.23752 5.83594 5.23752H7.22344V2.58752H9.72344V5.20002H20.3734V2.58752H22.8734V5.20002H24.2609C24.924 5.20002 25.5599 5.46342 26.0287 5.93226C26.4975 6.4011 26.7609 7.03698 26.7609 7.70002V24.8875C26.7609 25.5506 26.4975 26.1865 26.0287 26.6553C25.5599 27.1241 24.924 27.3875 24.2609 27.3875L5.83594 27.4125ZM4.58594 24.8125C4.58594 25.1673 4.72685 25.5075 4.97768 25.7583C5.22851 26.0091 5.56871 26.15 5.92344 26.15H24.0984C24.4532 26.15 24.7934 26.0091 25.0442 25.7583C25.295 25.5075 25.4359 25.1673 25.4359 24.8125V8.92502H4.56094L4.58594 24.8125Z" fill="white"/>
</svg>
