<svg width="54" height="54" viewBox="0 0 54 54" fill="none" xmlns="http://www.w3.org/2000/svg">
<path fill-rule="evenodd" clip-rule="evenodd" d="M13.4601 14.3122C12.5681 14.3122 11.676 14.0892 11.007 13.7547V45.4212C11.007 46.7593 12.1221 47.8743 13.4601 47.8743H41.3356V14.3122H13.4601ZM13.4601 4.5H38.2135C38.6595 4.5 38.994 4.94601 38.994 5.28051C38.994 5.61502 38.6595 5.94953 38.325 5.94953H13.4601C11.7876 5.94953 10.338 7.28755 10.338 9.07158V9.18308C10.338 10.8556 11.676 12.3051 13.4601 12.3051H42.7851C43.1196 12.3051 43.4541 12.6396 43.4541 12.9742V49.5468C43.4541 49.7698 43.2311 49.9928 43.0081 49.9928H13.4601C11.007 49.9928 9 47.9858 9 45.5327V9.07158V8.96008C9 6.50704 11.007 4.5 13.4601 4.5ZM13.0141 36.6125V36.8355C13.0141 37.393 13.9062 37.7275 14.3522 37.839C14.6867 37.839 15.0212 37.7275 15.1327 37.393L15.8017 35.0515H19.9273L20.5963 37.393C20.7078 37.7275 20.9308 37.839 21.3768 37.839C21.9343 37.839 22.8263 37.393 22.8263 36.8355V36.6125L19.3698 25.3508C19.2583 24.7933 18.5892 24.5703 17.9202 24.5703C17.2512 24.5703 16.5822 24.7933 16.4707 25.3508L13.0141 36.6125ZM18.0317 27.5809L19.5928 33.0445H16.4707L18.0317 27.5809ZM24.4985 32.4872H29.1816C29.5161 32.4872 29.9621 32.9332 29.9621 33.4907C29.9621 34.0482 29.6276 34.3827 29.1816 34.3827H24.4985C24.0525 34.3827 23.8295 34.0482 23.8295 33.4907C23.8295 32.9332 24.0525 32.4872 24.4985 32.4872ZM38.5479 35.7208H33.4188L38.8824 26.2431C38.9939 25.9086 39.1054 25.5741 39.1054 25.3511C39.1054 24.9051 38.8824 24.6821 38.4364 24.6821H31.6348C31.1887 24.6821 30.9657 25.2396 30.9657 25.6856C30.9657 26.2431 31.1887 26.6891 31.6348 26.6891H36.0948L30.7427 36.2783C30.6312 36.5013 30.5197 36.8358 30.5197 37.0588C30.5197 37.5048 30.7427 37.7278 31.1887 37.7278H38.5479C39.1054 37.7278 39.3284 37.1703 39.3284 36.7243C39.3284 36.2783 38.9939 35.7208 38.5479 35.7208Z" fill="#FF7C44"/>
</svg>
