<svg width="54" height="54" viewBox="0 0 54 54" fill="none" xmlns="http://www.w3.org/2000/svg">
<path fill-rule="evenodd" clip-rule="evenodd" d="M11.3405 7.39955C11.9065 6.92936 12.5471 6.81641 12.9889 6.81641C13.4949 6.81641 13.9476 6.95499 14.3101 7.13625C15.4004 7.6814 15.8816 8.75403 15.8816 9.69523V11.3541H19.7675C22.5347 11.3541 25.0586 12.2711 27.1235 13.8834C29.1484 12.3265 31.7138 11.3541 34.4663 11.3541H38.2408V9.80659C38.2408 8.93439 38.6521 7.95057 39.5854 7.37409C39.8685 7.18239 40.1391 7.08554 40.3168 7.03477C40.5957 6.95508 40.8621 6.92776 41.0918 6.92776C41.3215 6.92776 41.588 6.95508 41.8669 7.03477C42.0793 7.09547 42.4287 7.22319 42.7726 7.50381L50.885 13.6429C51.4221 14.0046 51.7674 14.548 51.8932 15.1349C52.0102 15.681 51.9092 16.1324 51.8656 16.3069C51.844 16.3935 51.8191 16.4746 51.7981 16.5384C51.7275 16.8857 51.6009 17.1504 51.543 17.2663C51.4317 17.4888 51.2476 17.7937 50.9706 18.0707L50.8615 18.1798L42.5593 24.4626C41.9932 24.9328 41.3526 25.0457 40.9109 25.0457C40.4048 25.0457 39.9521 24.9071 39.5896 24.7259C38.4993 24.1807 38.0181 23.1081 38.0181 22.1669V20.6194H34.2435C32.8074 20.6194 31.6939 21.7329 31.6939 23.1691V44.1036C31.6939 44.7776 31.4599 45.5153 30.8851 46.0902C30.3103 46.665 29.5726 46.8989 28.8986 46.8989H25.0012C24.3272 46.8989 23.5894 46.665 23.0146 46.0902C22.4398 45.5153 22.2059 44.7776 22.2059 44.1036V22.9464C22.2059 21.5102 21.0924 20.3967 19.6562 20.3967H15.8816V21.9442C15.8816 22.8164 15.4703 23.8002 14.5371 24.3767C14.254 24.5684 13.9834 24.6652 13.8057 24.716C13.5267 24.7957 13.2603 24.823 13.0306 24.823C12.8009 24.823 12.5345 24.7957 12.2556 24.716C12.0431 24.6553 11.6937 24.5276 11.3498 24.2469L3.03821 17.9571L2.92915 17.848C2.65206 17.5709 2.46797 17.266 2.35671 17.0435C2.27924 16.8886 2.05078 16.4169 2.05078 15.8197C2.05078 15.2225 2.27924 14.7508 2.3567 14.5959C2.46797 14.3734 2.65206 14.0685 2.92914 13.7914L3.03821 13.6823L11.3405 7.39955ZM12.8657 9.08436C12.8289 9.09584 12.7999 9.11163 12.7748 9.13312L12.7488 9.15541L4.51958 15.3829C4.49501 15.4076 4.46761 15.4408 4.43969 15.4817C4.41179 15.5226 4.3879 15.5647 4.36917 15.6021C4.35265 15.6352 4.33437 15.6749 4.31999 15.7204C4.30498 15.7678 4.30078 15.8015 4.30078 15.8197C4.30078 15.8379 4.30498 15.8716 4.31999 15.9191C4.33437 15.9645 4.35265 16.0042 4.36917 16.0373C4.3879 16.0748 4.41179 16.1168 4.43969 16.1577C4.46761 16.1987 4.495 16.2318 4.51958 16.2565L12.749 22.4842L12.7707 22.5023C12.7966 22.5241 12.8331 22.541 12.8737 22.5526C12.9212 22.5661 12.9758 22.573 13.0306 22.573C13.0854 22.573 13.14 22.5661 13.1875 22.5526C13.2207 22.5431 13.2528 22.5296 13.2784 22.5116L13.3118 22.4881L13.3469 22.4671C13.53 22.3574 13.6316 22.1542 13.6316 21.9442V18.1467H19.6562C22.335 18.1467 24.4559 20.2675 24.4559 22.9464V44.1036C24.4559 44.2698 24.5117 44.4053 24.6056 44.4992C24.6995 44.5931 24.835 44.6489 25.0012 44.6489H28.8986C29.0647 44.6489 29.2002 44.5931 29.2941 44.4992C29.388 44.4053 29.4439 44.2698 29.4439 44.1036V23.1691C29.4439 20.4902 31.5647 18.3694 34.2435 18.3694H40.2681V22.1669C40.2681 22.3911 40.3818 22.6064 40.5958 22.7134C40.7062 22.7686 40.8158 22.7957 40.9109 22.7957C40.9503 22.7957 40.9943 22.7901 41.034 22.7777C41.0708 22.7663 41.0998 22.7505 41.1249 22.729L41.1509 22.7067L49.3801 16.4792C49.4047 16.4545 49.4321 16.4214 49.46 16.3804C49.4879 16.3395 49.5118 16.2975 49.5305 16.26C49.5434 16.2343 49.5571 16.2051 49.5697 16.1711C49.5826 16.136 49.5914 16.1035 49.5958 16.0758L49.6121 15.9742L49.6465 15.8772C49.6499 15.8676 49.6536 15.8568 49.6575 15.8451C49.6605 15.8363 49.6636 15.8269 49.6666 15.8174C49.6738 15.7946 49.6793 15.7754 49.6828 15.7612C49.6892 15.7356 49.6945 15.7103 49.6968 15.6815C49.6991 15.6522 49.6976 15.627 49.6931 15.6064C49.6841 15.564 49.6613 15.5305 49.625 15.5071L49.5895 15.4842L41.3734 9.2666L41.3518 9.24847C41.3258 9.22667 41.2893 9.20978 41.2487 9.1982C41.2012 9.18463 41.1467 9.17776 41.0918 9.17776C41.037 9.17776 40.9824 9.18463 40.9349 9.1982C40.9018 9.20766 40.8696 9.22117 40.844 9.23913L40.8106 9.26263L40.7755 9.28363C40.5924 9.39333 40.4908 9.59658 40.4908 9.80659V13.6041H34.4663C31.958 13.6041 29.6156 14.6078 27.8738 16.1858L27.1143 16.8739L26.3585 16.1815C24.5668 14.5399 22.2977 13.6041 19.7675 13.6041H13.6316V9.69523C13.6316 9.47097 13.518 9.25576 13.3039 9.14871C13.1935 9.09352 13.0839 9.06641 12.9889 9.06641C12.9494 9.06641 12.9054 9.07198 12.8657 9.08436Z" fill="#FF7C44"/>
</svg>
