<svg width="54" height="54" viewBox="0 0 54 54" fill="none" xmlns="http://www.w3.org/2000/svg">
<path fill-rule="evenodd" clip-rule="evenodd" d="M24.4614 9.46329L23.7721 13.2549L22.7557 13.509L22.7331 13.5135C22.3594 13.5882 21.9588 13.745 21.6199 13.9145C21.4063 14.0213 21.1714 14.1256 20.9609 14.2192L20.9503 14.2239C20.7275 14.3229 20.5307 14.4106 20.3603 14.4958L19.4552 14.9484L16.2975 12.7263L16.2383 12.6672C16.1934 12.6223 16.0959 12.5634 15.8577 12.5634C15.6923 12.5634 15.5383 12.6059 15.2832 12.861L12.8346 15.3095L12.8064 15.3337C12.6844 15.4383 12.6203 15.572 12.6102 15.745C12.5995 15.9263 12.6511 16.1575 12.7916 16.3902L14.9484 19.4552L14.4958 20.3603C14.3016 20.7488 14.1245 21.1037 13.9474 21.5464C13.8873 21.6969 13.8338 21.8248 13.7864 21.9383C13.6535 22.2563 13.5678 22.4613 13.5135 22.7331L13.509 22.7557L13.2499 23.7919L9.45231 24.3673C8.99023 24.4829 8.6878 24.8931 8.6878 25.256V28.6471C8.6878 29.0799 8.96448 29.4218 9.46329 29.5386L13.2043 30.2187L13.4943 31.089L13.5034 31.1251C13.6031 31.524 13.6783 31.8109 13.8176 32.0894L13.8356 32.1255L13.8506 32.1629C14.0475 32.6552 14.2151 33.0694 14.46 33.4776L14.4792 33.5095L14.9484 34.448L12.7705 37.5429C12.5376 37.8689 12.5457 38.3047 12.861 38.6199L15.4288 41.1877L15.4701 41.2428C15.5402 41.3363 15.7065 41.4366 15.9545 41.4366C16.1928 41.4366 16.2903 41.3777 16.3352 41.3328L16.3944 41.2737L19.552 39.0516L20.4572 39.5042C20.6276 39.5894 20.8244 39.6771 21.0472 39.7761L21.058 39.7809C21.2684 39.8744 21.5032 39.9788 21.7168 40.0856C22.0793 40.2668 22.3442 40.3951 22.6474 40.4677H23.7638L24.3673 44.4508C24.4829 44.9129 24.8931 45.2153 25.256 45.2153H28.744C29.1768 45.2153 29.5187 44.9386 29.6354 44.4398L30.3248 40.6483L31.3412 40.3942L31.3638 40.3896C31.7358 40.3152 32.1255 40.1642 32.61 39.9706L34.6417 38.9547L37.7994 41.1768L37.8586 41.2359C37.9034 41.2808 38.001 41.3397 38.2392 41.3397C38.4046 41.3397 38.5586 41.2973 38.8137 41.0422L41.2622 38.5936L41.2905 38.5694C41.4125 38.4648 41.4765 38.3312 41.4867 38.1581C41.4974 37.9768 41.4458 37.7456 41.3053 37.5129L39.1485 34.448L39.6011 33.5428C39.8719 33.0012 40.0526 32.5504 40.2463 32.066L40.2613 32.0286L40.2793 31.9925C40.4171 31.7169 40.4915 31.5118 40.5646 31.2374V30.3331L44.5477 29.7296C45.0098 29.614 45.3122 29.2038 45.3122 28.8409V25.3529C45.3122 24.9201 45.0355 24.5782 44.5367 24.4615L40.7451 23.7721L40.491 22.7557L40.4865 22.7331C40.4121 22.3611 40.2611 21.9714 40.0675 21.4869L39.0516 19.4552L41.2256 16.3659L41.2295 16.3603C41.4624 16.0342 41.4543 15.5984 41.139 15.2832L38.6681 12.8123L38.6268 12.7572C38.5567 12.6637 38.3904 12.5634 38.1423 12.5634C38.1064 12.5634 38.0374 12.5734 37.933 12.6152C37.8334 12.655 37.7274 12.7134 37.6233 12.7821L34.5448 14.9484L33.675 14.5135C33.431 14.4149 33.2112 14.3172 33.0071 14.2265L33.0012 14.2239C32.7816 14.1263 32.5795 14.0366 32.3567 13.9474C32.2062 13.8873 32.0783 13.8338 31.9648 13.7864C31.6468 13.6535 31.4418 13.5678 31.17 13.5135L31.1474 13.509L30.1112 13.2499L29.5358 9.45231C29.4202 8.99023 29.01 8.6878 28.6471 8.6878H25.3529C24.9201 8.6878 24.5782 8.96448 24.4614 9.46329ZM22.5661 9.05896C22.8406 7.82385 23.8525 6.75 25.3529 6.75H28.6471C30.0212 6.75 31.1524 7.79221 31.4339 9.05896L31.441 9.09127L31.8334 11.6807C32.2012 11.7814 32.5361 11.9225 32.822 12.0428C32.9118 12.0806 32.9967 12.1164 33.0763 12.1482C33.3356 12.252 33.5677 12.3551 33.7824 12.4505L33.7882 12.4531C33.9864 12.5412 34.1702 12.6228 34.3679 12.7034L36.5289 11.1827L36.5391 11.1759C36.878 10.9499 37.4635 10.6256 38.1423 10.6256C38.8411 10.6256 39.6166 10.8955 40.1291 11.5328L42.5093 13.913C43.5494 14.9531 43.5424 16.4531 42.8087 17.4833C42.8079 17.4844 42.8071 17.4855 42.8064 17.4866L41.3025 19.6238L41.8368 20.6925L41.866 20.7655C42.0218 21.1547 42.2047 21.6118 42.3267 22.0901L44.9227 22.5621L44.941 22.5661C46.1761 22.8406 47.25 23.8525 47.25 25.3529V28.8409C47.25 30.215 46.2078 31.3462 44.941 31.6277L44.9087 31.6348L42.3546 32.0218C42.2733 32.2803 42.1743 32.5312 42.0311 32.8218C41.8552 33.2614 41.6668 33.7299 41.3989 34.2787L42.9224 36.4437L42.9365 36.4662C43.5805 37.4967 43.7051 39.0221 42.5827 40.0136L40.1839 42.4124C39.6639 42.9324 39.0428 43.2775 38.2392 43.2775C37.725 43.2775 37.0819 43.1538 36.5571 42.6721L34.4731 41.2056L33.4044 41.7399L33.3314 41.7691C32.9421 41.9249 32.4851 42.1078 32.0068 42.2298L31.5348 44.8258L31.5308 44.8442C31.2563 46.0793 30.2444 47.1531 28.744 47.1531H25.256C23.8819 47.1531 22.7507 46.1109 22.4692 44.8442L22.4621 44.8119L22.0851 42.3238C21.5966 42.1922 21.1976 41.9926 20.8789 41.8331L20.8502 41.8188C20.6798 41.7336 20.483 41.6459 20.2602 41.5469L20.2495 41.5421C20.0814 41.4674 19.8978 41.3858 19.7219 41.3016L17.6366 42.769C17.1119 43.2507 16.4687 43.3744 15.9545 43.3744C15.2558 43.3744 14.4803 43.1045 13.9678 42.4672L11.4907 39.9901C10.4505 38.9499 10.4576 37.4499 11.1915 36.4196C11.1922 36.4186 11.1929 36.4175 11.1936 36.4165L12.6909 34.2888C12.4212 33.8057 12.2315 33.333 12.0653 32.9175C11.894 32.5657 11.7865 32.2195 11.7053 31.9158L9.07731 31.438L9.05895 31.4339C7.82385 31.1594 6.75 30.1475 6.75 28.6471V25.256C6.75 23.8819 7.79221 22.7507 9.05895 22.4692L9.09127 22.4621L11.6807 22.0697C11.7814 21.7019 11.9225 21.367 12.0428 21.0811C12.0806 20.9913 12.1164 20.9064 12.1482 20.8268C12.3353 20.359 12.5225 19.975 12.6976 19.6238L11.1745 17.4594L11.1604 17.437C10.5163 16.4064 10.3918 14.881 11.5142 13.8895L13.913 11.4907C14.433 10.9707 15.0541 10.6256 15.8577 10.6256C16.3719 10.6256 17.015 10.7493 17.5397 11.231L19.625 12.6984C19.801 12.6142 19.9846 12.5326 20.1527 12.4578L20.1633 12.4531C20.3861 12.3541 20.5829 12.2664 20.7533 12.1812C21.1247 11.9955 21.592 11.8006 22.0901 11.6733L22.5621 9.07731L22.5661 9.05896Z" fill="#FF7C44"/>
<path fill-rule="evenodd" clip-rule="evenodd" d="M19.0547 26.903C19.0547 22.4923 22.589 18.958 26.9997 18.958C31.4104 18.958 34.9446 22.4923 34.9446 26.903C34.9446 31.3137 31.4104 34.848 26.9997 34.848C22.589 34.848 19.0547 31.3137 19.0547 26.903ZM26.9997 20.8958C23.6592 20.8958 20.9925 23.5625 20.9925 26.903C20.9925 30.2435 23.6592 32.9102 26.9997 32.9102C30.3402 32.9102 33.0068 30.2435 33.0068 26.903C33.0068 23.5625 30.3402 20.8958 26.9997 20.8958Z" fill="#FF7C44"/>
</svg>
