<svg width="30" height="30" viewBox="0 0 30 30" fill="none" xmlns="http://www.w3.org/2000/svg">
<path d="M5.83594 27.4124C5.1729 27.4124 4.53701 27.149 4.06817 26.6802C3.59933 26.2113 3.33594 25.5754 3.33594 24.9124V7.7374C3.33594 7.07436 3.59933 6.43848 4.06817 5.96964C4.53701 5.50079 5.1729 5.2374 5.83594 5.2374H7.22344V2.5874H9.72344V5.1999H20.3734V2.5874H22.8734V5.1999H24.2609C24.924 5.1999 25.5599 5.46329 26.0287 5.93214C26.4975 6.40098 26.7609 7.03686 26.7609 7.6999V24.8874C26.7609 25.5504 26.4975 26.1863 26.0287 26.6552C25.5599 27.124 24.924 27.3874 24.2609 27.3874L5.83594 27.4124Z" fill="white"/>
<path d="M22.6 17.5249H16.75V23.3749H22.6V17.5249Z" fill="#0F3A5D"/>
</svg>
