<svg width="24" height="24" viewBox="0 0 24 24" fill="none" xmlns="http://www.w3.org/2000/svg">
<path d="M8.69999 6.19995C7.09999 6.19995 5.79999 7.49995 5.79999 9.09995C5.79999 10.7 7.09999 12 8.69999 12C10.3 12 11.6 10.7 11.6 9.09995C11.5 7.49995 10.2 6.19995 8.69999 6.19995Z" fill="black"/>
<path d="M13.4 4C12.4 4 11.4 4.2 10.4 4.6C11.4 5 12.2 5.7 12.8 6.7C13 6.4 13.2 6.1 13.4 5.7C14.1 6.7 14.6 7.8 15 9H13.5C13.5 9.1 13.5 9.1 13.5 9.2C13.5 9.7 13.4 10.2 13.2 10.7H15.3C15.4 11.2 15.4 11.8 15.4 12.3C15.4 12.9 15.3 13.4 15.3 13.9H14.7C15.5 14.4 16.2 15 16.6 15.8C16.6 15.7 16.7 15.6 16.7 15.5H19.1C18.6 16.4 17.8 17.1 17 17.7V19.6C19.8 18.3 21.7 15.5 21.7 12.2C21.6 7.7 17.9 4 13.4 4ZM15.5 6C17 6.5 18.3 7.6 19.1 8.9H16.7C16.4 7.9 16 6.9 15.5 6ZM17 13.8C17.1 13.3 17.1 12.7 17.1 12.2C17.1 11.6 17.1 11.1 17 10.6H19.8C19.9 11.1 20 11.7 20 12.2C20 12.8 19.9 13.3 19.8 13.8H17Z" fill="black"/>
<path d="M15 17.4C15 15.3 10.8 14.3 8.70002 14.3C6.60002 14.3 2.40002 15.4 2.40002 17.4V20H15V17.4Z" fill="black"/>
</svg>
