<svg width="30" height="30" viewBox="0 0 30 30" fill="none" xmlns="http://www.w3.org/2000/svg">
<path d="M25.7617 19.2625V14.825H15.6242V10.7375H19.1617V2.42505H10.8367V10.7375H14.3742V14.825H4.23672V19.2625H0.699219V27.575H9.02422V19.2625H5.48672V16.075H14.3742V19.2625H10.8367V27.575H19.1617V19.2625H15.6242V16.075H24.5117V19.2625H20.9742V27.575H29.2992V19.2625H25.7617ZM12.0867 9.48755V3.67505H17.9117V9.48755H12.0867ZM7.77422 26.325H1.94922V20.5125H7.77422V26.325ZM17.9117 26.325H12.0867V20.5125H17.9117V26.325ZM28.0492 26.325H22.2242V20.5125H28.0492V26.325Z" fill="#0F3A5D" stroke="#0F3A5D" stroke-width="0.4"/>
</svg>
