<svg width="54" height="54" viewBox="0 0 54 54" fill="none" xmlns="http://www.w3.org/2000/svg">
<path d="M26.1605 18.108C25.3193 18.108 24.5983 17.8677 23.9974 17.2668C23.3966 16.666 23.1562 15.945 23.1562 15.1038C23.1562 14.2626 23.5168 13.5416 23.9974 12.9408C24.5983 12.3399 25.3193 12.0996 26.1605 12.0996C27.0016 12.0996 27.7226 12.3399 28.3235 12.9408C28.9243 13.5416 29.1647 14.2626 29.1647 15.1038C29.1647 15.945 28.8042 16.666 28.3235 17.2668C27.7226 17.8677 27.0016 18.108 26.1605 18.108Z" fill="#FF7C44"/>
<path d="M21.3516 39.7386V37.095L22.3129 36.9748C23.1541 36.8546 23.5146 36.7344 23.6348 36.6143C23.8751 36.4941 23.8751 36.2538 23.9953 36.1336C24.1154 35.8933 24.1154 35.5328 24.2356 35.0521C24.2356 34.4513 24.3558 33.6101 24.3558 32.4084V27.3613C24.3558 25.679 24.3558 24.958 24.2356 24.5975C24.2356 24.1168 24.1154 23.8765 23.9953 23.7563C23.8751 23.516 23.7549 23.3958 23.5146 23.2756C23.3944 23.1555 23.0339 23.1555 22.5532 23.1555L21.5919 23.0353L21.7121 20.5118L29.6432 20.3916V32.5286V34.0908C29.6432 35.1723 29.7633 35.6529 29.7633 35.8933C29.8835 36.1336 30.0037 36.2538 30.0037 36.3739C30.1238 36.4941 30.3642 36.7344 31.5658 36.9748L32.5272 37.095V39.6185H21.3516V39.7386Z" fill="#FF7C44"/>
<path fill-rule="evenodd" clip-rule="evenodd" d="M27 5.36516C15.0023 5.36516 5.36516 15.0023 5.36516 27C5.36516 38.9977 15.0023 48.6348 27 48.6348C38.8828 48.6348 48.6348 38.9925 48.6348 27C48.6348 15.0023 38.9977 5.36516 27 5.36516ZM2.25 27C2.25 13.2818 13.2818 2.25 27 2.25C40.7182 2.25 51.75 13.2818 51.75 27C51.75 40.7235 40.5928 51.75 27 51.75C13.2818 51.75 2.25 40.7182 2.25 27Z" fill="#FF7C44"/>
</svg>
