<svg version="1" xmlns="http://www.w3.org/2000/svg" width="400" height="400" viewBox="0 0 300.000000 300.000000"><path d="M58.5 107.5c-5 4.9-2 12.5 4.8 12.5 2.3 0 4.1-.8 5.7-2.5l2.3-2.5h66.9c67.1 0 69.9.1 72 3.4.4.6.8 6.2.8 12.5v11.4l-2.2-2c-9.2-8.4-22.4-7.8-31.1 1.6-5.1 5.4-6.2 9-5.5 17.6 1.4 16.7 21.6 25 35 14.4l3.8-3v4.6c0 2.5.7 5.9 1.5 7.5 3.1 6 3.2 6 34.9 6h29l2.2 2.7c2.9 3.7 7.9 3.6 11.1-.1 1.2-1.5 2.3-3.6 2.3-4.6 0-1-1.1-3.1-2.3-4.6-3.2-3.7-8.2-3.8-11.1-.1l-2.2 2.7h-27.6c-26.3 0-27.6-.1-30.2-2.1l-2.6-2V118l-3.4-3.8-3.4-3.7-69.1-.3-69.1-.3-2.4-2.4c-3.2-3.2-7-3.2-10.1 0zm7.6 1.5c2.3 1.3 2.5 5.3.3 7.4-3 3-7.4 1-7.4-3.4 0-4.1 3.3-6 7.1-4zm133 31.1c14.2 4.8 16 24.7 2.9 31.6-15.4 8.2-31.5-8-23.5-23.7 1.8-3.6 4.8-6 9.2-7.6 4.7-1.6 7.1-1.7 11.4-.3zm88.3 43.5c.9.8 1.6 2.4 1.6 3.4 0 2.1-2.5 5-4.3 5-2.1 0-5.7-3-5.7-4.7 0-2.3 2.9-5.3 5.1-5.3 1 0 2.5.7 3.3 1.6zM15.1 135.7C9 138.9 8 142.3 8 160.6c0 12.9.3 16.4 1.5 17.4 3 2.5 3.5 0 3.5-17.1 0-16.7 0-17 2.5-19.4 1.3-1.4 3.1-2.5 4-2.5 2 0 5.7 1.9 6.7 3.4.4.6.8 8.6.8 17.7 0 13.4.3 16.9 1.5 17.9 3 2.5 3.5 0 3.5-17.5v-17.4l2.6-2c1.5-1.2 3.4-2.1 4.4-2.1 1 0 2.9.9 4.4 2.1l2.6 2v17.4c0 14.9.2 17.4 1.6 17.9.9.3 2 .4 2.5 0 1.4-.8 1.1-34.4-.4-37.3-3.2-6.3-11.9-8.6-17.4-4.5-2.7 2.1-2.8 2.1-5.3.3-3.8-2.8-8-3.2-11.9-1.2zM61.4 135.3c-.2.7-.3 10.7-.2 22.2.3 20.2.4 21 2.3 21s2-.8 2.3-21.4c.2-16.5-.1-21.6-1-22.3-1.8-1.1-2.8-1-3.4.5z"/><path d="M90.1 135.5c-14.9 4.7-20 24.5-9.3 35.8 6.6 7 17.8 8.9 26.2 4.4 4.8-2.5 5.4-3.5 4-5.7-.8-1.2-1.4-1.1-4.7.7-5.5 2.9-8.8 3.5-13.6 2.2-7.6-2-12.7-8.5-12.7-16.4 0-9 5.8-15.6 14.8-17.1 3.4-.5 5.2-.1 9.8 2.1 3.9 1.9 5.9 2.4 6.6 1.7 1.7-1.7.2-4-3.9-6.1-5.4-2.7-11.9-3.3-17.2-1.6zM137.5 134.9c-7.5 1.9-12.7 6.6-16 14.4-4.2 10 1.3 22.9 12 27.8 7.6 3.5 19 1.6 24-4.1l2-2.2.5 3.8c.4 3.1.9 3.9 2.5 3.9 1.9 0 2-.7 2-14 0-13.4-.1-14.2-2.7-18.6-3.1-5.2-9-9.7-14.5-11-4.3-1-5.6-1-9.8 0zm12 6c5 2.3 7.9 5.5 9.5 10.5 4.8 15-10.7 27.6-25 20.3-9.6-4.8-12-18.6-4.7-26.6 2.8-3 9.4-6.1 13.2-6.1 1.7 0 4.8.9 7 1.9zM241.1 135.5c-8.8 2.8-15 11.6-15.1 21.5 0 11.7 10.3 22 22 22 6.7 0 14.6-4.3 18.5-10 3.8-5.7 4.7-15.7 2-21.1-2.9-5.8-8.5-10.8-13.9-12.4-5.9-1.8-7.8-1.8-13.5 0zm12.2 4.7c8.4 2.5 13.6 11.7 11.7 20.5-3.5 15.4-25.4 18-32.7 3.9-3.4-6.5-.6-18.6 5-21.8 6.6-3.8 10.1-4.4 16-2.6z"/></svg>